<svg xmlns="http://www.w3.org/2000/svg" xmlns:xlink="http://www.w3.org/1999/xlink" width="32" height="32" viewBox="0 0 32 32">
  <defs>
    <clipPath id="clip-path">
      <rect id="Прямоугольник_8826" data-name="Прямоугольник 8826" width="32" height="32" fill="#fff" stroke="#707070" stroke-width="1"/>
    </clipPath>
  </defs>
  <g id="Telegram_color" data-name="Telegram color" clip-path="url(#clip-path)">
    <path id="Oval" d="M16,2.6A13.4,13.4,0,0,0,6.525,25.475a13.4,13.4,0,0,0,18.95-18.95A13.312,13.312,0,0,0,16,2.6M16,0A16,16,0,1,1,0,16,16,16,0,0,1,16,0Z" fill="#229ed9"/>
    <path id="Path-3" d="M46.56,78.408q6.994-3.037,9.326-4.023c4.436-1.852,5.369-2.172,5.968-2.185a1.069,1.069,0,0,1,.626.187.705.705,0,0,1,.226.44,2.3,2.3,0,0,1,.027.626c-.24,2.531-1.279,8.673-1.812,11.5-.226,1.2-.666,1.6-1.092,1.639-.933.08-1.639-.613-2.531-1.2-1.412-.919-2.2-1.492-3.57-2.4-1.585-1.039-.56-1.612.346-2.545.24-.24,4.33-3.97,4.41-4.3a.317.317,0,0,0-.08-.28.367.367,0,0,0-.333-.027c-.147.027-2.385,1.519-6.741,4.463a3,3,0,0,1-1.732.639,11.531,11.531,0,0,1-2.491-.586c-1-.32-1.8-.493-1.732-1.052C45.415,79.008,45.814,78.715,46.56,78.408Z" transform="translate(-39.326 -62.582)" fill="#229ed9" fill-rule="evenodd"/>
  </g>
</svg>
