<svg xmlns="http://www.w3.org/2000/svg" xmlns:xlink="http://www.w3.org/1999/xlink" width="32" height="32" viewBox="0 0 32 32">
  <defs>
    <clipPath id="clip-path">
      <rect id="Прямоугольник_8825" data-name="Прямоугольник 8825" width="32" height="32" fill="#fff" stroke="#707070" stroke-width="1"/>
    </clipPath>
  </defs>
  <g id="WhatsApp_color" data-name="WhatsApp color" clip-path="url(#clip-path)">
    <path id="Контур_57716" data-name="Контур 57716" d="M27.435,4.65A15.935,15.935,0,0,0,.25,15.85,16.382,16.382,0,0,0,2.357,23.8L.1,32l8.476-2.2A16,16,0,0,0,16.2,31.75h0A15.864,15.864,0,0,0,27.435,4.65ZM16.15,29.05h0A13.51,13.51,0,0,1,9.379,27.2l-.5-.3L3.862,28.2l1.354-4.85-.3-.5a13.345,13.345,0,0,1-2.006-7A13.216,13.216,0,1,1,16.15,29.05Zm7.273-9.85c-.4-.2-2.357-1.15-2.759-1.25-.351-.15-.652-.2-.9.2s-1.053,1.25-1.254,1.55a.613.613,0,0,1-.853.1,10.572,10.572,0,0,1-3.21-2,11.711,11.711,0,0,1-2.207-2.75c-.251-.4-.05-.6.2-.8a8.713,8.713,0,0,0,.6-.7,4.563,4.563,0,0,0,.4-.65.694.694,0,0,0-.05-.7c-.1-.2-.9-2.15-1.254-2.95-.3-.8-.652-.65-.9-.65h-.752a1.446,1.446,0,0,0-1.053.5,4.476,4.476,0,0,0-1.4,3.3A7.389,7.389,0,0,0,9.68,16.5c.2.25,2.809,4.3,6.771,6,.953.4,1.705.65,2.257.85a5.511,5.511,0,0,0,2.508.15,4,4,0,0,0,2.708-1.9,4.488,4.488,0,0,0,.251-1.9C24.075,19.45,23.824,19.35,23.423,19.2Z" transform="translate(-0.1)" fill="#00e676"/>
  </g>
</svg>
