<svg xmlns="http://www.w3.org/2000/svg" width="344" height="165" viewBox="0 0 344 165">
  <g transform="translate(-547 -2396)">
    <rect width="344" height="165" transform="translate(547 2396)" fill="#fff" opacity="0"/>
    <g transform="translate(1.643 79.077)">
      <path d="M.36,1.4,4.669-8.46H6.263L10.572,1.4H8.753L7.76-.962H3.13L2.123,1.4Zm3.4-3.889H7.131L5.438-6.4Zm8.3,3.889V-5.984h1.693V-2.99h3.259V-5.984H18.7V1.4H17.007v-2.98H13.747V1.4Zm14.968,0H25.344V.493a2.969,2.969,0,0,1-2.392,1.063A2.9,2.9,0,0,1,21.085.948a2.052,2.052,0,0,1-.762-1.7,2.111,2.111,0,0,1,.825-1.8,3.537,3.537,0,0,1,2.168-.616,6.684,6.684,0,0,1,2.042.308V-3a1.47,1.47,0,0,0-.469-1.175,2,2,0,0,0-1.35-.406,5.478,5.478,0,0,0-2.112.462L20.966-5.48A6.8,6.8,0,0,1,23.778-6.1a3.31,3.31,0,0,1,2.427.811,3.107,3.107,0,0,1,.818,2.308ZM25.386-1.27v-.42a4.638,4.638,0,0,0-1.693-.294,2.175,2.175,0,0,0-1.245.308A.992.992,0,0,0,22-.808a.933.933,0,0,0,.406.8,1.7,1.7,0,0,0,1.021.294,2.208,2.208,0,0,0,1.406-.434A1.359,1.359,0,0,0,25.386-1.27Zm3.6,2.756a6.209,6.209,0,0,1-.993-.1L28.114,0a2.017,2.017,0,0,0,.49.056,1.2,1.2,0,0,0,.483-.084,1.01,1.01,0,0,0,.392-.427,2.966,2.966,0,0,0,.315-.972,16.517,16.517,0,0,0,.182-1.77q.07-1.14.07-2.791h5.582V1.4H33.934V-4.529H31.625A24.252,24.252,0,0,1,31.5-1.843a9.708,9.708,0,0,1-.329,1.749,2.415,2.415,0,0,1-.56,1,1.784,1.784,0,0,1-.72.469A3.139,3.139,0,0,1,28.981,1.486ZM37.753,1.4V-5.984H39.4v4.952q2.322-3.3,3.5-4.952H44.5V1.4H42.859V-3.522L39.347,1.4ZM49.14,1.57A4.812,4.812,0,0,1,45.908.437l.8-1.119A3.491,3.491,0,0,0,49.028.2a1.677,1.677,0,0,0,.993-.287.866.866,0,0,0,.406-.734.767.767,0,0,0-.392-.671,2.041,2.041,0,0,0-1.105-.252h-.909V-2.962h.909a1.514,1.514,0,0,0,.944-.273.837.837,0,0,0,.357-.692.7.7,0,0,0-.343-.609,1.534,1.534,0,0,0-.874-.231,3.085,3.085,0,0,0-2.1.755L46.16-5.075a4.409,4.409,0,0,1,3.008-1.063,3.3,3.3,0,0,1,1.986.56,1.7,1.7,0,0,1,.769,1.427,1.724,1.724,0,0,1-1.161,1.679A1.784,1.784,0,0,1,52.105-.682,1.97,1.97,0,0,1,51.28.92,3.355,3.355,0,0,1,49.14,1.57ZM53.868,1.4V-5.984h1.651v4.952q2.322-3.3,3.5-4.952h1.595V1.4H58.974V-3.522L55.463,1.4ZM62.737,3.64V-5.984H64.43v1.231a2.956,2.956,0,0,1,2.5-1.385A3.275,3.275,0,0,1,69.354-5.1a3.853,3.853,0,0,1,1.021,2.819A3.815,3.815,0,0,1,69.354.514a3.275,3.275,0,0,1-2.42,1.042,3.006,3.006,0,0,1-2.5-1.3V3.64ZM66.542.087a1.967,1.967,0,0,0,1.5-.657A2.452,2.452,0,0,0,68.654-2.3a2.4,2.4,0,0,0-.616-1.707,1.974,1.974,0,0,0-1.5-.657A2.02,2.02,0,0,0,65.024-4a2.4,2.4,0,0,0-.636,1.721,2.357,2.357,0,0,0,.636,1.7A2.03,2.03,0,0,0,66.542.087Zm7.078,3.6a3.614,3.614,0,0,1-1.749-.448l.574-1.259a2.09,2.09,0,0,0,.993.28.937.937,0,0,0,.6-.189,1.74,1.74,0,0,0,.448-.664L71.41-5.984h1.8L75.313-.5,77.23-5.984h1.763l-2.938,7.6a4.078,4.078,0,0,1-.993,1.6A2.134,2.134,0,0,1,73.62,3.682ZM83.832,1.57A3.686,3.686,0,0,1,81.125.493a3.754,3.754,0,0,1-1.084-2.784,3.9,3.9,0,0,1,1.021-2.728A3.351,3.351,0,0,1,83.65-6.138,3.179,3.179,0,0,1,86.259-5a4.334,4.334,0,0,1,.93,2.833,3.078,3.078,0,0,1-.028.476H81.734a2.208,2.208,0,0,0,.713,1.378,2.083,2.083,0,0,0,1.413.5,2.821,2.821,0,0,0,2-.881l.993.881A3.731,3.731,0,0,1,83.832,1.57ZM81.72-2.808h3.791a2.38,2.38,0,0,0-.574-1.4,1.663,1.663,0,0,0-1.3-.546,1.712,1.712,0,0,0-1.287.539A2.41,2.41,0,0,0,81.72-2.808ZM88.9,1.4V-5.984h1.679l2.308,3.427,2.322-3.427h1.679V1.4H95.177V-3.522L92.855-.206,90.547-3.494V1.4Zm10,0V-.514h1.861V1.4Z" transform="translate(577 2446.016)" fill="#0e0e10"/>
      <path d="M1.08,1.392V-8.4H9.068V1.392H7.347v-8.24H2.8v8.24ZM11.39,3.631V-5.994h1.693v1.231a2.956,2.956,0,0,1,2.5-1.385,3.275,3.275,0,0,1,2.42,1.042,3.853,3.853,0,0,1,1.021,2.819A3.815,3.815,0,0,1,18.007.5a3.275,3.275,0,0,1-2.42,1.042,3.006,3.006,0,0,1-2.5-1.3V3.631ZM15.195.077A1.967,1.967,0,0,0,16.7-.58a2.452,2.452,0,0,0,.609-1.735,2.4,2.4,0,0,0-.616-1.707,1.974,1.974,0,0,0-1.5-.657,2.02,2.02,0,0,0-1.518.671,2.4,2.4,0,0,0-.636,1.721,2.357,2.357,0,0,0,.636,1.7A2.03,2.03,0,0,0,15.195.077ZM24.274,1.56a3.8,3.8,0,0,1-2.8-1.119,3.712,3.712,0,0,1-1.119-2.728A3.712,3.712,0,0,1,21.49-5.022,3.83,3.83,0,0,1,24.3-6.148a3.819,3.819,0,0,1,2.8,1.119,3.717,3.717,0,0,1,1.126,2.742A3.7,3.7,0,0,1,27.1.434,3.847,3.847,0,0,1,24.274,1.56ZM24.3.091a2.076,2.076,0,0,0,1.623-.685,2.441,2.441,0,0,0,.616-1.693A2.386,2.386,0,0,0,25.9-3.972a2.121,2.121,0,0,0-1.623-.692,2.06,2.06,0,0,0-1.609.685,2.441,2.441,0,0,0-.616,1.693,2.393,2.393,0,0,0,.643,1.679A2.1,2.1,0,0,0,24.3.091ZM33.339,1.56A3.686,3.686,0,0,1,30.632.483,3.754,3.754,0,0,1,29.548-2.3a3.9,3.9,0,0,1,1.021-2.728,3.351,3.351,0,0,1,2.588-1.119,3.179,3.179,0,0,1,2.609,1.14,4.334,4.334,0,0,1,.93,2.833,3.08,3.08,0,0,1-.028.476H31.24a2.208,2.208,0,0,0,.713,1.378,2.083,2.083,0,0,0,1.413.5,2.821,2.821,0,0,0,2-.881l.993.881A3.731,3.731,0,0,1,33.339,1.56ZM31.226-2.818h3.791a2.38,2.38,0,0,0-.574-1.4,1.663,1.663,0,0,0-1.3-.546,1.712,1.712,0,0,0-1.287.539A2.41,2.41,0,0,0,31.226-2.818ZM38.4,1.392V-5.994h1.679v3.539L43.3-5.994h1.986L42.417-2.888l3.106,4.281h-2l-2.238-3.05-1.2,1.273V1.392Zm9.876,0V-4.539H45.9V-5.994h6.463v1.455H49.986V1.392Zm5.428,0V-5.994h1.651v4.952q2.322-3.3,3.5-4.952h1.595V1.392H58.813V-3.532L55.3,1.392Zm8.869,2.238V-5.994h1.693v1.231a2.956,2.956,0,0,1,2.5-1.385,3.275,3.275,0,0,1,2.42,1.042,3.853,3.853,0,0,1,1.021,2.819A3.815,3.815,0,0,1,69.192.5a3.275,3.275,0,0,1-2.42,1.042,3.006,3.006,0,0,1-2.5-1.3V3.631Zm3.8-3.553a1.967,1.967,0,0,0,1.5-.657,2.452,2.452,0,0,0,.609-1.735,2.4,2.4,0,0,0-.616-1.707,1.974,1.974,0,0,0-1.5-.657,2.02,2.02,0,0,0-1.518.671,2.4,2.4,0,0,0-.636,1.721,2.357,2.357,0,0,0,.636,1.7A2.03,2.03,0,0,0,66.381.077Zm7.078,3.6a3.614,3.614,0,0,1-1.749-.448l.574-1.259a2.09,2.09,0,0,0,.993.28.937.937,0,0,0,.6-.189,1.74,1.74,0,0,0,.448-.664L71.249-5.994h1.8l2.1,5.484,1.916-5.484h1.763L75.893,1.6A4.078,4.078,0,0,1,74.9,3.2,2.134,2.134,0,0,1,73.459,3.673ZM83.671,1.56A3.686,3.686,0,0,1,80.964.483,3.754,3.754,0,0,1,79.88-2.3,3.9,3.9,0,0,1,80.9-5.029a3.351,3.351,0,0,1,2.588-1.119A3.179,3.179,0,0,1,86.1-5.008a4.334,4.334,0,0,1,.93,2.833A3.081,3.081,0,0,1,87-1.7H81.573a2.208,2.208,0,0,0,.713,1.378,2.083,2.083,0,0,0,1.413.5,2.821,2.821,0,0,0,2-.881l.993.881A3.731,3.731,0,0,1,83.671,1.56ZM81.559-2.818H85.35a2.38,2.38,0,0,0-.574-1.4,1.663,1.663,0,0,0-1.3-.546,1.712,1.712,0,0,0-1.287.539A2.41,2.41,0,0,0,81.559-2.818Zm7.176,4.211V-5.994h1.679l2.308,3.427,2.322-3.427h1.679V1.392H95.016V-3.532L92.694-.216,90.386-3.5v4.9Zm10,0V-.524H100.6V1.392Z" transform="translate(684.177 2446.026)" fill="#0e0e10"/>
      <path d="M5.688,1.586A4.763,4.763,0,0,1,2.135.124a4.957,4.957,0,0,1-1.427-3.6,4.964,4.964,0,0,1,1.427-3.6A4.835,4.835,0,0,1,5.758-8.542a5.344,5.344,0,0,1,2.161.392A5.893,5.893,0,0,1,9.591-7.017L8.486-5.744A4.016,4.016,0,0,0,5.744-6.961,3,3,0,0,0,3.429-5.954a3.544,3.544,0,0,0-.916,2.476,3.536,3.536,0,0,0,.923,2.469A2.992,2.992,0,0,0,5.744.005,3.334,3.334,0,0,0,7.227-.309a5.548,5.548,0,0,0,1.329-.958L9.661-.149a5.886,5.886,0,0,1-1.749,1.3A5.2,5.2,0,0,1,5.688,1.586Zm9.093,0a3.8,3.8,0,0,1-2.8-1.119,3.712,3.712,0,0,1-1.119-2.728A3.712,3.712,0,0,1,12-5a3.83,3.83,0,0,1,2.812-1.126A3.819,3.819,0,0,1,17.614-5,3.717,3.717,0,0,1,18.74-2.261,3.7,3.7,0,0,1,17.607.46,3.847,3.847,0,0,1,14.781,1.586ZM14.809.117a2.076,2.076,0,0,0,1.623-.685,2.441,2.441,0,0,0,.616-1.693A2.386,2.386,0,0,0,16.4-3.947a2.121,2.121,0,0,0-1.623-.692,2.06,2.06,0,0,0-1.609.685,2.441,2.441,0,0,0-.616,1.693A2.393,2.393,0,0,0,13.2-.582,2.1,2.1,0,0,0,14.809.117Zm8.17,1.469A4.812,4.812,0,0,1,19.747.453l.8-1.119a3.491,3.491,0,0,0,2.322.881,1.677,1.677,0,0,0,.993-.287.866.866,0,0,0,.406-.734.767.767,0,0,0-.392-.671,2.041,2.041,0,0,0-1.105-.252h-.909V-2.946h.909a1.514,1.514,0,0,0,.944-.273.837.837,0,0,0,.357-.692.7.7,0,0,0-.343-.609,1.534,1.534,0,0,0-.874-.231,3.085,3.085,0,0,0-2.1.755L20-5.059a4.409,4.409,0,0,1,3.008-1.063,3.3,3.3,0,0,1,1.986.56,1.7,1.7,0,0,1,.769,1.427A1.724,1.724,0,0,1,24.6-2.457,1.784,1.784,0,0,1,25.944-.666a1.97,1.97,0,0,1-.825,1.6A3.355,3.355,0,0,1,22.978,1.586Zm3.875,1.609V-.037h.8a11.708,11.708,0,0,0,.825-5.022v-.909H34.2V-.037h1.049l-.224,3.231H33.61V1.418H28.434l-.168,1.777ZM29.385-.037H32.5V-4.513H30.071v.979A8.092,8.092,0,0,1,29.385-.037ZM42.857,1.418H41.178V.509a2.969,2.969,0,0,1-2.392,1.063A2.9,2.9,0,0,1,36.919.964a2.052,2.052,0,0,1-.762-1.7,2.111,2.111,0,0,1,.825-1.8,3.537,3.537,0,0,1,2.168-.616,6.684,6.684,0,0,1,2.042.308v-.14a1.47,1.47,0,0,0-.469-1.175,2,2,0,0,0-1.35-.406,5.478,5.478,0,0,0-2.112.462L36.8-5.464a6.8,6.8,0,0,1,2.812-.616,3.31,3.31,0,0,1,2.427.811,3.107,3.107,0,0,1,.818,2.308ZM41.22-1.254v-.42a4.638,4.638,0,0,0-1.693-.294,2.175,2.175,0,0,0-1.245.308.992.992,0,0,0-.448.867.933.933,0,0,0,.406.8A1.7,1.7,0,0,0,39.262.3a2.208,2.208,0,0,0,1.406-.434A1.359,1.359,0,0,0,41.22-1.254Zm7.33-5.652V-8.556h1.721v1.651Zm-2.784,0V-8.556h1.721v1.651Zm2.49,8.491A3.686,3.686,0,0,1,45.55.509a3.754,3.754,0,0,1-1.084-2.784A3.9,3.9,0,0,1,45.487-5a3.351,3.351,0,0,1,2.588-1.119,3.179,3.179,0,0,1,2.609,1.14,4.334,4.334,0,0,1,.93,2.833,3.079,3.079,0,0,1-.028.476H46.158A2.208,2.208,0,0,0,46.872-.3a2.083,2.083,0,0,0,1.413.5,2.821,2.821,0,0,0,2-.881L51.278.2A3.731,3.731,0,0,1,48.257,1.586ZM46.144-2.793h3.791a2.38,2.38,0,0,0-.574-1.4,1.663,1.663,0,0,0-1.3-.546,1.712,1.712,0,0,0-1.287.539A2.41,2.41,0,0,0,46.144-2.793Zm7.176,4.211V-5.968H55l2.308,3.427L59.63-5.968h1.679V1.418H59.6V-3.506L57.279-.191,54.971-3.478v4.9Zm10,0V-.5h1.861V1.418Z" transform="translate(792.176 2446)" fill="#0e0e10"/>
    </g>
    <g transform="translate(579.002 2428)">
      <g transform="translate(103.801)">
        <rect width="8.054" height="40.23" transform="translate(16.126 16.092)" fill="#0e0e10"/>
        <rect width="8.054" height="40.23" transform="translate(32.215 16.092)" fill="#0e0e10"/>
        <rect width="8.054" height="40.23" transform="translate(48.304 16.092)" fill="#0e0e10"/>
        <path d="M195.6,0H131.17V72.414h72.484V0Zm0,64.368H139.224V8.046H195.6Z" transform="translate(-131.17)" fill="#0e0e10"/>
      </g>
      <path d="M345.586,28.391V20.349H314.379v8.042h.022l-.017,24.145h-.006v8.047h.009v.041h31.2l-.016-8.051-23.158-.028V44.482h15.992V36.441h-15.99v-8.05Z" transform="translate(-65.59 -4.261)" fill="#0e0e10"/>
      <path d="M72.273,60.583H82.522L65.812,38.268,81.982,20.35l-10.841.006L57.757,35.1V20.352H49.7v40.23h8.054V47.194l2.538-2.812Z" transform="translate(-10.373 -4.261)" fill="#0e0e10"/>
      <path d="M116.747,28.324V20.278H100.639v8.046h4.008V52.462h-4.008v8.046h16.108V52.462H112.7V28.324Z" transform="translate(-20.999 -4.246)" fill="#0e0e10"/>
      <path d="M249.046,28.324V20.278H232.938v8.046h4.008V52.462h-4.008v8.046h16.108V52.462H245V28.324Z" transform="translate(-48.6 -4.246)" fill="#0e0e10"/>
      <path d="M287.631,20.349V46.183l-16.108-25.8v-.035H271.5l-.012-.019v.019h-8.021v40.23h8.054V35.266l16.108,25.276v.037h8.054V20.349Z" transform="translate(-54.969 -4.257)" fill="#0e0e10"/>
      <path d="M23.089,32.483h8.16s1.532-8.766-7.823-12.107a24.414,24.414,0,0,0-7.71-1.174,29.921,29.921,0,0,0-7.544.908C-.5,22.8-.142,31.331.142,33.573c.521,4.621,3.161,9.156,16,10.91,5.836.544,6.84,2.975,6.913,3.672.4,2.609-.776,5.628-7.489,5.638-4.763-.213-7.174-2.268-7.39-5.707-4.816,0-6.514-.054-8.127-.059.141.328-2.323,13,15.517,13.309,16.839.385,15.591-11.9,15.756-13.183-.093-1.161-.116-5.56-3.276-8.078-1.954-1.556-4.262-2.846-11.831-3.779-2.584-.421-7.582-.736-8.04-4.269-.122-1.282-.179-5.243,7.544-5.243C19.851,26.784,23.277,29.027,23.089,32.483Z" transform="translate(-0.004 -4.02)" fill="#0e0e10"/>
    </g>
  </g>
</svg>
