<svg xmlns="http://www.w3.org/2000/svg" xmlns:xlink="http://www.w3.org/1999/xlink" width="382.802" height="524.69" viewBox="0 0 382.802 524.69">
  <defs>
    <clipPath id="clip-path">
      <path id="Контур_37417" data-name="Контур 37417" d="M36.211,0V-90.158L208.4-231.307q50.991-42.123,70.2-67.619t19.214-56.534q0-31.777-19.214-49.513t-50.252-17.736a90.321,90.321,0,0,0-52.1,15.889q-23.278,15.888-53.577,53.578L42.862-417.535q40.645-55.425,83.876-81.29t109-25.865q80.551,0,129.325,43.97T413.84-363.588q0,42.123-16.258,75.748a211.646,211.646,0,0,1-42.123,59.12q-25.865,25.5-77.6,65.4L193.618-98.287H419.013V0Z" transform="translate(880 1243)" fill="#33d35e" opacity="0.999"/>
    </clipPath>
  </defs>
  <g id="Группа_масок_301" data-name="Группа масок 301" transform="translate(-916.211 -718.31)" clip-path="url(#clip-path)">
    <g id="Сгруппировать_51742" data-name="Сгруппировать 51742" transform="translate(-5.388 -0.19)">
      <line id="Линия_1118" data-name="Линия 1118" x2="454" transform="translate(886 718.5)" fill="none" stroke="#33d35e" stroke-width="1"/>
      <line id="Линия_1126" data-name="Линия 1126" x2="454" transform="translate(886 878.5)" fill="none" stroke="#33d35e" stroke-width="1"/>
      <line id="Линия_1134" data-name="Линия 1134" x2="454" transform="translate(886 1038.5)" fill="none" stroke="#33d35e" stroke-width="1"/>
      <line id="Линия_1122" data-name="Линия 1122" x2="454" transform="translate(886 798.5)" fill="none" stroke="#33d35e" stroke-width="1"/>
      <line id="Линия_1127" data-name="Линия 1127" x2="454" transform="translate(886 958.5)" fill="none" stroke="#33d35e" stroke-width="1"/>
      <line id="Линия_1135" data-name="Линия 1135" x2="454" transform="translate(886 1118.5)" fill="none" stroke="#33d35e" stroke-width="1"/>
      <line id="Линия_1145" data-name="Линия 1145" x2="454" transform="translate(886 1198.5)" fill="none" stroke="#33d35e" stroke-width="1"/>
      <line id="Линия_1121" data-name="Линия 1121" x2="454" transform="translate(886 758.5)" fill="none" stroke="#33d35e" stroke-width="1"/>
      <line id="Линия_1128" data-name="Линия 1128" x2="454" transform="translate(886 918.5)" fill="none" stroke="#33d35e" stroke-width="1"/>
      <line id="Линия_1136" data-name="Линия 1136" x2="454" transform="translate(886 1078.5)" fill="none" stroke="#33d35e" stroke-width="1"/>
      <line id="Линия_1123" data-name="Линия 1123" x2="454" transform="translate(886 838.5)" fill="none" stroke="#33d35e" stroke-width="1"/>
      <line id="Линия_1129" data-name="Линия 1129" x2="454" transform="translate(886 998.5)" fill="none" stroke="#33d35e" stroke-width="1"/>
      <line id="Линия_1137" data-name="Линия 1137" x2="454" transform="translate(886 1158.5)" fill="none" stroke="#33d35e" stroke-width="1"/>
      <line id="Линия_1143" data-name="Линия 1143" x2="454" transform="translate(886 1238.5)" fill="none" stroke="#33d35e" stroke-width="1"/>
      <line id="Линия_1119" data-name="Линия 1119" x2="454" transform="translate(886 738.5)" fill="none" stroke="#33d35e" stroke-width="1"/>
      <line id="Линия_1130" data-name="Линия 1130" x2="454" transform="translate(886 898.5)" fill="none" stroke="#33d35e" stroke-width="1"/>
      <line id="Линия_1138" data-name="Линия 1138" x2="454" transform="translate(886 1058.5)" fill="none" stroke="#33d35e" stroke-width="1"/>
      <line id="Линия_1124" data-name="Линия 1124" x2="454" transform="translate(886 818.5)" fill="none" stroke="#33d35e" stroke-width="1"/>
      <line id="Линия_1131" data-name="Линия 1131" x2="454" transform="translate(886 978.5)" fill="none" stroke="#33d35e" stroke-width="1"/>
      <line id="Линия_1139" data-name="Линия 1139" x2="454" transform="translate(886 1138.5)" fill="none" stroke="#33d35e" stroke-width="1"/>
      <line id="Линия_1144" data-name="Линия 1144" x2="454" transform="translate(886 1218.5)" fill="none" stroke="#33d35e" stroke-width="1"/>
      <line id="Линия_1120" data-name="Линия 1120" x2="454" transform="translate(886 778.5)" fill="none" stroke="#33d35e" stroke-width="1"/>
      <line id="Линия_1132" data-name="Линия 1132" x2="454" transform="translate(886 938.5)" fill="none" stroke="#33d35e" stroke-width="1"/>
      <line id="Линия_1140" data-name="Линия 1140" x2="454" transform="translate(886 1098.5)" fill="none" stroke="#33d35e" stroke-width="1"/>
      <line id="Линия_1125" data-name="Линия 1125" x2="454" transform="translate(886 858.5)" fill="none" stroke="#33d35e" stroke-width="1"/>
      <line id="Линия_1133" data-name="Линия 1133" x2="454" transform="translate(886 1018.5)" fill="none" stroke="#33d35e" stroke-width="1"/>
      <line id="Линия_1141" data-name="Линия 1141" x2="454" transform="translate(886 1178.5)" fill="none" stroke="#33d35e" stroke-width="1"/>
      <line id="Линия_1142" data-name="Линия 1142" x2="454" transform="translate(886 1258.5)" fill="none" stroke="#33d35e" stroke-width="1"/>
    </g>
  </g>
</svg>
