<svg xmlns="http://www.w3.org/2000/svg" xmlns:xlink="http://www.w3.org/1999/xlink" width="387.975" height="526.168" viewBox="0 0 387.975 526.168">
  <defs>
    <clipPath id="clip-path">
      <path id="Контур_37421" data-name="Контур 37421" d="M229.829,8.868q-126.369,0-201.747-89.419l78.334-74.639q55.425,62.076,124.891,62.076,32.516,0,52.839-17.367t20.322-46.926q0-31.777-26.6-48.774t-74.639-17h-47.3L138.193-295.6,261.606-419.752H58.381V-517.3H407.928v85.724l-130.8,124.891q138.932,23.648,138.932,146.322,0,74.639-50.621,121.935T229.829,8.868Z" transform="translate(885 1243)" fill="#33d35e"/>
    </clipPath>
  </defs>
  <g id="Группа_масок_305" data-name="Группа масок 305" transform="translate(-913.082 -725.7)" clip-path="url(#clip-path)">
    <g id="Сгруппировать_51747" data-name="Сгруппировать 51747" transform="translate(-5.931 8.368)">
      <line id="Линия_1146" data-name="Линия 1146" x2="454" transform="translate(886 718.5)" fill="none" stroke="#33d35e" stroke-width="1"/>
      <line id="Линия_1147" data-name="Линия 1147" x2="454" transform="translate(886 878.5)" fill="none" stroke="#33d35e" stroke-width="1"/>
      <line id="Линия_1148" data-name="Линия 1148" x2="454" transform="translate(886 1038.5)" fill="none" stroke="#33d35e" stroke-width="1"/>
      <line id="Линия_1149" data-name="Линия 1149" x2="454" transform="translate(886 798.5)" fill="none" stroke="#33d35e" stroke-width="1"/>
      <line id="Линия_1150" data-name="Линия 1150" x2="454" transform="translate(886 958.5)" fill="none" stroke="#33d35e" stroke-width="1"/>
      <line id="Линия_1151" data-name="Линия 1151" x2="454" transform="translate(886 1118.5)" fill="none" stroke="#33d35e" stroke-width="1"/>
      <line id="Линия_1152" data-name="Линия 1152" x2="454" transform="translate(886 1198.5)" fill="none" stroke="#33d35e" stroke-width="1"/>
      <line id="Линия_1153" data-name="Линия 1153" x2="454" transform="translate(886 758.5)" fill="none" stroke="#33d35e" stroke-width="1"/>
      <line id="Линия_1154" data-name="Линия 1154" x2="454" transform="translate(886 918.5)" fill="none" stroke="#33d35e" stroke-width="1"/>
      <line id="Линия_1155" data-name="Линия 1155" x2="454" transform="translate(886 1078.5)" fill="none" stroke="#33d35e" stroke-width="1"/>
      <line id="Линия_1156" data-name="Линия 1156" x2="454" transform="translate(886 838.5)" fill="none" stroke="#33d35e" stroke-width="1"/>
      <line id="Линия_1157" data-name="Линия 1157" x2="454" transform="translate(886 998.5)" fill="none" stroke="#33d35e" stroke-width="1"/>
      <line id="Линия_1158" data-name="Линия 1158" x2="454" transform="translate(886 1158.5)" fill="none" stroke="#33d35e" stroke-width="1"/>
      <line id="Линия_1159" data-name="Линия 1159" x2="454" transform="translate(886 1238.5)" fill="none" stroke="#33d35e" stroke-width="1"/>
      <line id="Линия_1160" data-name="Линия 1160" x2="454" transform="translate(886 738.5)" fill="none" stroke="#33d35e" stroke-width="1"/>
      <line id="Линия_1161" data-name="Линия 1161" x2="454" transform="translate(886 898.5)" fill="none" stroke="#33d35e" stroke-width="1"/>
      <line id="Линия_1162" data-name="Линия 1162" x2="454" transform="translate(886 1058.5)" fill="none" stroke="#33d35e" stroke-width="1"/>
      <line id="Линия_1163" data-name="Линия 1163" x2="454" transform="translate(886 818.5)" fill="none" stroke="#33d35e" stroke-width="1"/>
      <line id="Линия_1164" data-name="Линия 1164" x2="454" transform="translate(886 978.5)" fill="none" stroke="#33d35e" stroke-width="1"/>
      <line id="Линия_1165" data-name="Линия 1165" x2="454" transform="translate(886 1138.5)" fill="none" stroke="#33d35e" stroke-width="1"/>
      <line id="Линия_1166" data-name="Линия 1166" x2="454" transform="translate(886 1218.5)" fill="none" stroke="#33d35e" stroke-width="1"/>
      <line id="Линия_1167" data-name="Линия 1167" x2="454" transform="translate(886 778.5)" fill="none" stroke="#33d35e" stroke-width="1"/>
      <line id="Линия_1168" data-name="Линия 1168" x2="454" transform="translate(886 938.5)" fill="none" stroke="#33d35e" stroke-width="1"/>
      <line id="Линия_1169" data-name="Линия 1169" x2="454" transform="translate(886 1098.5)" fill="none" stroke="#33d35e" stroke-width="1"/>
      <line id="Линия_1170" data-name="Линия 1170" x2="454" transform="translate(886 858.5)" fill="none" stroke="#33d35e" stroke-width="1"/>
      <line id="Линия_1171" data-name="Линия 1171" x2="454" transform="translate(886 1018.5)" fill="none" stroke="#33d35e" stroke-width="1"/>
      <line id="Линия_1172" data-name="Линия 1172" x2="454" transform="translate(886 1178.5)" fill="none" stroke="#33d35e" stroke-width="1"/>
      <line id="Линия_1173" data-name="Линия 1173" x2="454" transform="translate(886 1258.5)" fill="none" stroke="#33d35e" stroke-width="1"/>
    </g>
  </g>
</svg>
