<svg xmlns="http://www.w3.org/2000/svg" xmlns:xlink="http://www.w3.org/1999/xlink" width="390.192" height="526.168" viewBox="0 0 390.192 526.168">
  <defs>
    <clipPath id="clip-path">
      <path id="Контур_37420" data-name="Контур 37420" d="M225.4,8.868q-112.328,0-193.618-77.6L100.5-150.756Q162.58-94.592,223.917-94.592q40.645,0,63.554-19.214t22.909-53.947q0-32.516-25.126-51.36t-66.51-18.844q-41.384,0-86.463,19.214l-65.771-43.6L81.29-517.3H399.06v99.765H178.838l-5.912,89.419q35.472-8.868,67.988-8.868,80.551,0,130.8,41.384t50.252,125.63q0,82.029-53.578,130.434T225.4,8.868Z" transform="translate(8793 -14858)" fill="#33d35e"/>
    </clipPath>
  </defs>
  <g id="Группа_масок_304" data-name="Группа масок 304" transform="translate(-8824.777 15375.3)" clip-path="url(#clip-path)">
    <g id="Сгруппировать_51746" data-name="Сгруппировать 51746" transform="translate(7907.069 -16093.8)">
      <line id="Линия_1118" data-name="Линия 1118" x2="454" transform="translate(886 718.5)" fill="none" stroke="#33d35e" stroke-width="1"/>
      <line id="Линия_1126" data-name="Линия 1126" x2="454" transform="translate(886 878.5)" fill="none" stroke="#33d35e" stroke-width="1"/>
      <line id="Линия_1134" data-name="Линия 1134" x2="454" transform="translate(886 1038.5)" fill="none" stroke="#33d35e" stroke-width="1"/>
      <line id="Линия_1122" data-name="Линия 1122" x2="454" transform="translate(886 798.5)" fill="none" stroke="#33d35e" stroke-width="1"/>
      <line id="Линия_1127" data-name="Линия 1127" x2="454" transform="translate(886 958.5)" fill="none" stroke="#33d35e" stroke-width="1"/>
      <line id="Линия_1135" data-name="Линия 1135" x2="454" transform="translate(886 1118.5)" fill="none" stroke="#33d35e" stroke-width="1"/>
      <line id="Линия_1145" data-name="Линия 1145" x2="454" transform="translate(886 1198.5)" fill="none" stroke="#33d35e" stroke-width="1"/>
      <line id="Линия_1121" data-name="Линия 1121" x2="454" transform="translate(886 758.5)" fill="none" stroke="#33d35e" stroke-width="1"/>
      <line id="Линия_1128" data-name="Линия 1128" x2="454" transform="translate(886 918.5)" fill="none" stroke="#33d35e" stroke-width="1"/>
      <line id="Линия_1136" data-name="Линия 1136" x2="454" transform="translate(886 1078.5)" fill="none" stroke="#33d35e" stroke-width="1"/>
      <line id="Линия_1123" data-name="Линия 1123" x2="454" transform="translate(886 838.5)" fill="none" stroke="#33d35e" stroke-width="1"/>
      <line id="Линия_1129" data-name="Линия 1129" x2="454" transform="translate(886 998.5)" fill="none" stroke="#33d35e" stroke-width="1"/>
      <line id="Линия_1137" data-name="Линия 1137" x2="454" transform="translate(886 1158.5)" fill="none" stroke="#33d35e" stroke-width="1"/>
      <line id="Линия_1143" data-name="Линия 1143" x2="454" transform="translate(886 1238.5)" fill="none" stroke="#33d35e" stroke-width="1"/>
      <line id="Линия_1119" data-name="Линия 1119" x2="454" transform="translate(886 738.5)" fill="none" stroke="#33d35e" stroke-width="1"/>
      <line id="Линия_1130" data-name="Линия 1130" x2="454" transform="translate(886 898.5)" fill="none" stroke="#33d35e" stroke-width="1"/>
      <line id="Линия_1138" data-name="Линия 1138" x2="454" transform="translate(886 1058.5)" fill="none" stroke="#33d35e" stroke-width="1"/>
      <line id="Линия_1124" data-name="Линия 1124" x2="454" transform="translate(886 818.5)" fill="none" stroke="#33d35e" stroke-width="1"/>
      <line id="Линия_1131" data-name="Линия 1131" x2="454" transform="translate(886 978.5)" fill="none" stroke="#33d35e" stroke-width="1"/>
      <line id="Линия_1139" data-name="Линия 1139" x2="454" transform="translate(886 1138.5)" fill="none" stroke="#33d35e" stroke-width="1"/>
      <line id="Линия_1144" data-name="Линия 1144" x2="454" transform="translate(886 1218.5)" fill="none" stroke="#33d35e" stroke-width="1"/>
      <line id="Линия_1120" data-name="Линия 1120" x2="454" transform="translate(886 778.5)" fill="none" stroke="#33d35e" stroke-width="1"/>
      <line id="Линия_1132" data-name="Линия 1132" x2="454" transform="translate(886 938.5)" fill="none" stroke="#33d35e" stroke-width="1"/>
      <line id="Линия_1140" data-name="Линия 1140" x2="454" transform="translate(886 1098.5)" fill="none" stroke="#33d35e" stroke-width="1"/>
      <line id="Линия_1125" data-name="Линия 1125" x2="454" transform="translate(886 858.5)" fill="none" stroke="#33d35e" stroke-width="1"/>
      <line id="Линия_1133" data-name="Линия 1133" x2="454" transform="translate(886 1018.5)" fill="none" stroke="#33d35e" stroke-width="1"/>
      <line id="Линия_1141" data-name="Линия 1141" x2="454" transform="translate(886 1178.5)" fill="none" stroke="#33d35e" stroke-width="1"/>
      <line id="Линия_1142" data-name="Линия 1142" x2="454" transform="translate(886 1258.5)" fill="none" stroke="#33d35e" stroke-width="1"/>
    </g>
  </g>
</svg>
