<svg xmlns="http://www.w3.org/2000/svg" width="63.963" height="24" viewBox="0 0 63.963 24">
  <g id="Layer_x0020_1" transform="translate(-397.54 -185.737)">
    <path id="Контур_63126" data-name="Контур 63126" d="M406.836,185.737l7.867,20.22v-9.673h2.508l-2.508-3.962v-4.475h7.585a10.242,10.242,0,0,1,3.707.808,6.579,6.579,0,0,1,2.651,2.014,6.312,6.312,0,0,1,1.227,3.924,6.172,6.172,0,0,1-1.72,4.516,6.771,6.771,0,0,1-2.249,1.471l4.14,6.624V187.845h4.261a15.636,15.636,0,0,1,8.162,1.809c2.962,1.783,4.464,4.857,4.464,9.137q0,.24-.007.475l5.24-13.529,9.338,24h-5.47l-.913-2.338h-5.888l-.84,2.338h-5.522l1.229-3.173a9.2,9.2,0,0,1-1.578,1.234,15.439,15.439,0,0,1-8.214,1.939h-8.661l-5.26-8.4h-.593v8.4h-9.134l-.877-2.338h-5.888l-.877,2.338H397.54Zm21.673,22.271-5.277-8.443,1.141-.3a4.556,4.556,0,0,0,3.772-4.679,4.638,4.638,0,0,0-.858-2.856,4.842,4.842,0,0,0-1.941-1.479,8.586,8.586,0,0,0-3.059-.682h-5.855v2.245l3.92,6.192h-3.92v10h1.632v-8.4h3.279l5.26,8.4Zm5.8,0a13.781,13.781,0,0,0,7.3-1.677,7.087,7.087,0,0,0,2.563-2.731,10.253,10.253,0,0,0,1.034-4.809,10.562,10.562,0,0,0-1.049-4.947,6.874,6.874,0,0,0-2.577-2.709,14.016,14.016,0,0,0-7.27-1.561h-2.532v18.434Zm24.67,0-6.807-17.494-6.776,17.494h1.783l.84-2.338H456.3l.913,2.338Zm-45.329,0-6.807-17.494-6.776,17.494h1.755l.877-2.338h8.284l.877,2.338Zm21.878-16.949a9.273,9.273,0,0,1,4.907,1.27,6.257,6.257,0,0,1,2.214,2.4,8.678,8.678,0,0,1,.889,4.061,8.494,8.494,0,0,1-.921,4.079,6.309,6.309,0,0,1-2.273,2.392,10.478,10.478,0,0,1-6.155,1.179l-.745-.1V191.255l.734-.112A9.772,9.772,0,0,1,435.525,191.059Zm-.122,13.722a8.007,8.007,0,0,0,4.031-.99c1.574-.969,2.372-2.651,2.372-5s-.774-4.033-2.3-5a7.565,7.565,0,0,0-3.979-1c-.127,0-.246,0-.355.006v11.984Zm-17.374-13.575h4.26a6.17,6.17,0,0,1,1.984.37,3.123,3.123,0,0,1,2.241,3.015,3.011,3.011,0,0,1-1.559,2.718,5.527,5.527,0,0,1-2.121.661l-.549.069Zm5.126,4.956c1.63-.363,1.63-1.258,1.63-1.571,0-.413-.113-1.006-1.086-1.383a4.536,4.536,0,0,0-1.413-.273h-1.143Zm-16.316-2.15,3.665,10.5h-7.329Zm1.23,8.772-1.23-3.525-1.23,3.525Zm44.1-8.772,3.664,10.5H448.5Zm1.23,8.772-1.23-3.525-1.23,3.525Z" transform="translate(0 0)" fill="#55555c"/>
  </g>
</svg>
