<svg id="Компонент_97_114" data-name="Компонент 97 – 114" xmlns="http://www.w3.org/2000/svg" xmlns:xlink="http://www.w3.org/1999/xlink" width="30" height="30" viewBox="0 0 30 30">
  <defs>
    <clipPath id="clip-path">
      <rect id="Прямоугольник_7160" data-name="Прямоугольник 7160" width="20" height="20" fill="none" stroke="#55555c" stroke-width="1.5"/>
    </clipPath>
  </defs>
  <g id="Контур_53064" data-name="Контур 53064" fill="#323238">
    <path d="M 15 29.25 C 11.19369029998779 29.25 7.615200042724609 27.76774024963379 4.92372989654541 25.07626914978027 C 2.23225998878479 22.38479995727539 0.75 18.80631065368652 0.75 15 C 0.75 11.19369029998779 2.23225998878479 7.615200042724609 4.92372989654541 4.92372989654541 C 7.615200042724609 2.23225998878479 11.19369029998779 0.75 15 0.75 C 18.80631065368652 0.75 22.38479995727539 2.23225998878479 25.07626914978027 4.92372989654541 C 27.76774024963379 7.615200042724609 29.25 11.19369029998779 29.25 15 C 29.25 18.80631065368652 27.76774024963379 22.38479995727539 25.07626914978027 25.07626914978027 C 22.38479995727539 27.76774024963379 18.80631065368652 29.25 15 29.25 Z" stroke="none"/>
    <path d="M 15 1.5 C 11.39402008056641 1.5 8.003870010375977 2.90424919128418 5.454059600830078 5.454059600830078 C 2.90424919128418 8.003870010375977 1.5 11.39402008056641 1.5 15 C 1.5 18.60597991943359 2.90424919128418 21.99612998962402 5.454059600830078 24.54594039916992 C 8.003870010375977 27.09575080871582 11.39402008056641 28.5 15 28.5 C 18.60597991943359 28.5 21.99612998962402 27.09575080871582 24.54594039916992 24.54594039916992 C 27.09575080871582 21.99612998962402 28.5 18.60597991943359 28.5 15 C 28.5 11.39402008056641 27.09575080871582 8.003870010375977 24.54594039916992 5.454059600830078 C 21.99612998962402 2.90424919128418 18.60597991943359 1.5 15 1.5 M 15 0 C 23.28426933288574 0 30 6.715730667114258 30 15 C 30 23.28426933288574 23.28426933288574 30 15 30 C 6.715730667114258 30 0 23.28426933288574 0 15 C 0 6.715730667114258 6.715730667114258 0 15 0 Z" stroke="none" fill="#55555c"/>
  </g>
  <g id="Сгруппировать_54912" data-name="Сгруппировать 54912" transform="translate(5 5)" clip-path="url(#clip-path)">
    <g id="Сгруппировать_54911" data-name="Сгруппировать 54911" transform="translate(2.147 1.005)">
      <path id="Контур_53054" data-name="Контур 53054" d="M2.212,14H1.656a.621.621,0,0,0-.647.7l.437,2.408a.643.643,0,0,0,.647.5h.155v.116s.042.288.07.43l.067.338A7.005,7.005,0,0,0,4.3,22.055a7.978,7.978,0,0,0,3.557,2.057h0a3.371,3.371,0,0,0,1.783,0A7.978,7.978,0,0,0,13.2,22.055a7,7,0,0,0,1.917-3.56l.067-.338c.028-.144.068-.436.068-.436v-.111h.157a.643.643,0,0,0,.647-.5L16.5,14.7a.62.62,0,0,0-.647-.7h-.557" transform="translate(-1 -6.174)" fill="none" stroke="#55555c" stroke-miterlimit="10" stroke-width="1.5"/>
      <path id="Контур_53055" data-name="Контур 53055" d="M14.411,8.407A2.523,2.523,0,0,0,11.787,6H9.82" transform="translate(-4.035 -2.991)" fill="none" stroke="#55555c" stroke-miterlimit="10" stroke-width="1.5"/>
      <path id="Контур_53056" data-name="Контур 53056" d="M16.193,8.824h-.557l.009-3.6A4.415,4.415,0,0,0,11.053,1H8.437A1.89,1.89,0,0,0,6.473,2.805V2.8a1.255,1.255,0,0,0-1.3-1.2H4.509a1.892,1.892,0,0,0-1.968,1.81l.014,5.413H2" transform="translate(-1.344 -1)" fill="none" stroke="#55555c" stroke-miterlimit="10" stroke-width="1.5"/>
    </g>
  </g>
</svg>
