<svg id="horizontal" xmlns="http://www.w3.org/2000/svg" width="123.935" height="24" viewBox="0 0 123.935 24">
  <path id="fonem" d="M213,542.736h1.669v8.4h2.822V540.226H213Zm6.4,2.946a5.4,5.4,0,0,0,5.581,5.77,5.026,5.026,0,0,0,2.948-.811v-3.105a3.66,3.66,0,0,1-2.589,1.187,2.734,2.734,0,0,1-2.791-2.948,2.853,2.853,0,0,1,2.791-3.134,3.419,3.419,0,0,1,2.589,1.311v-3.166a5.546,5.546,0,0,0-8.529,4.9Zm21.766-1.2h-1.606v-1.638h5v-2.618H236.5v10.914h4.663c.794,0,4.287.03,4.287-3.383C245.454,544.467,241.993,544.482,241.167,544.482Zm-.3,4.474h-1.309v-2.291h1.309c.967,0,1.529.281,1.529,1.139S241.822,548.956,240.87,548.956Zm9.1-2.181v-6.549h-2.946v10.914h2.994l4.224-6.549v6.549h2.948V540.226H254.2Zm8.468-3.93h2.4v8.3H263.9v-8.3h2.4v-2.618h-7.857Zm13.7-2.618h-4.6v10.914H270.6v-3.6h1.541c3.088,0,3.977-2.149,3.977-3.662C276.123,542.377,275.249,540.226,272.146,540.226Zm-.669,4.911H270.6v-2.509h.872c1.31,0,1.5.7,1.5,1.247C272.972,544.342,272.832,545.137,271.476,545.137Zm8.855,1.638v-6.549h-2.947v10.914h2.994l4.226-6.549v6.549h2.946V540.226h-2.994Zm18.956-6.549H295.7l-3.291,4.584v-4.584h-3.056v10.914h3.055v-4.694l3.164,4.694H299.4l-4.258-5.629Zm5.6,2.416a3.414,3.414,0,0,1,2.59,1.311v-3.166a5.707,5.707,0,1,0-2.947,10.665,5.026,5.026,0,0,0,2.947-.811v-3.105a3.652,3.652,0,0,1-2.59,1.187,2.735,2.735,0,0,1-2.79-2.948A2.852,2.852,0,0,1,304.89,542.643Zm-72.7,1.311a1.786,1.786,0,1,0,1.786,1.785A1.787,1.787,0,0,0,232.19,543.953Z" transform="translate(-183.545 -532.584)" fill="#55555c"/>
  <path id="graph" d="M143.28,519.578a12.006,12.006,0,0,0-2.6.286v11.722a2.607,2.607,0,1,0,2.781-2.6V526.9a4.693,4.693,0,1,1-4.867,4.689V520.528c-.3.126-.586.265-.869.415v10.643a5.563,5.563,0,1,0,5.737-5.56V523.94a7.648,7.648,0,1,1-7.823,7.646v-9.26a12,12,0,1,0,7.643-2.749Z" transform="translate(-131.281 -519.578)" fill="#e80016"/>
</svg>
