<svg xmlns="http://www.w3.org/2000/svg" width="20.594" height="22.75" viewBox="0 0 20.594 22.75">
  <path id="Контур_57715" data-name="Контур 57715" d="M13.625-3.031H8.656V0H3.969V-3.031H.8v-3.8H3.969V-8.016H.8v-3.8H3.969V-22.75h8.844a10.364,10.364,0,0,1,4.5.922A7,7,0,0,1,20.32-19.2a7.2,7.2,0,0,1,1.07,3.9A6.637,6.637,0,0,1,19.1-9.969a9.508,9.508,0,0,1-6.367,1.953H8.656v1.188h4.969ZM8.656-11.812H12.7q3.938,0,3.938-3.453a3.6,3.6,0,0,0-1-2.648,3.771,3.771,0,0,0-2.766-1.023H8.656Z" transform="translate(-0.797 22.75)" fill="#0e0e10"/>
</svg>
