<svg xmlns="http://www.w3.org/2000/svg" width="115.998" height="30" viewBox="0 0 115.998 30">
  <g transform="translate(-405.502 -222)">
    <g transform="translate(448.505 222)">
      <rect width="3.337" height="16.667" transform="translate(6.681 6.667)" fill="#f7f8fc"/>
      <rect width="3.337" height="16.667" transform="translate(13.346 6.667)" fill="#f7f8fc"/>
      <rect width="3.337" height="16.667" transform="translate(20.012 6.667)" fill="#f7f8fc"/>
      <path d="M157.862,0H131.17V30H161.2V0Zm0,26.667H134.507V3.333h23.356Z" transform="translate(-131.17)" fill="#f7f8fc"/>
    </g>
    <path d="M327.307,23.681V20.349H314.378v3.332h.009l-.007,10h0v3.334h0v.017h12.926L327.3,33.7l-9.594-.012v-3.34h6.625V27.016h-6.624V23.681Z" transform="translate(194.192 208.316)" fill="#f7f8fc"/>
    <path d="M59.052,37.018H63.3l-6.923-9.245,6.7-7.423-4.491,0-5.545,6.108v-6.11H49.7V37.017h3.337V31.471l1.051-1.165Z" transform="translate(372.094 208.315)" fill="#f7f8fc"/>
    <path d="M107.312,23.611V20.278h-6.673v3.333h1.66v10h-1.66v3.333h6.673V33.611h-1.677v-10Z" transform="translate(337.856 208.364)" fill="#f7f8fc"/>
    <path d="M239.611,23.611V20.278h-6.673v3.333h1.66v10h-1.66v3.333h6.673V33.611h-1.676v-10Z" transform="translate(248.932 208.364)" fill="#f7f8fc"/>
    <path d="M273.478,20.337v10.7L266.8,20.351v-.014h-.01l0-.008v.008h-3.323V37H266.8V26.517l6.673,10.471V37h3.337V20.337Z" transform="translate(228.412 208.329)" fill="#f7f8fc"/>
    <path d="M9.568,24.7h3.381a4.585,4.585,0,0,0-3.241-5.016A10.114,10.114,0,0,0,6.513,19.2a12.4,12.4,0,0,0-3.125.376C-.2,20.692-.056,24.226.061,25.155c.216,1.914,1.31,3.793,6.629,4.52,2.418.225,2.834,1.232,2.864,1.521.166,1.081-.321,2.332-3.1,2.336-1.973-.088-2.972-.94-3.062-2.364-2,0-2.7-.022-3.367-.024.058.136-.962,5.386,6.428,5.514,6.976.159,6.459-4.93,6.527-5.462a4.5,4.5,0,0,0-1.357-3.347c-.81-.645-1.766-1.179-4.9-1.566-1.071-.174-3.141-.3-3.331-1.769-.051-.531-.074-2.172,3.125-2.172C8.226,22.342,9.646,23.272,9.568,24.7Z" transform="translate(405.498 209.088)" fill="#f7f8fc"/>
  </g>
</svg>
