<svg xmlns="http://www.w3.org/2000/svg" width="39.453" height="30" viewBox="0 0 39.453 30">
  <path  d="M-2699.278-7844.184h15.432s-1.037-8.16,0-14.417a27.805,27.805,0,0,1,4.147-10.609l-9.385-4.975a35.332,35.332,0,0,0-8.528,12.974C-2700.16-7853.71-2699.278-7844.184-2699.278-7844.184Z" transform="translate(2699.426 7874.184)" fill="#33d35e"/>
  <path  d="M-2699.278-7844.184h15.432s-1.037-8.16,0-14.417a27.805,27.805,0,0,1,4.147-10.609l-9.385-4.975a35.332,35.332,0,0,0-8.528,12.974C-2700.16-7853.71-2699.278-7844.184-2699.278-7844.184Z" transform="translate(2719.152 7874.184)" fill="#33d35e"/>
</svg>
