<svg xmlns="http://www.w3.org/2000/svg" width="91.058" height="30" viewBox="0 0 91.058 30">
  <g id="Group_31344" data-name="Group 31344" transform="translate(-390.439 -237.874)">
    <path id="Path_18" data-name="Path 18" d="M452.94,267.97a1.095,1.095,0,0,1,0-2.189h6.807a1.095,1.095,0,0,1,0,2.189Z" transform="translate(-18.084 -8.217)" fill="#4ba1a5"/>
    <path id="Path_19" data-name="Path 19" d="M478.4,266.186a2.029,2.029,0,0,1-1.441.606h-1.672v-4.119h1.672a2.028,2.028,0,0,1,1.441.605,2.062,2.062,0,0,1,0,2.908m-5.279.606h-1.673a2.026,2.026,0,0,1-1.44-.606,2.06,2.06,0,0,1,0-2.908,2.026,2.026,0,0,1,1.44-.605h1.673Zm6.809-5.059a4.175,4.175,0,0,0-2.971-1.246h-1.672v-.892a1.083,1.083,0,1,0-2.166,0v.892h-1.673a4.173,4.173,0,0,0-2.97,1.246,4.258,4.258,0,0,0,0,6,4.171,4.171,0,0,0,2.97,1.246h1.673v.892a1.083,1.083,0,1,0,2.166,0v-.892h1.672a4.172,4.172,0,0,0,2.971-1.246,4.259,4.259,0,0,0,0-6" transform="translate(-22.614 -6.074)" fill="#4ba1a5"/>
    <path id="Path_20" data-name="Path 20" d="M510.6,268.061h-4.769a4.871,4.871,0,0,0,.545-2.206v-3.969H510.6Zm2.584,0h-.419v-7.267h0v-.028h0v-.028h0l0-.028,0-.027,0-.028,0-.028,0-.027,0-.026h0l-.006-.027-.006-.026a1.084,1.084,0,0,0-1.048-.82H505.3a1.071,1.071,0,0,0-.539.145l-.022.013h0l-.021.014h0l-.021.013h0l-.021.015-.021.016h0l-.02.016h0l-.02.016h0l-.019.017-.02.018-.019.018-.018.018h0l-.017.019h0l-.017.019a1.09,1.09,0,0,0-.282.735v5.062a2.731,2.731,0,0,1-.393,1.372,2.578,2.578,0,0,1-.78.855,1.11,1.11,0,0,0-.218-.022,1.088,1.088,0,0,0-1.082,1.094v2.107a1.083,1.083,0,1,0,2.165,0v-1.015h8.2v1.015a1.082,1.082,0,1,0,2.165,0v-2.107a1.088,1.088,0,0,0-1.082-1.094" transform="translate(-32.772 -6.426)" fill="#4ba1a5"/>
    <path id="Path_21" data-name="Path 21" d="M490.784,267.97a1.095,1.095,0,0,1,0-2.189h6.807a1.095,1.095,0,0,1,0,2.189Z" transform="translate(-29.227 -8.217)" fill="#4ba1a5"/>
    <path id="Path_22" data-name="Path 22" d="M441.708,267.379a3.259,3.259,0,0,1-4.64,0,3.333,3.333,0,0,1,0-4.683,3.261,3.261,0,0,1,4.64,0,3.336,3.336,0,0,1,0,4.683m1.53-6.228a5.409,5.409,0,0,0-7.7,0,5.532,5.532,0,0,0,0,7.773,5.408,5.408,0,0,0,7.7,0,5.532,5.532,0,0,0,0-7.773" transform="translate(-12.809 -6.38)" fill="#4ba1a5"/>
    <path id="Path_23" data-name="Path 23" d="M390.439,254.284,415.366,268.5V240.012Z" transform="translate(0 -0.629)" fill="#4ba1a5"/>
    <g id="Group_58644" data-name="Group 58644">
      <path id="Path_17" data-name="Path 17" d="M476.663,250.328l-.091.018v-1.773l.091.018a.876.876,0,0,1,0,1.737m-1.271.018-.091-.018a.876.876,0,0,1,0-1.737l.091-.018Zm2.723-2.229a2.822,2.822,0,0,0-1.466-.615v-.538a.191.191,0,0,0-.058-.138.187.187,0,0,0-.138-.058h-.944a.185.185,0,0,0-.136.058.188.188,0,0,0-.058.138v.538a2.825,2.825,0,0,0-1.467.615,1.874,1.874,0,0,0,0,2.684,2.825,2.825,0,0,0,1.467.615v.538a.188.188,0,0,0,.058.138.183.183,0,0,0,.136.059h.944a.185.185,0,0,0,.138-.059.191.191,0,0,0,.058-.138v-.538a2.823,2.823,0,0,0,1.466-.615,1.874,1.874,0,0,0,0-2.684" transform="translate(-24.393 -2.619)" fill="#f7f8fc"/>
      <path id="Path_24" data-name="Path 24" d="M512.6,250.552l.556-1.663.556,1.663Zm2.917,1.565-1.5-4.363a.4.4,0,0,0-.109-.164.3.3,0,0,0-.2-.065H512.6a.3.3,0,0,0-.2.065.385.385,0,0,0-.109.164l-1.5,4.363a.319.319,0,0,0-.028.1.147.147,0,0,0,.045.107.145.145,0,0,0,.107.044h.864a.282.282,0,0,0,.181-.052.244.244,0,0,0,.087-.121l.191-.574h1.825l.193.574a.242.242,0,0,0,.085.121.287.287,0,0,0,.183.052h.864a.142.142,0,0,0,.106-.044.147.147,0,0,0,.045-.107.319.319,0,0,0-.028-.1" transform="translate(-35.43 -2.842)" fill="#f7f8fc"/>
      <path id="Path_25" data-name="Path 25" d="M502.54,249.894v2.292a.189.189,0,0,1-.186.187h-.9a.188.188,0,0,1-.186-.187v-4.474a.188.188,0,0,1,.186-.188h.8a.323.323,0,0,1,.3.188l1.111,1.918,1.111-1.918a.324.324,0,0,1,.3-.188h.8a.189.189,0,0,1,.186.188v4.474a.178.178,0,0,1-.055.131.176.176,0,0,1-.13.056h-.9a.174.174,0,0,1-.13-.056.178.178,0,0,1-.055-.131v-2.292l-.646,1.142a.5.5,0,0,1-.106.126.223.223,0,0,1-.148.049h-.439a.222.222,0,0,1-.147-.049.5.5,0,0,1-.107-.126Z" transform="translate(-32.634 -2.842)" fill="#f7f8fc"/>
      <path id="Path_26" data-name="Path 26" d="M495.415,249.557a.792.792,0,0,1-.484.135h-.844V248.6h.844a.8.8,0,0,1,.484.135.557.557,0,0,1,0,.824m.947-1.62a2.148,2.148,0,0,0-1.4-.412H493a.187.187,0,0,0-.185.187v4.474a.18.18,0,0,0,.054.132.176.176,0,0,0,.131.055h.9a.172.172,0,0,0,.13-.055.179.179,0,0,0,.056-.132v-1.413h.878a2.133,2.133,0,0,0,1.4-.416,1.7,1.7,0,0,0,0-2.421" transform="translate(-30.145 -2.842)" fill="#f7f8fc"/>
      <path id="Path_27" data-name="Path 27" d="M486.553,250.5a.922.922,0,0,1-.251.585.994.994,0,0,1-1.242,0,.925.925,0,0,1-.25-.585q-.02-.25-.02-.589t.02-.575a.926.926,0,0,1,.25-.585.994.994,0,0,1,1.242,0,.923.923,0,0,1,.251.585q.02.229.02.575t-.02.589m1.269-1.2a2.014,2.014,0,0,0-.285-.953,1.818,1.818,0,0,0-.731-.676,2.667,2.667,0,0,0-2.251,0,1.822,1.822,0,0,0-.731.676,2.015,2.015,0,0,0-.285.953q-.014.387-.013.623c0,.157,0,.36.013.61a2.02,2.02,0,0,0,.285.953,1.814,1.814,0,0,0,.731.674,2.66,2.66,0,0,0,2.251,0,1.81,1.81,0,0,0,.731-.674,2.019,2.019,0,0,0,.285-.953c.009-.125.013-.328.013-.61s0-.494-.013-.623" transform="translate(-27.409 -2.813)" fill="#f7f8fc"/>
      <path id="Path_28" data-name="Path 28" d="M468.825,247.525a.177.177,0,0,1,.13.055.182.182,0,0,1,.055.132v.734a.18.18,0,0,1-.055.132.175.175,0,0,1-.13.056h-1.208v3.553a.177.177,0,0,1-.055.131.174.174,0,0,1-.13.056h-.9a.174.174,0,0,1-.13-.056.179.179,0,0,1-.055-.131v-3.553H465.14a.174.174,0,0,1-.13-.056.179.179,0,0,1-.055-.132v-.734a.182.182,0,0,1,.055-.132.176.176,0,0,1,.13-.055Z" transform="translate(-21.94 -2.842)" fill="#f7f8fc"/>
      <path id="Path_29" data-name="Path 29" d="M457.944,250.552l.556-1.663.556,1.663Zm2.917,1.565-1.5-4.363a.385.385,0,0,0-.11-.164.3.3,0,0,0-.2-.065h-1.112a.3.3,0,0,0-.2.065.384.384,0,0,0-.109.164l-1.5,4.363a.313.313,0,0,0-.027.1.152.152,0,0,0,.151.152h.864a.285.285,0,0,0,.182-.052.247.247,0,0,0,.086-.121l.192-.574h1.825l.192.574a.243.243,0,0,0,.086.121.283.283,0,0,0,.181.052h.865a.146.146,0,0,0,.107-.044.149.149,0,0,0,.044-.107.319.319,0,0,0-.028-.1" transform="translate(-19.337 -2.842)" fill="#f7f8fc"/>
      <path id="Path_30" data-name="Path 30" d="M448.405,250.711a1.707,1.707,0,0,1-.464,1.278,1.739,1.739,0,0,1-1.273.454h-.11a.176.176,0,0,1-.13-.056.18.18,0,0,1-.055-.131v-.734a.179.179,0,0,1,.055-.131.175.175,0,0,1,.13-.056.581.581,0,0,0,.443-.145.7.7,0,0,0,.134-.478v-3a.181.181,0,0,1,.054-.132.179.179,0,0,1,.13-.055h3.452a.179.179,0,0,1,.13.055.182.182,0,0,1,.055.132v4.475a.18.18,0,0,1-.055.131.176.176,0,0,1-.13.055h-.9a.176.176,0,0,1-.131-.055.18.18,0,0,1-.054-.131v-3.553h-1.283Z" transform="translate(-16.47 -2.842)" fill="#f7f8fc"/>
      <path id="Path_31" data-name="Path 31" d="M441.331,252.187a.179.179,0,0,1-.055.131.176.176,0,0,1-.131.056h-.9a.188.188,0,0,1-.185-.187v-3.553H438.4v3.553a.179.179,0,0,1-.055.131.176.176,0,0,1-.131.056h-.9a.176.176,0,0,1-.13-.056.182.182,0,0,1-.055-.131v-4.475a.182.182,0,0,1,.055-.131.175.175,0,0,1,.13-.056h3.829a.176.176,0,0,1,.131.056.179.179,0,0,1,.055.131Z" transform="translate(-13.748 -2.842)" fill="#f7f8fc"/>
    </g>
    <path id="Path_32" data-name="Path 32" d="M408.9,256.1l16.006-9.113L408.9,237.874Z" transform="translate(-5.436)" fill="#f7f8fc"/>
  </g>
</svg>
