<svg xmlns="http://www.w3.org/2000/svg" width="157.911" height="30" viewBox="0 0 157.911 30">
  <g id="Group_58653" data-name="Group 58653" transform="translate(-12274 2212.288)">
    <path id="Path_12268" data-name="Path 12268" d="M507.314,459.3h-.006a13.155,13.155,0,0,0-8.121,2.59,8.252,8.252,0,0,0-3.225,6.8,6.964,6.964,0,0,0,2.956,6.063,15.81,15.81,0,0,0,7.417,2.513l1.876.2c.718.08,1.283.161,1.681.24a10.054,10.054,0,0,1,1.353.393,1.955,1.955,0,0,1,.962.638,1.714,1.714,0,0,1,.277,1.007c0,.513,0,2.077-4.11,2.151h-.2a12.049,12.049,0,0,1-7.086-2.521,1.711,1.711,0,0,0-2,.327c-.637.6-1.976,1.824-2.862,2.632l-.266.242a.93.93,0,0,0-.295.678,1.216,1.216,0,0,0,.291.838,17.587,17.587,0,0,0,4.871,3.477,16.448,16.448,0,0,0,7.349,1.61h.21a13.988,13.988,0,0,0,8.485-2.587,8.217,8.217,0,0,0,3.309-6.847,9.4,9.4,0,0,0-.853-4.1,7.16,7.16,0,0,0-2.455-2.862,13.693,13.693,0,0,0-3.419-1.658,20.71,20.71,0,0,0-4.225-.852l-1.82-.161c-.618-.081-1.095-.149-1.415-.2a11.894,11.894,0,0,1-1.185-.277,1.858,1.858,0,0,1-.9-.479.957.957,0,0,1-.251-.667c0-.471,0-1.907,3.661-1.907h.286a10.288,10.288,0,0,1,3.08.672c.5.174.988.383,1.456.585.258.111.513.221.766.324,1.129.455,1.881.488,2.435.1a.288.288,0,0,0,.041-.032l3.339-3.068a.989.989,0,0,0,.353-.766,1.048,1.048,0,0,0-.465-.789c-3.744-2.9-7.343-4.312-11.005-4.312Z" transform="translate(11778.34 -2671.583)" fill="#f7f8fc"/>
    <path id="Path_12269" data-name="Path 12269" d="M599.965,479.69a7.218,7.218,0,0,1-2.131-5.453,7.3,7.3,0,0,1,2.134-5.455,7.976,7.976,0,0,1,10.728,0,8.012,8.012,0,0,1,.022,10.907,8.121,8.121,0,0,1-10.753,0m-5.193-16.02a14.932,14.932,0,1,0,10.549-4.375,14.5,14.5,0,0,0-10.549,4.375" transform="translate(11752.199 -2671.583)" fill="#f7f8fc"/>
    <path id="Path_12270" data-name="Path 12270" d="M567.567,459.3a1.578,1.578,0,0,0-1.322.98l-5.278,14.158c-.005.011-.008.022-.013.03l-5.346-14.244a1.392,1.392,0,0,0-1.4-.925h-1.985a1.391,1.391,0,0,0-1.4.925l-5.346,14.244c0-.009-.009-.02-.013-.03L540.2,460.275a1.583,1.583,0,0,0-1.322-.98h-6.006a1.056,1.056,0,0,0-.927.443.971.971,0,0,0-.115.857l11.1,27.271a1.053,1.053,0,0,0,.94.742h3.319a1.154,1.154,0,0,0,1.007-.731l5.026-12.509,5.025,12.509a1.142,1.142,0,0,0,1.009.731h3.318a1.054,1.054,0,0,0,.94-.741l11.1-27.272a.969.969,0,0,0-.117-.858,1.055,1.055,0,0,0-.925-.442Z" transform="translate(11768.378 -2671.583)" fill="#f7f8fc"/>
    <path id="Path_12271" data-name="Path 12271" d="M691.526,459.3h-.007a13.161,13.161,0,0,0-8.121,2.59,8.254,8.254,0,0,0-3.224,6.8,6.962,6.962,0,0,0,2.956,6.062,15.808,15.808,0,0,0,7.417,2.513l1.876.2c.722.08,1.287.161,1.681.24a9.775,9.775,0,0,1,1.353.392,1.962,1.962,0,0,1,.962.638,1.714,1.714,0,0,1,.277,1.007c0,.513,0,2.077-4.109,2.152h-.2a12.043,12.043,0,0,1-7.086-2.521,1.712,1.712,0,0,0-2,.328c-.626.593-1.945,1.8-2.817,2.59l-.311.283a.931.931,0,0,0-.295.678,1.215,1.215,0,0,0,.291.838,17.581,17.581,0,0,0,4.871,3.477,16.449,16.449,0,0,0,7.349,1.611h.21a14,14,0,0,0,8.485-2.587,8.219,8.219,0,0,0,3.309-6.848,9.391,9.391,0,0,0-.854-4.1,7.151,7.151,0,0,0-2.454-2.862,13.691,13.691,0,0,0-3.419-1.658,20.688,20.688,0,0,0-4.224-.853l-1.82-.161c-.638-.084-1.1-.149-1.415-.2a11.89,11.89,0,0,1-1.185-.277,1.854,1.854,0,0,1-.9-.479.957.957,0,0,1-.251-.666c0-.472,0-1.907,3.663-1.907h.285a10.279,10.279,0,0,1,3.08.673c.5.173.986.382,1.453.584.259.112.513.221.769.324,1.13.457,1.88.489,2.435.1.014-.01.027-.021.041-.033l3.339-3.067a1,1,0,0,0,.353-.768,1.05,1.05,0,0,0-.466-.789c-3.743-2.9-7.343-4.312-11-4.312Z" transform="translate(11727.523 -2671.583)" fill="#f7f8fc"/>
    <path id="Path_12272" data-name="Path 12272" d="M650.539,471.011s-8.158,13.173-11.2,18.182c1.5,0,2.269-.067,3.024.011,5.7.588,9.595-1.676,12.352-6.8,3.164-5.88,6.892-11.457,10.366-17.171,1.072-1.763,2.115-3.544,3.127-5.239a16.137,16.137,0,0,0-4.49-.7c-6.854,0-10.189,5.64-13.18,11.716" transform="translate(11738.704 -2671.583)" fill="#f7f8fc"/>
    <path id="Path_12273" data-name="Path 12273" d="M648.943,473.822c-.537-.886-1.065-1.731-1.577-2.552-1.087-1.739-2.113-3.382-3.009-5.082-1.771-3.361-3.813-5.315-6.411-6.144-2.091-.86-4.271-.651-6.926-.651h-2.548l1.947,3.115c1.087,1.739,2.113,3.383,3.009,5.082,1.771,3.361,3.813,5.315,6.41,6.144a10.2,10.2,0,0,0,3.924.652h5.621Z" transform="translate(11741.702 -2671.604)" fill="#b8d852"/>
  </g>
</svg>
