<svg width="160" height="103" viewBox="0 0 160 103" fill="none" xmlns="http://www.w3.org/2000/svg">
<g clip-path="url(#clip0_1_6792)">
<g filter="url(#filter0_b_1_6792)">
<path d="M0 10C0 4.47715 4.47715 0 10 0H150C155.523 0 160 4.47715 160 10V93C160 98.5229 155.523 103 150 103H10C4.47715 103 0 98.5229 0 93V10Z" fill="#1B1B1F" fill-opacity="0.3"/>
</g>
</g>
<path d="M1 10C1 5.02944 5.02944 1 10 1H150C154.971 1 159 5.02944 159 10V93C159 97.9706 154.971 102 150 102H10C5.02944 102 1 97.9706 1 93V10Z" stroke="#29292F" stroke-width="2"/>
<path d="M73.2699 56V46.72L71.2539 47.28L70.8379 45.68L73.8459 44.72H75.2219V56H73.2699ZM83.4056 56.192C81.7843 56.192 80.4296 55.6373 79.3416 54.528C78.2536 53.408 77.7096 52.032 77.7096 50.4C77.7096 48.7787 78.2536 47.408 79.3416 46.288C80.4296 45.168 81.811 44.608 83.4856 44.608C84.4563 44.608 85.2776 44.7573 85.9496 45.056C86.6323 45.3547 87.2723 45.7867 87.8696 46.352L86.6056 47.808C85.603 46.88 84.5576 46.416 83.4696 46.416C82.403 46.416 81.5176 46.8 80.8136 47.568C80.1203 48.336 79.7736 49.28 79.7736 50.4C79.7736 51.5093 80.1256 52.4533 80.8296 53.232C81.5336 54 82.4136 54.384 83.4696 54.384C84.1096 54.384 84.675 54.2667 85.1656 54.032C85.6563 53.7867 86.163 53.4187 86.6856 52.928L87.9496 54.208C87.3203 54.8693 86.6536 55.3653 85.9496 55.696C85.2456 56.0267 84.3976 56.192 83.4056 56.192Z" fill="#F7F8FC"/>
<defs>
<filter x="-20" y="-20" width="200" height="143" filterUnits="userSpaceOnUse" color-interpolation-filters="sRGB">
<feFlood flood-opacity="0" result="BackgroundImageFix"/>
<feGaussianBlur in="BackgroundImageFix" stdDeviation="10"/>
<feComposite in2="SourceAlpha" operator="in" result="effect1_backgroundBlur_1_6792"/>
<feBlend mode="normal" in="SourceGraphic" in2="effect1_backgroundBlur_1_6792" result="shape"/>
</filter>
<clipPath>
<path d="M0 10C0 4.47715 4.47715 0 10 0H150C155.523 0 160 4.47715 160 10V93C160 98.5229 155.523 103 150 103H10C4.47715 103 0 98.5229 0 93V10Z" fill="white"/>
</clipPath>
</defs>
</svg>
