<svg width="160" height="103" viewBox="0 0 160 103" fill="none" xmlns="http://www.w3.org/2000/svg">
<g clip-path="url(#clip0_1_6795)">
<g filter="url(#filter0_b_1_6795)">
<path d="M0 10C0 4.47715 4.47715 0 10 0H150C155.523 0 160 4.47715 160 10V93C160 98.5229 155.523 103 150 103H10C4.47715 103 0 98.5229 0 93V10Z" fill="#1B1B1F" fill-opacity="0.3"/>
</g>
</g>
<path d="M1 10C1 5.02944 5.02944 1 10 1H150C154.971 1 159 5.02944 159 10V93C159 97.9706 154.971 102 150 102H10C5.02944 102 1 97.9706 1 93V10Z" stroke="#29292F" stroke-width="2"/>
<path d="M36.6275 56V44.8H44.9795V46.576H38.5795V49.152H41.6995C42.9475 49.152 43.9342 49.4507 44.6595 50.048C45.3955 50.6453 45.7635 51.4773 45.7635 52.544C45.7635 53.6533 45.3955 54.5067 44.6595 55.104C43.9235 55.7013 42.9048 56 41.6035 56H36.6275ZM38.5795 54.24H41.1715C42.0675 54.24 42.7288 54.112 43.1555 53.856C43.5822 53.5893 43.7955 53.1253 43.7955 52.464C43.7955 51.3653 43.0382 50.816 41.5235 50.816H38.5795V54.24ZM47.7629 56V47.552H49.6509V53.216C51.4215 50.6987 52.7549 48.8107 53.6509 47.552H55.4749V56H53.6029V50.368L49.5869 56H47.7629ZM59.7115 56V49.216H56.9915V47.552L64.3835 47.552V49.216L61.6635 49.216V56H59.7115ZM65.9191 58.56V47.552H67.8551V48.96C68.6018 47.904 69.5565 47.376 70.7191 47.376C71.7858 47.376 72.7085 47.776 73.4871 48.576C74.2658 49.3653 74.6551 50.4373 74.6551 51.792C74.6551 53.1253 74.2658 54.192 73.4871 54.992C72.7085 55.7813 71.7858 56.176 70.7191 56.176C69.5565 56.176 68.6018 55.68 67.8551 54.688V58.56H65.9191ZM70.2711 54.496C70.9538 54.496 71.5245 54.2453 71.9831 53.744C72.4525 53.2427 72.6871 52.5813 72.6871 51.76C72.6871 50.96 72.4525 50.3093 71.9831 49.808C71.5138 49.3067 70.9431 49.056 70.2711 49.056C69.5991 49.056 69.0178 49.312 68.5271 49.824C68.0471 50.336 67.8071 50.992 67.8071 51.792C67.8071 52.5813 68.0471 53.232 68.5271 53.744C69.0178 54.2453 69.5991 54.496 70.2711 54.496ZM76.6379 56V47.552H78.5259V53.216C80.2965 50.6987 81.6299 48.8107 82.5259 47.552H84.3499V56H82.4779V50.368L78.4619 56H76.6379ZM86.7785 56V47.552H88.6985V51.6L92.3785 47.552H94.6505L91.3705 51.104L94.9225 56H92.6345L90.0745 52.512L88.6985 53.968V56H86.7785ZM100.167 56.192C98.9189 56.192 97.8789 55.7707 97.0469 54.928C96.2149 54.0747 95.7989 53.04 95.7989 51.824V51.792C95.7989 50.576 96.2149 49.536 97.0469 48.672C97.8895 47.808 98.9349 47.376 100.183 47.376C101.548 47.376 102.674 47.8613 103.559 48.832L102.359 50.128C101.687 49.424 100.956 49.072 100.167 49.072C99.4735 49.072 98.8922 49.3333 98.4229 49.856C97.9642 50.3787 97.7349 51.0133 97.7349 51.76V51.792C97.7349 52.56 97.9695 53.2053 98.4389 53.728C98.9189 54.2507 99.5269 54.512 100.263 54.512C101.042 54.512 101.772 54.16 102.455 53.456L103.623 54.608C103.164 55.12 102.663 55.5147 102.119 55.792C101.586 56.0587 100.935 56.192 100.167 56.192ZM104.893 56V54.448L108.749 51.168C109.539 50.5067 110.083 49.9627 110.381 49.536C110.691 49.0987 110.845 48.6347 110.845 48.144C110.845 47.6107 110.675 47.1893 110.333 46.88C109.992 46.56 109.56 46.4 109.037 46.4C108.547 46.4 108.104 46.5333 107.709 46.8C107.325 47.0667 106.904 47.4933 106.445 48.08L105.053 46.992C105.629 46.1813 106.221 45.5893 106.829 45.216C107.448 44.832 108.232 44.64 109.181 44.64C110.28 44.64 111.171 44.9493 111.853 45.568C112.536 46.1867 112.877 47.0027 112.877 48.016C112.877 48.4533 112.824 48.848 112.717 49.2C112.611 49.5413 112.419 49.8933 112.141 50.256C111.875 50.608 111.581 50.9333 111.261 51.232C110.952 51.52 110.52 51.8933 109.965 52.352L107.661 54.272H112.989V56H104.893ZM120.514 56V53.488H114.866L114.498 52.08L120.722 44.72H122.402V51.872H124.002V53.488H122.402V56H120.514ZM116.834 51.872H120.514V47.44L116.834 51.872Z" fill="#F7F8FC"/>
<defs>
<filter x="-20" y="-20" width="200" height="143" filterUnits="userSpaceOnUse" color-interpolation-filters="sRGB">
<feFlood flood-opacity="0" result="BackgroundImageFix"/>
<feGaussianBlur in="BackgroundImageFix" stdDeviation="10"/>
<feComposite in2="SourceAlpha" operator="in" result="effect1_backgroundBlur_1_6795"/>
<feBlend mode="normal" in="SourceGraphic" in2="effect1_backgroundBlur_1_6795" result="shape"/>
</filter>
<clipPath>
<path d="M0 10C0 4.47715 4.47715 0 10 0H150C155.523 0 160 4.47715 160 10V93C160 98.5229 155.523 103 150 103H10C4.47715 103 0 98.5229 0 93V10Z" fill="white"/>
</clipPath>
</defs>
</svg>
