<svg width="160" height="140" viewBox="0 0 160 140" fill="none" xmlns="http://www.w3.org/2000/svg">
<g clip-path="url(#clip0_1_6835)">
<g filter="url(#filter0_b_1_6835)">
<path d="M0 10C0 4.47716 4.47715 0 10 0H150C155.523 0 160 4.47715 160 10V130C160 135.523 155.523 140 150 140H10C4.47715 140 0 135.523 0 130V10Z" fill="#1B1B1F" fill-opacity="0.3"/>
</g>
</g>
<path d="M1 10C1 5.02944 5.02944 1 10 1H150C154.971 1 159 5.02944 159 10V130C159 134.971 154.971 139 150 139H10C5.02944 139 1 134.971 1 130V10Z" stroke="#29292F" stroke-width="2"/>
<path d="M51.7369 92V80.8H53.7049V86.432L59.0329 80.8H61.4489L56.7929 85.616L61.6569 92H59.2729L55.4489 86.96L53.7049 88.752V92H51.7369ZM63.0426 92.096C62.7333 92.096 62.3546 92.0587 61.9066 91.984L62.0506 90.4C62.2213 90.4427 62.408 90.464 62.6106 90.464C62.8346 90.464 63.016 90.432 63.1546 90.368C63.304 90.304 63.4533 90.144 63.6026 89.888C63.7626 89.6213 63.8853 89.248 63.9706 88.768C64.056 88.288 64.1253 87.616 64.1786 86.752C64.232 85.8773 64.2586 84.8107 64.2586 83.552H70.6426V92H68.7066V85.216H66.0666C66.0666 86.4213 66.0186 87.4453 65.9226 88.288C65.8266 89.1307 65.6986 89.7973 65.5386 90.288C65.3893 90.7787 65.176 91.1627 64.8986 91.44C64.632 91.7067 64.36 91.8827 64.0826 91.968C63.8053 92.0533 63.4586 92.096 63.0426 92.096ZM73.0754 92V83.552H74.9634V89.216C76.734 86.6987 78.0674 84.8107 78.9634 83.552H80.7874V92H78.9154V86.368L74.8994 92H73.0754ZM87.088 92.192C85.8507 92.192 84.816 91.7813 83.984 90.96C83.1627 90.1387 82.752 89.0773 82.752 87.776C82.752 86.5493 83.1413 85.5093 83.92 84.656C84.6987 83.8027 85.6853 83.376 86.88 83.376C88.16 83.376 89.152 83.8133 89.856 84.688C90.5707 85.552 90.928 86.6293 90.928 87.92C90.928 88.1547 90.9173 88.336 90.896 88.464H84.688C84.7947 89.136 85.0667 89.664 85.504 90.048C85.9413 90.4213 86.48 90.608 87.12 90.608C87.952 90.608 88.7147 90.272 89.408 89.6L90.544 90.608C89.6693 91.664 88.5173 92.192 87.088 92.192ZM84.672 87.184H89.008C88.944 86.5333 88.7253 86 88.352 85.584C87.9787 85.168 87.4827 84.96 86.864 84.96C86.2773 84.96 85.7867 85.168 85.392 85.584C84.9973 85.9893 84.7573 86.5227 84.672 87.184ZM92.8723 92V83.552H94.8083V86.976H98.5363V83.552H100.472V92L98.5363 92V88.592H94.8083V92H92.8723ZM104.712 92V85.216H101.992V83.552H109.384V85.216H106.664V92H104.712Z" fill="#F7F8FC"/>
<path d="M83.5 62H89.2L90 61.2909V58.1273C89.688 57.8507 87.6667 56 87.2 56H84.8C84.3333 56 82.812 57.7235 82.5 58M82.6 65H71.4C70.854 64.5391 70.546 64.2791 70 63.8182V58.5455C70.546 58.0845 74.0833 55 74.9 55H79.1C79.9167 55 83.454 58.0845 84 58.5455V63.8182C83.454 64.2791 83.146 64.5391 82.6 65ZM81 49C81 51.2091 79.2091 53 77 53C74.7909 53 73 51.2091 73 49C73 46.7909 74.7909 45 77 45C79.2091 45 81 46.7909 81 49ZM88 52C88 53.1046 87.1046 54 86 54C84.8954 54 84 53.1046 84 52C84 50.8954 84.8954 50 86 50C87.1046 50 88 50.8954 88 52Z" stroke="#F7F8FC" stroke-width="1.5" stroke-miterlimit="10"/>
<defs>
<filter x="-20" y="-20" width="200" height="180" filterUnits="userSpaceOnUse" color-interpolation-filters="sRGB">
<feFlood flood-opacity="0" result="BackgroundImageFix"/>
<feGaussianBlur in="BackgroundImageFix" stdDeviation="10"/>
<feComposite in2="SourceAlpha" operator="in" result="effect1_backgroundBlur_1_6835"/>
<feBlend mode="normal" in="SourceGraphic" in2="effect1_backgroundBlur_1_6835" result="shape"/>
</filter>
<clipPath>
<path d="M0 10C0 4.47716 4.47715 0 10 0H150C155.523 0 160 4.47715 160 10V130C160 135.523 155.523 140 150 140H10C4.47715 140 0 135.523 0 130V10Z" fill="white"/>
</clipPath>
</defs>
</svg>
