<svg width="234" height="31" viewBox="0 0 234 31" fill="none" xmlns="http://www.w3.org/2000/svg">
<path d="M0 10C0 4.47715 4.47715 0 10 0L224 0C229.523 0 234 4.47715 234 10V21C234 26.5228 229.523 31 224 31L10 31C4.47715 31 0 26.5228 0 21L0 10Z" fill="#F7F8FC" fill-opacity="0.05"/>
<path d="M19.5436 20L19.5436 10.624H15.9916V8.8L25.0796 8.8V10.624L21.5276 10.624L21.5276 20H19.5436ZM26.9426 22.56L26.9426 11.552L28.8786 11.552V12.96C29.6252 11.904 30.5799 11.376 31.7426 11.376C32.8092 11.376 33.7319 11.776 34.5106 12.576C35.2892 13.3653 35.6786 14.4373 35.6786 15.792C35.6786 17.1253 35.2892 18.192 34.5106 18.992C33.7319 19.7813 32.8092 20.176 31.7426 20.176C30.5799 20.176 29.6252 19.68 28.8786 18.688L28.8786 22.56H26.9426ZM31.2946 18.496C31.9772 18.496 32.5479 18.2453 33.0066 17.744C33.4759 17.2427 33.7106 16.5813 33.7106 15.76C33.7106 14.96 33.4759 14.3093 33.0066 13.808C32.5372 13.3067 31.9666 13.056 31.2946 13.056C30.6226 13.056 30.0412 13.312 29.5506 13.824C29.0706 14.336 28.8306 14.992 28.8306 15.792C28.8306 16.5813 29.0706 17.232 29.5506 17.744C30.0412 18.2453 30.6226 18.496 31.2946 18.496ZM44.7493 20H42.8293V18.96C42.1466 19.7707 41.2346 20.176 40.0933 20.176C39.2506 20.176 38.536 19.9467 37.9493 19.488C37.3733 19.0187 37.0853 18.368 37.0853 17.536C37.0853 16.6293 37.4 15.9413 38.0293 15.472C38.6586 15.0027 39.4853 14.768 40.5093 14.768C41.3306 14.768 42.1093 14.8853 42.8453 15.12V14.96C42.8453 14.3733 42.664 13.9253 42.3013 13.616C41.9493 13.3067 41.4373 13.152 40.7653 13.152C39.9973 13.152 39.192 13.328 38.3493 13.68L37.8213 12.128C38.8666 11.6587 39.9386 11.424 41.0373 11.424C42.264 11.424 43.1866 11.7333 43.8053 12.352C44.4346 12.9707 44.7493 13.8507 44.7493 14.992V20ZM42.8773 16.944V16.464C42.3013 16.24 41.656 16.128 40.9413 16.128C40.3333 16.128 39.8586 16.2453 39.5173 16.48C39.176 16.7147 39.0053 17.0453 39.0053 17.472C39.0053 17.856 39.16 18.16 39.4693 18.384C39.7786 18.608 40.168 18.72 40.6373 18.72C41.288 18.72 41.8213 18.5547 42.2373 18.224C42.664 17.8933 42.8773 17.4667 42.8773 16.944ZM47.0519 20V11.552H48.9879V14.976H52.7159V11.552H54.6519V20H52.7159V16.592H48.9879V20H47.0519ZM60.9872 20.192C59.7392 20.192 58.6992 19.7707 57.8672 18.928C57.0352 18.0747 56.6192 17.04 56.6192 15.824V15.792C56.6192 14.576 57.0352 13.536 57.8672 12.672C58.7099 11.808 59.7552 11.376 61.0032 11.376C62.3685 11.376 63.4939 11.8613 64.3792 12.832L63.1792 14.128C62.5072 13.424 61.7765 13.072 60.9872 13.072C60.2939 13.072 59.7125 13.3333 59.2432 13.856C58.7845 14.3787 58.5552 15.0133 58.5552 15.76V15.792C58.5552 16.56 58.7899 17.2053 59.2592 17.728C59.7392 18.2507 60.3472 18.512 61.0832 18.512C61.8619 18.512 62.5925 18.16 63.2752 17.456L64.4432 18.608C63.9845 19.12 63.4832 19.5147 62.9392 19.792C62.4059 20.0587 61.7552 20.192 60.9872 20.192ZM66.1457 20V11.552L73.6817 11.552V20H71.7457V13.216H68.0817V20H66.1457ZM80.1304 20.192C78.8504 20.192 77.7838 19.7653 76.9304 18.912C76.0771 18.0587 75.6504 17.0187 75.6504 15.792C75.6504 14.5653 76.0824 13.5253 76.9464 12.672C77.8104 11.808 78.8824 11.376 80.1624 11.376C81.4424 11.376 82.5091 11.8027 83.3624 12.656C84.2264 13.5093 84.6584 14.5547 84.6584 15.792C84.6584 17.008 84.2264 18.048 83.3624 18.912C82.4984 19.7653 81.4211 20.192 80.1304 20.192ZM80.1624 18.512C80.9304 18.512 81.5491 18.2507 82.0184 17.728C82.4878 17.2053 82.7224 16.56 82.7224 15.792C82.7224 15.0347 82.4771 14.3947 81.9864 13.872C81.4958 13.3387 80.8771 13.072 80.1304 13.072C79.3731 13.072 78.7598 13.3333 78.2904 13.856C77.8211 14.3787 77.5864 15.024 77.5864 15.792C77.5864 16.5387 77.8318 17.1787 78.3224 17.712C78.8131 18.2453 79.4264 18.512 80.1624 18.512ZM86.6301 22.56V11.552H88.5661V12.96C89.3127 11.904 90.2674 11.376 91.4301 11.376C92.4967 11.376 93.4194 11.776 94.1981 12.576C94.9767 13.3653 95.3661 14.4373 95.3661 15.792C95.3661 17.1253 94.9767 18.192 94.1981 18.992C93.4194 19.7813 92.4967 20.176 91.4301 20.176C90.2674 20.176 89.3127 19.68 88.5661 18.688V22.56H86.6301ZM90.9821 18.496C91.6647 18.496 92.2354 18.2453 92.6941 17.744C93.1634 17.2427 93.3981 16.5813 93.3981 15.76C93.3981 14.96 93.1634 14.3093 92.6941 13.808C92.2247 13.3067 91.6541 13.056 90.9821 13.056C90.3101 13.056 89.7287 13.312 89.2381 13.824C88.7581 14.336 88.5181 14.992 88.5181 15.792C88.5181 16.5813 88.7581 17.232 89.2381 17.744C89.7287 18.2453 90.3101 18.496 90.9821 18.496ZM99.1568 20V13.216L96.4368 13.216V11.552H103.829V13.216H101.109V20H99.1568ZM105.364 20V11.552H107.3V14.976L111.028 14.976V11.552L112.964 11.552V20H111.028V16.592H107.3V20H105.364ZM122.484 20H120.564V18.96C119.881 19.7707 118.969 20.176 117.828 20.176C116.985 20.176 116.27 19.9467 115.684 19.488C115.108 19.0187 114.82 18.368 114.82 17.536C114.82 16.6293 115.134 15.9413 115.764 15.472C116.393 15.0027 117.22 14.768 118.244 14.768C119.065 14.768 119.844 14.8853 120.58 15.12V14.96C120.58 14.3733 120.398 13.9253 120.036 13.616C119.684 13.3067 119.172 13.152 118.5 13.152C117.732 13.152 116.926 13.328 116.084 13.68L115.556 12.128C116.601 11.6587 117.673 11.424 118.772 11.424C119.998 11.424 120.921 11.7333 121.54 12.352C122.169 12.9707 122.484 13.8507 122.484 14.992V20ZM120.612 16.944V16.464C120.036 16.24 119.39 16.128 118.676 16.128C118.068 16.128 117.593 16.2453 117.252 16.48C116.91 16.7147 116.74 17.0453 116.74 17.472C116.74 17.856 116.894 18.16 117.204 18.384C117.513 18.608 117.902 18.72 118.372 18.72C119.022 18.72 119.556 18.5547 119.972 18.224C120.398 17.8933 120.612 17.4667 120.612 16.944ZM124.018 20L126.354 16.832C125.757 16.6507 125.277 16.3467 124.914 15.92C124.562 15.4827 124.386 14.944 124.386 14.304C124.386 13.472 124.68 12.8053 125.266 12.304C125.853 11.8027 126.669 11.552 127.714 11.552H131.954V20L130.018 20V17.152H128.29L126.29 20H124.018ZM127.986 15.696H130.018V13.12H127.97C127.458 13.12 127.053 13.2373 126.754 13.472C126.466 13.696 126.322 14.0053 126.322 14.4C126.322 14.8053 126.472 15.1253 126.77 15.36C127.08 15.584 127.485 15.696 127.986 15.696ZM139.177 20V11.552L141.097 11.552V15.6L144.777 11.552H147.049L143.769 15.104L147.321 20H145.033L142.473 16.512L141.097 17.968V20H139.177ZM152.677 20.192C151.397 20.192 150.331 19.7653 149.477 18.912C148.624 18.0587 148.197 17.0187 148.197 15.792C148.197 14.5653 148.629 13.5253 149.493 12.672C150.357 11.808 151.429 11.376 152.709 11.376C153.989 11.376 155.056 11.8027 155.909 12.656C156.773 13.5093 157.205 14.5547 157.205 15.792C157.205 17.008 156.773 18.048 155.909 18.912C155.045 19.7653 153.968 20.192 152.677 20.192ZM152.709 18.512C153.477 18.512 154.096 18.2507 154.565 17.728C155.035 17.2053 155.269 16.56 155.269 15.792C155.269 15.0347 155.024 14.3947 154.533 13.872C154.043 13.3387 153.424 13.072 152.677 13.072C151.92 13.072 151.307 13.3333 150.837 13.856C150.368 14.3787 150.133 15.024 150.133 15.792C150.133 16.5387 150.379 17.1787 150.869 17.712C151.36 18.2453 151.973 18.512 152.709 18.512ZM159.177 20V11.552H161.097L163.737 15.472L166.393 11.552H168.313V20H166.361V14.368L163.705 18.16L161.065 14.4V20H159.177ZM170.739 20V11.552L178.275 11.552V20H176.339V13.216L172.675 13.216V20H170.739ZM187.796 20H185.876V18.96C185.194 19.7707 184.282 20.176 183.14 20.176C182.298 20.176 181.583 19.9467 180.996 19.488C180.42 19.0187 180.132 18.368 180.132 17.536C180.132 16.6293 180.447 15.9413 181.076 15.472C181.706 15.0027 182.532 14.768 183.556 14.768C184.378 14.768 185.156 14.8853 185.892 15.12V14.96C185.892 14.3733 185.711 13.9253 185.348 13.616C184.996 13.3067 184.484 13.152 183.812 13.152C183.044 13.152 182.239 13.328 181.396 13.68L180.868 12.128C181.914 11.6587 182.986 11.424 184.084 11.424C185.311 11.424 186.234 11.7333 186.852 12.352C187.482 12.9707 187.796 13.8507 187.796 14.992V20ZM185.924 16.944V16.464C185.348 16.24 184.703 16.128 183.988 16.128C183.38 16.128 182.906 16.2453 182.564 16.48C182.223 16.7147 182.052 17.0453 182.052 17.472C182.052 17.856 182.207 18.16 182.516 18.384C182.826 18.608 183.215 18.72 183.684 18.72C184.335 18.72 184.868 18.5547 185.284 18.224C185.711 17.8933 185.924 17.4667 185.924 16.944ZM190.099 20V11.552H192.035V14.976H195.763V11.552H197.699V20H195.763V16.592H192.035V20H190.099ZM200.13 20V11.552H202.018V17.216C203.789 14.6987 205.122 12.8107 206.018 11.552H207.842V20H205.97V14.368L201.954 20H200.13ZM209.503 20L211.839 16.832C211.241 16.6507 210.761 16.3467 210.399 15.92C210.047 15.4827 209.871 14.944 209.871 14.304C209.871 13.472 210.164 12.8053 210.751 12.304C211.337 11.8027 212.153 11.552 213.199 11.552H217.439V20H215.503V17.152H213.775L211.775 20H209.503ZM213.471 15.696H215.503V13.12H213.455C212.943 13.12 212.537 13.2373 212.239 13.472C211.951 13.696 211.807 14.0053 211.807 14.4C211.807 14.8053 211.956 15.1253 212.255 15.36C212.564 15.584 212.969 15.696 213.471 15.696Z" fill="#93939B"/>
</svg>
