<svg width="849" height="660" viewBox="0 0 849 660" fill="none" xmlns="http://www.w3.org/2000/svg">
<rect x="291" y="591" width="6" height="6" fill="#0FAFEA"/>
<path d="M557 600L551 593.995L557 588" stroke="#0FAFEA" stroke-width="2" stroke-miterlimit="10"/>
<path d="M307 589C307 583.477 311.477 579 317 579H531C536.523 579 541 583.477 541 589V600C541 605.523 536.523 610 531 610H317C311.477 610 307 605.523 307 600V589Z" fill="#F7F8FC" fill-opacity="0.05"/>
<path d="M326.544 599V589.624H322.992V587.8H332.08V589.624H328.528V599H326.544ZM333.943 601.56V590.552H335.879V591.96C336.625 590.904 337.58 590.376 338.743 590.376C339.809 590.376 340.732 590.776 341.511 591.576C342.289 592.365 342.679 593.437 342.679 594.792C342.679 596.125 342.289 597.192 341.511 597.992C340.732 598.781 339.809 599.176 338.743 599.176C337.58 599.176 336.625 598.68 335.879 597.688V601.56H333.943ZM338.295 597.496C338.977 597.496 339.548 597.245 340.007 596.744C340.476 596.243 340.711 595.581 340.711 594.76C340.711 593.96 340.476 593.309 340.007 592.808C339.537 592.307 338.967 592.056 338.295 592.056C337.623 592.056 337.041 592.312 336.551 592.824C336.071 593.336 335.831 593.992 335.831 594.792C335.831 595.581 336.071 596.232 336.551 596.744C337.041 597.245 337.623 597.496 338.295 597.496ZM351.749 599H349.829V597.96C349.147 598.771 348.235 599.176 347.093 599.176C346.251 599.176 345.536 598.947 344.949 598.488C344.373 598.019 344.085 597.368 344.085 596.536C344.085 595.629 344.4 594.941 345.029 594.472C345.659 594.003 346.485 593.768 347.509 593.768C348.331 593.768 349.109 593.885 349.845 594.12V593.96C349.845 593.373 349.664 592.925 349.301 592.616C348.949 592.307 348.437 592.152 347.765 592.152C346.997 592.152 346.192 592.328 345.349 592.68L344.821 591.128C345.867 590.659 346.939 590.424 348.037 590.424C349.264 590.424 350.187 590.733 350.805 591.352C351.435 591.971 351.749 592.851 351.749 593.992V599ZM349.877 595.944V595.464C349.301 595.24 348.656 595.128 347.941 595.128C347.333 595.128 346.859 595.245 346.517 595.48C346.176 595.715 346.005 596.045 346.005 596.472C346.005 596.856 346.16 597.16 346.469 597.384C346.779 597.608 347.168 597.72 347.637 597.72C348.288 597.72 348.821 597.555 349.237 597.224C349.664 596.893 349.877 596.467 349.877 595.944ZM354.052 599V590.552H355.988V593.976H359.716V590.552H361.652V599H359.716V595.592H355.988V599H354.052ZM367.987 599.192C366.739 599.192 365.699 598.771 364.867 597.928C364.035 597.075 363.619 596.04 363.619 594.824V594.792C363.619 593.576 364.035 592.536 364.867 591.672C365.71 590.808 366.755 590.376 368.003 590.376C369.369 590.376 370.494 590.861 371.379 591.832L370.179 593.128C369.507 592.424 368.777 592.072 367.987 592.072C367.294 592.072 366.713 592.333 366.243 592.856C365.785 593.379 365.555 594.013 365.555 594.76V594.792C365.555 595.56 365.79 596.205 366.259 596.728C366.739 597.251 367.347 597.512 368.083 597.512C368.862 597.512 369.593 597.16 370.275 596.456L371.443 597.608C370.985 598.12 370.483 598.515 369.939 598.792C369.406 599.059 368.755 599.192 367.987 599.192ZM373.146 599V590.552H380.682V599H378.746V592.216H375.082V599H373.146ZM387.13 599.192C385.85 599.192 384.784 598.765 383.93 597.912C383.077 597.059 382.65 596.019 382.65 594.792C382.65 593.565 383.082 592.525 383.946 591.672C384.81 590.808 385.882 590.376 387.162 590.376C388.442 590.376 389.509 590.803 390.362 591.656C391.226 592.509 391.658 593.555 391.658 594.792C391.658 596.008 391.226 597.048 390.362 597.912C389.498 598.765 388.421 599.192 387.13 599.192ZM387.162 597.512C387.93 597.512 388.549 597.251 389.018 596.728C389.488 596.205 389.722 595.56 389.722 594.792C389.722 594.035 389.477 593.395 388.986 592.872C388.496 592.339 387.877 592.072 387.13 592.072C386.373 592.072 385.76 592.333 385.29 592.856C384.821 593.379 384.586 594.024 384.586 594.792C384.586 595.539 384.832 596.179 385.322 596.712C385.813 597.245 386.426 597.512 387.162 597.512ZM393.63 601.56V590.552H395.566V591.96C396.313 590.904 397.267 590.376 398.43 590.376C399.497 590.376 400.419 590.776 401.198 591.576C401.977 592.365 402.366 593.437 402.366 594.792C402.366 596.125 401.977 597.192 401.198 597.992C400.419 598.781 399.497 599.176 398.43 599.176C397.267 599.176 396.313 598.68 395.566 597.688V601.56H393.63ZM397.982 597.496C398.665 597.496 399.235 597.245 399.694 596.744C400.163 596.243 400.398 595.581 400.398 594.76C400.398 593.96 400.163 593.309 399.694 592.808C399.225 592.307 398.654 592.056 397.982 592.056C397.31 592.056 396.729 592.312 396.238 592.824C395.758 593.336 395.518 593.992 395.518 594.792C395.518 595.581 395.758 596.232 396.238 596.744C396.729 597.245 397.31 597.496 397.982 597.496ZM406.157 599V592.216H403.437V590.552H410.829V592.216H408.109V599H406.157ZM412.364 599V590.552H414.3V593.976H418.028V590.552H419.964V599H418.028V595.592H414.3V599H412.364ZM429.484 599H427.564V597.96C426.881 598.771 425.969 599.176 424.828 599.176C423.985 599.176 423.27 598.947 422.684 598.488C422.108 598.019 421.82 597.368 421.82 596.536C421.82 595.629 422.134 594.941 422.764 594.472C423.393 594.003 424.22 593.768 425.244 593.768C426.065 593.768 426.844 593.885 427.58 594.12V593.96C427.58 593.373 427.398 592.925 427.036 592.616C426.684 592.307 426.172 592.152 425.5 592.152C424.732 592.152 423.926 592.328 423.084 592.68L422.556 591.128C423.601 590.659 424.673 590.424 425.772 590.424C426.998 590.424 427.921 590.733 428.54 591.352C429.169 591.971 429.484 592.851 429.484 593.992V599ZM427.612 595.944V595.464C427.036 595.24 426.39 595.128 425.676 595.128C425.068 595.128 424.593 595.245 424.252 595.48C423.91 595.715 423.74 596.045 423.74 596.472C423.74 596.856 423.894 597.16 424.204 597.384C424.513 597.608 424.902 597.72 425.372 597.72C426.022 597.72 426.556 597.555 426.972 597.224C427.398 596.893 427.612 596.467 427.612 595.944ZM431.018 599L433.354 595.832C432.757 595.651 432.277 595.347 431.914 594.92C431.562 594.483 431.386 593.944 431.386 593.304C431.386 592.472 431.68 591.805 432.266 591.304C432.853 590.803 433.669 590.552 434.714 590.552H438.954V599H437.018V596.152H435.29L433.29 599H431.018ZM434.986 594.696H437.018V592.12H434.97C434.458 592.12 434.053 592.237 433.754 592.472C433.466 592.696 433.322 593.005 433.322 593.4C433.322 593.805 433.472 594.125 433.77 594.36C434.08 594.584 434.485 594.696 434.986 594.696ZM446.177 599V590.552H448.097V594.6L451.777 590.552H454.049L450.769 594.104L454.321 599H452.033L449.473 595.512L448.097 596.968V599H446.177ZM459.677 599.192C458.397 599.192 457.331 598.765 456.477 597.912C455.624 597.059 455.197 596.019 455.197 594.792C455.197 593.565 455.629 592.525 456.493 591.672C457.357 590.808 458.429 590.376 459.709 590.376C460.989 590.376 462.056 590.803 462.909 591.656C463.773 592.509 464.205 593.555 464.205 594.792C464.205 596.008 463.773 597.048 462.909 597.912C462.045 598.765 460.968 599.192 459.677 599.192ZM459.709 597.512C460.477 597.512 461.096 597.251 461.565 596.728C462.035 596.205 462.269 595.56 462.269 594.792C462.269 594.035 462.024 593.395 461.533 592.872C461.043 592.339 460.424 592.072 459.677 592.072C458.92 592.072 458.307 592.333 457.837 592.856C457.368 593.379 457.133 594.024 457.133 594.792C457.133 595.539 457.379 596.179 457.869 596.712C458.36 597.245 458.973 597.512 459.709 597.512ZM466.177 599V590.552H468.097L470.737 594.472L473.393 590.552H475.313V599H473.361V593.368L470.705 597.16L468.065 593.4V599H466.177ZM477.739 599V590.552H485.275V599H483.339V592.216H479.675V599H477.739ZM494.796 599H492.876V597.96C492.194 598.771 491.282 599.176 490.14 599.176C489.298 599.176 488.583 598.947 487.996 598.488C487.42 598.019 487.132 597.368 487.132 596.536C487.132 595.629 487.447 594.941 488.076 594.472C488.706 594.003 489.532 593.768 490.556 593.768C491.378 593.768 492.156 593.885 492.892 594.12V593.96C492.892 593.373 492.711 592.925 492.348 592.616C491.996 592.307 491.484 592.152 490.812 592.152C490.044 592.152 489.239 592.328 488.396 592.68L487.868 591.128C488.914 590.659 489.986 590.424 491.084 590.424C492.311 590.424 493.234 590.733 493.852 591.352C494.482 591.971 494.796 592.851 494.796 593.992V599ZM492.924 595.944V595.464C492.348 595.24 491.703 595.128 490.988 595.128C490.38 595.128 489.906 595.245 489.564 595.48C489.223 595.715 489.052 596.045 489.052 596.472C489.052 596.856 489.207 597.16 489.516 597.384C489.826 597.608 490.215 597.72 490.684 597.72C491.335 597.72 491.868 597.555 492.284 597.224C492.711 596.893 492.924 596.467 492.924 595.944ZM497.099 599V590.552H499.035V593.976H502.763V590.552H504.699V599H502.763V595.592H499.035V599H497.099ZM507.13 599V590.552H509.018V596.216C510.789 593.699 512.122 591.811 513.018 590.552H514.842V599H512.97V593.368L508.954 599H507.13ZM516.503 599L518.839 595.832C518.241 595.651 517.761 595.347 517.399 594.92C517.047 594.483 516.871 593.944 516.871 593.304C516.871 592.472 517.164 591.805 517.751 591.304C518.337 590.803 519.153 590.552 520.199 590.552H524.439V599H522.503V596.152H520.775L518.775 599H516.503ZM520.471 594.696H522.503V592.12H520.455C519.943 592.12 519.537 592.237 519.239 592.472C518.951 592.696 518.807 593.005 518.807 593.4C518.807 593.805 518.956 594.125 519.255 594.36C519.564 594.584 519.969 594.696 520.471 594.696Z" fill="#93939B"/>
<path d="M728 390V594H557" stroke="#0FAFEA" stroke-width="2" stroke-linejoin="round" stroke-dasharray="5 5"/>
<path d="M649.5 160L630 160L630 548L349 548L349 533" stroke="#33D35E" stroke-width="2" stroke-linejoin="round" stroke-dasharray="5 5"/>
<rect x="346" y="523" width="6" height="6" fill="#33D35E"/>
<path d="M615 460L702 460L702 390" stroke="#29292F" stroke-width="2" stroke-linejoin="round" stroke-dasharray="5 5"/>
<path d="M615 466L609 459.995L615 454" stroke="#29292F" stroke-width="2" stroke-miterlimit="10"/>
<path d="M560 280L576 280L576 390" stroke="#29292F" stroke-width="2" stroke-linejoin="round" stroke-dasharray="5 5"/>
<path d="M82.5 111L40 111L40 594L287.033 594" stroke="#0FAFEA" stroke-width="2" stroke-linejoin="round" stroke-dasharray="5 5"/>
<g clip-path="url(#clip0_1_6781)">
<g filter="url(#filter0_b_1_6781)">
<path d="M266 420C266 414.477 270.477 410 276 410H416C421.523 410 426 414.477 426 420V503C426 508.523 421.523 513 416 513H276C270.477 513 266 508.523 266 503V420Z" fill="#1B1B1F" fill-opacity="0.3"/>
</g>
</g>
<path d="M267 420C267 415.029 271.029 411 276 411H416C420.971 411 425 415.029 425 420V503C425 507.971 420.971 512 416 512H276C271.029 512 267 507.971 267 503V420Z" stroke="#29292F" stroke-width="2"/>
<path d="M339.27 466V456.72L337.254 457.28L336.838 455.68L339.846 454.72H341.222V466H339.27ZM349.406 466.192C347.784 466.192 346.43 465.637 345.342 464.528C344.254 463.408 343.71 462.032 343.71 460.4C343.71 458.779 344.254 457.408 345.342 456.288C346.43 455.168 347.811 454.608 349.486 454.608C350.456 454.608 351.278 454.757 351.95 455.056C352.632 455.355 353.272 455.787 353.87 456.352L352.606 457.808C351.603 456.88 350.558 456.416 349.47 456.416C348.403 456.416 347.518 456.8 346.814 457.568C346.12 458.336 345.774 459.28 345.774 460.4C345.774 461.509 346.126 462.453 346.83 463.232C347.534 464 348.414 464.384 349.47 464.384C350.11 464.384 350.675 464.267 351.166 464.032C351.656 463.787 352.163 463.419 352.686 462.928L353.95 464.208C353.32 464.869 352.654 465.365 351.95 465.696C351.246 466.027 350.398 466.192 349.406 466.192Z" fill="#F7F8FC"/>
<g clip-path="url(#clip1_1_6781)">
<g filter="url(#filter1_b_1_6781)">
<path d="M439 419C439 413.477 443.477 409 449 409H589C594.523 409 599 413.477 599 419V502C599 507.523 594.523 512 589 512H449C443.477 512 439 507.523 439 502V419Z" fill="#1B1B1F" fill-opacity="0.3"/>
</g>
</g>
<path d="M440 419C440 414.029 444.029 410 449 410H589C593.971 410 598 414.029 598 419V502C598 506.971 593.971 511 589 511H449C444.029 511 440 506.971 440 502V419Z" stroke="#29292F" stroke-width="2"/>
<path d="M475.628 465V453.8H483.98V455.576H477.58V458.152H480.7C481.948 458.152 482.934 458.451 483.66 459.048C484.396 459.645 484.764 460.477 484.764 461.544C484.764 462.653 484.396 463.507 483.66 464.104C482.924 464.701 481.905 465 480.604 465H475.628ZM477.58 463.24H480.172C481.068 463.24 481.729 463.112 482.156 462.856C482.582 462.589 482.796 462.125 482.796 461.464C482.796 460.365 482.038 459.816 480.524 459.816H477.58V463.24ZM486.763 465V456.552H488.651V462.216C490.422 459.699 491.755 457.811 492.651 456.552H494.475V465H492.603V459.368L488.587 465H486.763ZM498.712 465V458.216H495.992V456.552H503.384V458.216H500.664V465H498.712ZM504.919 467.56V456.552H506.855V457.96C507.602 456.904 508.556 456.376 509.719 456.376C510.786 456.376 511.708 456.776 512.487 457.576C513.266 458.365 513.655 459.437 513.655 460.792C513.655 462.125 513.266 463.192 512.487 463.992C511.708 464.781 510.786 465.176 509.719 465.176C508.556 465.176 507.602 464.68 506.855 463.688V467.56H504.919ZM509.271 463.496C509.954 463.496 510.524 463.245 510.983 462.744C511.452 462.243 511.687 461.581 511.687 460.76C511.687 459.96 511.452 459.309 510.983 458.808C510.514 458.307 509.943 458.056 509.271 458.056C508.599 458.056 508.018 458.312 507.527 458.824C507.047 459.336 506.807 459.992 506.807 460.792C506.807 461.581 507.047 462.232 507.527 462.744C508.018 463.245 508.599 463.496 509.271 463.496ZM515.638 465V456.552H517.526V462.216C519.297 459.699 520.63 457.811 521.526 456.552H523.35V465H521.478V459.368L517.462 465H515.638ZM525.779 465V456.552H527.699V460.6L531.379 456.552H533.651L530.371 460.104L533.923 465H531.635L529.075 461.512L527.699 462.968V465H525.779ZM539.167 465.192C537.919 465.192 536.879 464.771 536.047 463.928C535.215 463.075 534.799 462.04 534.799 460.824V460.792C534.799 459.576 535.215 458.536 536.047 457.672C536.89 456.808 537.935 456.376 539.183 456.376C540.548 456.376 541.674 456.861 542.559 457.832L541.359 459.128C540.687 458.424 539.956 458.072 539.167 458.072C538.474 458.072 537.892 458.333 537.423 458.856C536.964 459.379 536.735 460.013 536.735 460.76V460.792C536.735 461.56 536.97 462.205 537.439 462.728C537.919 463.251 538.527 463.512 539.263 463.512C540.042 463.512 540.772 463.16 541.455 462.456L542.623 463.608C542.164 464.12 541.663 464.515 541.119 464.792C540.586 465.059 539.935 465.192 539.167 465.192ZM543.893 465V463.448L547.749 460.168C548.539 459.507 549.083 458.963 549.381 458.536C549.691 458.099 549.845 457.635 549.845 457.144C549.845 456.611 549.675 456.189 549.333 455.88C548.992 455.56 548.56 455.4 548.037 455.4C547.547 455.4 547.104 455.533 546.709 455.8C546.325 456.067 545.904 456.493 545.445 457.08L544.053 455.992C544.629 455.181 545.221 454.589 545.829 454.216C546.448 453.832 547.232 453.64 548.181 453.64C549.28 453.64 550.171 453.949 550.853 454.568C551.536 455.187 551.877 456.003 551.877 457.016C551.877 457.453 551.824 457.848 551.717 458.2C551.611 458.541 551.419 458.893 551.141 459.256C550.875 459.608 550.581 459.933 550.261 460.232C549.952 460.52 549.52 460.893 548.965 461.352L546.661 463.272H551.989V465H543.893ZM559.514 465V462.488H553.866L553.498 461.08L559.722 453.72H561.402V460.872H563.002V462.488H561.402V465H559.514ZM555.834 460.872H559.514V456.44L555.834 460.872Z" fill="#F7F8FC"/>
<rect x="573" y="393" width="6" height="6" fill="#29292F"/>
<path d="M497 393L503.005 399L509 393" stroke="#33D35E" stroke-width="2" stroke-miterlimit="10"/>
<path d="M340 393L346.005 399L352 393" stroke="#33D35E" stroke-width="2" stroke-miterlimit="10"/>
<rect x="725" y="381" width="6" height="6" fill="#0FAFEA"/>
<rect x="699" y="381" width="6" height="6" fill="#29292F"/>
<path d="M503 392V374" stroke="#33D35E" stroke-width="2" stroke-linejoin="round" stroke-dasharray="5 5"/>
<path d="M346 392L346 374" stroke="#33D35E" stroke-width="2" stroke-linejoin="round" stroke-dasharray="5 5"/>
<rect x="500" y="364" width="6" height="6" fill="#33D35E"/>
<rect x="343" y="364" width="6" height="6" fill="#33D35E"/>
<path d="M666 348C666 342.477 670.477 338 676 338H779C784.523 338 789 342.477 789 348V359C789 364.523 784.523 369 779 369H676C670.477 369 666 364.523 666 359V348Z" fill="#F7F8FC" fill-opacity="0.05"/>
<path d="M685.69 358.128C685.231 358.128 684.778 358.069 684.33 357.952L684.522 356.336C684.714 356.4 684.927 356.432 685.162 356.432C685.418 356.432 685.637 356.395 685.818 356.32C686.01 356.235 686.207 356.043 686.41 355.744C686.623 355.445 686.789 355.04 686.906 354.528C687.034 354.005 687.141 353.28 687.226 352.352C687.311 351.424 687.354 350.309 687.354 349.008V346.8H695.034V358H693.066V348.576H689.194V349.584C689.194 351.323 689.119 352.768 688.97 353.92C688.821 355.061 688.586 355.936 688.266 356.544C687.946 357.141 687.583 357.557 687.178 357.792C686.783 358.016 686.287 358.128 685.69 358.128ZM701.716 358.192C700.436 358.192 699.37 357.765 698.516 356.912C697.663 356.059 697.236 355.019 697.236 353.792C697.236 352.565 697.668 351.525 698.532 350.672C699.396 349.808 700.468 349.376 701.748 349.376C703.028 349.376 704.095 349.803 704.948 350.656C705.812 351.509 706.244 352.555 706.244 353.792C706.244 355.008 705.812 356.048 704.948 356.912C704.084 357.765 703.007 358.192 701.716 358.192ZM701.748 356.512C702.516 356.512 703.135 356.251 703.604 355.728C704.074 355.205 704.308 354.56 704.308 353.792C704.308 353.035 704.063 352.395 703.572 351.872C703.082 351.339 702.463 351.072 701.716 351.072C700.959 351.072 700.346 351.333 699.876 351.856C699.407 352.379 699.172 353.024 699.172 353.792C699.172 354.539 699.418 355.179 699.908 355.712C700.399 356.245 701.012 356.512 701.748 356.512ZM708.216 358V349.552H714.2V351.216H710.152V358H708.216ZM715.732 358V349.552H717.62V355.216C719.39 352.699 720.724 350.811 721.62 349.552H723.444V358H721.572V352.368L717.556 358H715.732ZM729.776 358.192C728.528 358.192 727.488 357.771 726.656 356.928C725.824 356.075 725.408 355.04 725.408 353.824V353.792C725.408 352.576 725.824 351.536 726.656 350.672C727.499 349.808 728.544 349.376 729.792 349.376C731.158 349.376 732.283 349.861 733.168 350.832L731.968 352.128C731.296 351.424 730.566 351.072 729.776 351.072C729.083 351.072 728.502 351.333 728.032 351.856C727.574 352.379 727.344 353.013 727.344 353.76V353.792C727.344 354.56 727.579 355.205 728.048 355.728C728.528 356.251 729.136 356.512 729.872 356.512C730.651 356.512 731.382 356.16 732.064 355.456L733.232 356.608C732.774 357.12 732.272 357.515 731.728 357.792C731.195 358.059 730.544 358.192 729.776 358.192ZM736.743 358V351.216H734.023V349.552H741.415V351.216H738.695V358H736.743ZM742.95 358V349.552H744.838V355.216C746.609 352.699 747.942 350.811 748.838 349.552H750.662V358H748.79V352.368L744.774 358H742.95ZM753.091 358V349.552H755.011V353.6L758.691 349.552H760.963L757.683 353.104L761.235 358H758.947L756.387 354.512L755.011 355.968V358H753.091ZM769.663 358H767.743V356.96C767.061 357.771 766.149 358.176 765.007 358.176C764.165 358.176 763.45 357.947 762.863 357.488C762.287 357.019 761.999 356.368 761.999 355.536C761.999 354.629 762.314 353.941 762.943 353.472C763.573 353.003 764.399 352.768 765.423 352.768C766.245 352.768 767.023 352.885 767.759 353.12V352.96C767.759 352.373 767.578 351.925 767.215 351.616C766.863 351.307 766.351 351.152 765.679 351.152C764.911 351.152 764.106 351.328 763.263 351.68L762.735 350.128C763.781 349.659 764.853 349.424 765.951 349.424C767.178 349.424 768.101 349.733 768.719 350.352C769.349 350.971 769.663 351.851 769.663 352.992V358ZM767.791 354.944V354.464C767.215 354.24 766.57 354.128 765.855 354.128C765.247 354.128 764.773 354.245 764.431 354.48C764.09 354.715 763.919 355.045 763.919 355.472C763.919 355.856 764.074 356.16 764.383 356.384C764.693 356.608 765.082 356.72 765.551 356.72C766.202 356.72 766.735 356.555 767.151 356.224C767.578 355.893 767.791 355.467 767.791 354.944Z" fill="#93939B"/>
<path d="M722 322L728.005 328L734 322" stroke="#0FAFEA" stroke-width="2" stroke-miterlimit="10"/>
<rect x="287" y="278" width="6" height="6" fill="#29292F"/>
<path d="M558 286L552 279.995L558 274" stroke="#29292F" stroke-width="2" stroke-miterlimit="10"/>
<g clip-path="url(#clip2_1_6781)">
<path d="M303 218C303 212.477 307.477 208 313 208H536C541.523 208 546 212.477 546 218V344C546 349.523 541.523 354 536 354H313C307.477 354 303 349.523 303 344V218Z" fill="#0E0E10"/>
<path d="M411.96 307.192C410.339 307.192 408.984 306.637 407.896 305.528C406.808 304.408 406.264 303.032 406.264 301.4C406.264 299.779 406.808 298.408 407.896 297.288C408.984 296.168 410.366 295.608 412.04 295.608C413.011 295.608 413.832 295.757 414.504 296.056C415.187 296.355 415.827 296.787 416.424 297.352L415.16 298.808C414.158 297.88 413.112 297.416 412.024 297.416C410.958 297.416 410.072 297.8 409.368 298.568C408.675 299.336 408.328 300.28 408.328 301.4C408.328 302.509 408.68 303.453 409.384 304.232C410.088 305 410.968 305.384 412.024 305.384C412.664 305.384 413.23 305.267 413.72 305.032C414.211 304.787 414.718 304.419 415.24 303.928L416.504 305.208C415.875 305.869 415.208 306.365 414.504 306.696C413.8 307.027 412.952 307.192 411.96 307.192ZM425.437 307H423.517V305.96C422.834 306.771 421.922 307.176 420.781 307.176C419.938 307.176 419.223 306.947 418.637 306.488C418.061 306.019 417.773 305.368 417.773 304.536C417.773 303.629 418.087 302.941 418.717 302.472C419.346 302.003 420.173 301.768 421.197 301.768C422.018 301.768 422.797 301.885 423.533 302.12V301.96C423.533 301.373 423.351 300.925 422.989 300.616C422.637 300.307 422.125 300.152 421.453 300.152C420.685 300.152 419.879 300.328 419.037 300.68L418.509 299.128C419.554 298.659 420.626 298.424 421.725 298.424C422.951 298.424 423.874 298.733 424.493 299.352C425.122 299.971 425.437 300.851 425.437 301.992V307ZM423.565 303.944V303.464C422.989 303.24 422.343 303.128 421.629 303.128C421.021 303.128 420.546 303.245 420.205 303.48C419.863 303.715 419.693 304.045 419.693 304.472C419.693 304.856 419.847 305.16 420.157 305.384C420.466 305.608 420.855 305.72 421.325 305.72C421.975 305.72 422.509 305.555 422.925 305.224C423.351 304.893 423.565 304.467 423.565 303.944ZM433.275 296.984C432.838 297.379 432.283 297.576 431.611 297.576C430.939 297.576 430.379 297.379 429.931 296.984C429.483 296.579 429.206 296.035 429.099 295.352L430.283 295.128C430.507 295.853 430.95 296.216 431.611 296.216C432.273 296.216 432.715 295.853 432.939 295.128L434.107 295.352C434.001 296.035 433.723 296.579 433.275 296.984ZM427.739 307V298.552H429.627V304.216C431.398 301.699 432.731 299.811 433.627 298.552H435.451V307H433.579V301.368L429.563 307H427.739ZM439.688 307V300.216H436.968V298.552H444.36V300.216H441.64V307H439.688Z" fill="#F7F8FC"/>
<path d="M443.196 280H433.393C433.121 279.74 432.968 279.593 432.696 279.333V260.667C432.968 260.407 433.121 260.26 433.393 260H445C445.271 260.26 445.424 260.407 445.696 260.667V267.327M434.696 263H443.696M439.07 277V278.268" stroke="#F7F8FC" stroke-width="1.5" stroke-miterlimit="10"/>
<path d="M448.696 277V278.27M451.896 280H445.496C445.184 279.732 445.008 279.581 444.696 279.312V269.688C445.008 269.419 445.184 269.268 445.496 269H451.896C452.208 269.268 452.384 269.419 452.696 269.688V279.312C452.384 279.581 452.208 279.732 451.896 280Z" stroke="#F7F8FC" stroke-width="1.5" stroke-miterlimit="10"/>
<path d="M417.656 269.467H399.607M401.696 272.5H403.059M404.443 272.5H405.826M407.211 272.5H408.595M409.979 272.5H411.362M412.746 272.5H414.13M403.059 273.922H404.464M405.827 273.922H407.231M408.594 273.922H409.978M411.362 273.922H412.725M414.13 273.922H415.493M418.046 280H399.346L398.696 279.334L399.736 270V260.666L400.385 260H417.007C417.26 260.26 417.403 260.407 417.656 260.666V270L418.696 279.334C418.443 279.593 418.3 279.74 418.046 280ZM405.848 276.765H411.383V279.609H405.848V276.765Z" stroke="#F7F8FC" stroke-width="1.5" stroke-miterlimit="10"/>
</g>
<path d="M180 206L180 281L284 281" stroke="#29292F" stroke-width="2" stroke-linejoin="round" stroke-dasharray="5 5"/>
<path d="M728 321L728 200" stroke="#0FAFEA" stroke-width="2" stroke-linejoin="round" stroke-dasharray="5 5"/>
<path d="M174 206L180.005 200L186 206" stroke="#29292F" stroke-width="2" stroke-miterlimit="10"/>
<path d="M423 192L429.005 198L435 192" stroke="#33D35E" stroke-width="2" stroke-miterlimit="10"/>
<rect x="725" y="190" width="6" height="6" fill="#0FAFEA"/>
<path d="M650 166L656 159.995L650 154" stroke="#33D35E" stroke-width="2" stroke-miterlimit="10"/>
<path d="M666 157C666 151.477 670.477 147 676 147L779 147C784.523 147 789 151.477 789 157V168C789 173.523 784.523 178 779 178L676 178C670.477 178 666 173.523 666 168V157Z" fill="#F7F8FC" fill-opacity="0.05"/>
<path d="M708.695 167.192C707.073 167.192 705.719 166.637 704.631 165.528C703.543 164.408 702.999 163.032 702.999 161.4C702.999 159.779 703.543 158.408 704.631 157.288C705.719 156.168 707.1 155.608 708.775 155.608C709.745 155.608 710.567 155.757 711.239 156.056C711.921 156.355 712.561 156.787 713.159 157.352L711.895 158.808C710.892 157.88 709.847 157.416 708.759 157.416C707.692 157.416 706.807 157.8 706.103 158.568C705.409 159.336 705.063 160.28 705.063 161.4C705.063 162.509 705.415 163.453 706.119 164.232C706.823 165 707.703 165.384 708.759 165.384C709.399 165.384 709.964 165.267 710.455 165.032C710.945 164.787 711.452 164.419 711.975 163.928L713.239 165.208C712.609 165.869 711.943 166.365 711.239 166.696C710.535 167.027 709.687 167.192 708.695 167.192ZM715.083 167V158.552H717.003V162.6L720.683 158.552H722.955L719.675 162.104L723.227 167H720.939L718.379 163.512L717.003 164.968V167H715.083ZM724.504 167.096C724.194 167.096 723.816 167.059 723.368 166.984L723.512 165.4C723.682 165.443 723.869 165.464 724.072 165.464C724.296 165.464 724.477 165.432 724.616 165.368C724.765 165.304 724.914 165.144 725.064 164.888C725.224 164.621 725.346 164.248 725.432 163.768C725.517 163.288 725.586 162.616 725.64 161.752C725.693 160.877 725.72 159.811 725.72 158.552H732.104V167H730.168V160.216H727.528C727.528 161.421 727.48 162.445 727.384 163.288C727.288 164.131 727.16 164.797 727 165.288C726.85 165.779 726.637 166.163 726.36 166.44C726.093 166.707 725.821 166.883 725.544 166.968C725.266 167.053 724.92 167.096 724.504 167.096ZM741.624 167H739.704V165.96C739.022 166.771 738.11 167.176 736.968 167.176C736.126 167.176 735.411 166.947 734.824 166.488C734.248 166.019 733.96 165.368 733.96 164.536C733.96 163.629 734.275 162.941 734.904 162.472C735.534 162.003 736.36 161.768 737.384 161.768C738.206 161.768 738.984 161.885 739.72 162.12V161.96C739.72 161.373 739.539 160.925 739.176 160.616C738.824 160.307 738.312 160.152 737.64 160.152C736.872 160.152 736.067 160.328 735.224 160.68L734.696 159.128C735.742 158.659 736.814 158.424 737.912 158.424C739.139 158.424 740.062 158.733 740.68 159.352C741.31 159.971 741.624 160.851 741.624 161.992V167ZM739.752 163.944V163.464C739.176 163.24 738.531 163.128 737.816 163.128C737.208 163.128 736.734 163.245 736.392 163.48C736.051 163.715 735.88 164.045 735.88 164.472C735.88 164.856 736.035 165.16 736.344 165.384C736.654 165.608 737.043 165.72 737.512 165.72C738.163 165.72 738.696 165.555 739.112 165.224C739.539 164.893 739.752 164.467 739.752 163.944ZM742.951 169.032V165.336H743.863C744.492 164.077 744.807 162.163 744.807 159.592V158.552H751.351V165.336H752.551L752.295 169.032H750.679V167H744.759L744.567 169.032H742.951ZM745.847 165.336H749.415V160.216H746.631V161.336C746.631 162.904 746.37 164.237 745.847 165.336Z" fill="#93939B"/>
<path d="M737 131L743.005 137L749 131" stroke="#0FAFEA" stroke-width="2" stroke-miterlimit="10"/>
<rect x="715" y="137" width="6" height="6" transform="rotate(-180 715 137)" fill="#33D35E"/>
<path d="M429 192V111H279" stroke="#33D35E" stroke-width="2" stroke-linejoin="round" stroke-dasharray="5 5"/>
<rect x="270" y="108" width="6" height="6" fill="#33D35E"/>
<path d="M84 117L90 110.995L84 105" stroke="#0FAFEA" stroke-width="2" stroke-miterlimit="10"/>
<path d="M743 130V100" stroke="#0FAFEA" stroke-width="2" stroke-linejoin="round" stroke-dasharray="5 5"/>
<path d="M712 98L712 128" stroke="#33D35E" stroke-width="2" stroke-linejoin="round" stroke-dasharray="5 5"/>
<rect x="740" y="91" width="6" height="6" fill="#0FAFEA"/>
<path d="M718 97L711.995 91L706 97" stroke="#33D35E" stroke-width="2" stroke-miterlimit="10"/>
<path d="M666 60C666 54.4772 670.477 50 676 50L779 50C784.523 50 789 54.4772 789 60V71C789 76.5228 784.523 81 779 81L676 81C670.477 81 666 76.5228 666 71V60Z" fill="#F7F8FC" fill-opacity="0.05"/>
<path d="M677.417 70V58.8H686.553V70H684.585V60.576H679.385V70H677.417ZM693.224 70.192C691.944 70.192 690.878 69.7653 690.024 68.912C689.171 68.0587 688.744 67.0187 688.744 65.792C688.744 64.5653 689.176 63.5253 690.04 62.672C690.904 61.808 691.976 61.376 693.256 61.376C694.536 61.376 695.603 61.8027 696.456 62.656C697.32 63.5093 697.752 64.5547 697.752 65.792C697.752 67.008 697.32 68.048 696.456 68.912C695.592 69.7653 694.515 70.192 693.224 70.192ZM693.256 68.512C694.024 68.512 694.643 68.2507 695.112 67.728C695.582 67.2053 695.816 66.56 695.816 65.792C695.816 65.0347 695.571 64.3947 695.08 63.872C694.59 63.3387 693.971 63.072 693.224 63.072C692.467 63.072 691.854 63.3333 691.384 63.856C690.915 64.3787 690.68 65.024 690.68 65.792C690.68 66.5387 690.926 67.1787 691.416 67.712C691.907 68.2453 692.52 68.512 693.256 68.512ZM703.628 70.192C702.38 70.192 701.34 69.7707 700.508 68.928C699.676 68.0747 699.26 67.04 699.26 65.824V65.792C699.26 64.576 699.676 63.536 700.508 62.672C701.35 61.808 702.396 61.376 703.644 61.376C705.009 61.376 706.134 61.8613 707.02 62.832L705.82 64.128C705.148 63.424 704.417 63.072 703.628 63.072C702.934 63.072 702.353 63.3333 701.884 63.856C701.425 64.3787 701.196 65.0133 701.196 65.76V65.792C701.196 66.56 701.43 67.2053 701.9 67.728C702.38 68.2507 702.988 68.512 703.724 68.512C704.502 68.512 705.233 68.16 705.916 67.456L707.084 68.608C706.625 69.12 706.124 69.5147 705.58 69.792C705.046 70.0587 704.396 70.192 703.628 70.192ZM710.594 70V63.216H707.874V61.552H715.266V63.216H712.546V70H710.594ZM723.89 70H721.97V68.96C721.287 69.7707 720.375 70.176 719.234 70.176C718.391 70.176 717.677 69.9467 717.09 69.488C716.514 69.0187 716.226 68.368 716.226 67.536C716.226 66.6293 716.541 65.9413 717.17 65.472C717.799 65.0027 718.626 64.768 719.65 64.768C720.471 64.768 721.25 64.8853 721.986 65.12V64.96C721.986 64.3733 721.805 63.9253 721.442 63.616C721.09 63.3067 720.578 63.152 719.906 63.152C719.138 63.152 718.333 63.328 717.49 63.68L716.962 62.128C718.007 61.6587 719.079 61.424 720.178 61.424C721.405 61.424 722.327 61.7333 722.946 62.352C723.575 62.9707 723.89 63.8507 723.89 64.992V70ZM722.018 66.944V66.464C721.442 66.24 720.797 66.128 720.082 66.128C719.474 66.128 718.999 66.2453 718.658 66.48C718.317 66.7147 718.146 67.0453 718.146 67.472C718.146 67.856 718.301 68.16 718.61 68.384C718.919 68.608 719.309 68.72 719.778 68.72C720.429 68.72 720.962 68.5547 721.378 68.224C721.805 67.8933 722.018 67.4667 722.018 66.944ZM726.193 70V61.552H730.529C731.371 61.552 732.043 61.744 732.545 62.128C733.057 62.5013 733.313 63.0133 733.313 63.664C733.313 64.5493 732.859 65.1947 731.953 65.6C733.115 65.9307 733.697 66.6347 733.697 67.712C733.697 68.4267 733.414 68.9867 732.849 69.392C732.294 69.7973 731.537 70 730.577 70H726.193ZM728.097 68.464H730.289C730.747 68.464 731.099 68.368 731.345 68.176C731.601 67.9733 731.729 67.7067 731.729 67.376C731.729 67.056 731.595 66.8053 731.329 66.624C731.073 66.4427 730.694 66.352 730.193 66.352H728.097V68.464ZM728.097 65.04H730.081C730.475 65.04 730.785 64.944 731.009 64.752C731.233 64.56 731.345 64.3093 731.345 64C731.345 63.712 731.243 63.4827 731.041 63.312C730.838 63.1307 730.529 63.04 730.113 63.04H728.097V65.04ZM747.006 72.032V70H735.63V61.552H737.566V68.336H740.686V61.552H742.606V68.336H745.726V61.552H747.662V68.336H748.862L748.622 72.032H747.006ZM750.474 70V61.552H752.362V67.216C754.132 64.6987 755.466 62.8107 756.362 61.552H758.186V70H756.314V64.368L752.298 70H750.474ZM760.614 70V61.552H762.534V65.6L766.214 61.552H768.486L765.206 65.104L768.758 70H766.47L763.91 66.512L762.534 67.968V70H760.614ZM770.099 70V61.552H771.987V67.216C773.757 64.6987 775.091 62.8107 775.987 61.552H777.811V70H775.939V64.368L771.923 70H770.099Z" fill="#93939B"/>
<g clip-path="url(#clip3_1_6781)">
<g filter="url(#filter2_b_1_6781)">
<path d="M100 60C100 54.4772 104.477 50 110 50H250C255.523 50 260 54.4772 260 60V180C260 185.523 255.523 190 250 190H110C104.477 190 100 185.523 100 180V60Z" fill="#1B1B1F" fill-opacity="0.3"/>
</g>
</g>
<path d="M101 60C101 55.0294 105.029 51 110 51H250C254.971 51 259 55.0294 259 60V180C259 184.971 254.971 189 250 189H110C105.029 189 101 184.971 101 180V60Z" stroke="#29292F" stroke-width="2"/>
<path d="M151.737 142V130.8H153.705V136.432L159.033 130.8H161.449L156.793 135.616L161.657 142H159.273L155.449 136.96L153.705 138.752V142H151.737ZM163.043 142.096C162.733 142.096 162.355 142.059 161.907 141.984L162.051 140.4C162.221 140.443 162.408 140.464 162.611 140.464C162.835 140.464 163.016 140.432 163.155 140.368C163.304 140.304 163.453 140.144 163.603 139.888C163.763 139.621 163.885 139.248 163.971 138.768C164.056 138.288 164.125 137.616 164.179 136.752C164.232 135.877 164.259 134.811 164.259 133.552H170.643V142H168.707V135.216H166.067C166.067 136.421 166.019 137.445 165.923 138.288C165.827 139.131 165.699 139.797 165.539 140.288C165.389 140.779 165.176 141.163 164.899 141.44C164.632 141.707 164.36 141.883 164.083 141.968C163.805 142.053 163.459 142.096 163.043 142.096ZM173.075 142V133.552H174.963V139.216C176.734 136.699 178.067 134.811 178.963 133.552H180.787V142H178.915V136.368L174.899 142H173.075ZM187.088 142.192C185.851 142.192 184.816 141.781 183.984 140.96C183.163 140.139 182.752 139.077 182.752 137.776C182.752 136.549 183.141 135.509 183.92 134.656C184.699 133.803 185.685 133.376 186.88 133.376C188.16 133.376 189.152 133.813 189.856 134.688C190.571 135.552 190.928 136.629 190.928 137.92C190.928 138.155 190.917 138.336 190.896 138.464H184.688C184.795 139.136 185.067 139.664 185.504 140.048C185.941 140.421 186.48 140.608 187.12 140.608C187.952 140.608 188.715 140.272 189.408 139.6L190.544 140.608C189.669 141.664 188.517 142.192 187.088 142.192ZM184.672 137.184H189.008C188.944 136.533 188.725 136 188.352 135.584C187.979 135.168 187.483 134.96 186.864 134.96C186.277 134.96 185.787 135.168 185.392 135.584C184.997 135.989 184.757 136.523 184.672 137.184ZM192.872 142V133.552H194.808V136.976H198.536V133.552H200.472V142H198.536V138.592H194.808V142H192.872ZM204.712 142V135.216H201.992V133.552H209.384V135.216H206.664V142H204.712Z" fill="#F7F8FC"/>
<path d="M183.5 112H189.2L190 111.291V108.127C189.688 107.851 187.667 106 187.2 106H184.8C184.333 106 182.812 107.723 182.5 108M182.6 115H171.4C170.854 114.539 170.546 114.279 170 113.818V108.545C170.546 108.085 174.083 105 174.9 105H179.1C179.917 105 183.454 108.085 184 108.545V113.818C183.454 114.279 183.146 114.539 182.6 115ZM181 99C181 101.209 179.209 103 177 103C174.791 103 173 101.209 173 99C173 96.7909 174.791 95 177 95C179.209 95 181 96.7909 181 99ZM188 102C188 103.105 187.105 104 186 104C184.895 104 184 103.105 184 102C184 100.895 184.895 100 186 100C187.105 100 188 100.895 188 102Z" stroke="#F7F8FC" stroke-width="1.5" stroke-miterlimit="10"/>
<defs>
<filter id="filter0_b_1_6781" x="246" y="390" width="200" height="143" filterUnits="userSpaceOnUse" color-interpolation-filters="sRGB">
<feFlood flood-opacity="0" result="BackgroundImageFix"/>
<feGaussianBlur in="BackgroundImageFix" stdDeviation="10"/>
<feComposite in2="SourceAlpha" operator="in" result="effect1_backgroundBlur_1_6781"/>
<feBlend mode="normal" in="SourceGraphic" in2="effect1_backgroundBlur_1_6781" result="shape"/>
</filter>
<filter id="filter1_b_1_6781" x="419" y="389" width="200" height="143" filterUnits="userSpaceOnUse" color-interpolation-filters="sRGB">
<feFlood flood-opacity="0" result="BackgroundImageFix"/>
<feGaussianBlur in="BackgroundImageFix" stdDeviation="10"/>
<feComposite in2="SourceAlpha" operator="in" result="effect1_backgroundBlur_1_6781"/>
<feBlend mode="normal" in="SourceGraphic" in2="effect1_backgroundBlur_1_6781" result="shape"/>
</filter>
<filter id="filter2_b_1_6781" x="80" y="30" width="200" height="180" filterUnits="userSpaceOnUse" color-interpolation-filters="sRGB">
<feFlood flood-opacity="0" result="BackgroundImageFix"/>
<feGaussianBlur in="BackgroundImageFix" stdDeviation="10"/>
<feComposite in2="SourceAlpha" operator="in" result="effect1_backgroundBlur_1_6781"/>
<feBlend mode="normal" in="SourceGraphic" in2="effect1_backgroundBlur_1_6781" result="shape"/>
</filter>
<clipPath id="clip0_1_6781">
<path d="M266 420C266 414.477 270.477 410 276 410H416C421.523 410 426 414.477 426 420V503C426 508.523 421.523 513 416 513H276C270.477 513 266 508.523 266 503V420Z" fill="white"/>
</clipPath>
<clipPath id="clip1_1_6781">
<path d="M439 419C439 413.477 443.477 409 449 409H589C594.523 409 599 413.477 599 419V502C599 507.523 594.523 512 589 512H449C443.477 512 439 507.523 439 502V419Z" fill="white"/>
</clipPath>
<clipPath id="clip2_1_6781">
<path d="M303 218C303 212.477 307.477 208 313 208L536 208C541.523 208 546 212.477 546 218V344C546 349.523 541.523 354 536 354H313C307.477 354 303 349.523 303 344V218Z" fill="white"/>
</clipPath>
<clipPath id="clip3_1_6781">
<path d="M100 60C100 54.4772 104.477 50 110 50H250C255.523 50 260 54.4772 260 60V180C260 185.523 255.523 190 250 190H110C104.477 190 100 185.523 100 180V60Z" fill="white"/>
</clipPath>
</defs>
</svg>
