<svg width="123" height="31" viewBox="0 0 123 31" fill="none" xmlns="http://www.w3.org/2000/svg">
<path d="M0 10C0 4.47715 4.47715 0 10 0L113 0C118.523 0 123 4.47715 123 10V21C123 26.5228 118.523 31 113 31L10 31C4.47715 31 0 26.5228 0 21L0 10Z" fill="#F7F8FC" fill-opacity="0.05"/>
<path d="M19.69 20.128C19.2313 20.128 18.778 20.0693 18.33 19.952L18.522 18.336C18.714 18.4 18.9273 18.432 19.162 18.432C19.418 18.432 19.6367 18.3947 19.818 18.32C20.01 18.2347 20.2073 18.0427 20.41 17.744C20.6233 17.4453 20.7887 17.04 20.906 16.528C21.034 16.0053 21.1407 15.28 21.226 14.352C21.3113 13.424 21.354 12.3093 21.354 11.008V8.8L29.034 8.8V20H27.066V10.576L23.194 10.576V11.584C23.194 13.3227 23.1193 14.768 22.97 15.92C22.8207 17.0613 22.586 17.936 22.266 18.544C21.946 19.1413 21.5833 19.5573 21.178 19.792C20.7833 20.016 20.2873 20.128 19.69 20.128ZM35.7164 20.192C34.4364 20.192 33.3697 19.7653 32.5164 18.912C31.663 18.0587 31.2364 17.0187 31.2364 15.792C31.2364 14.5653 31.6684 13.5253 32.5324 12.672C33.3964 11.808 34.4684 11.376 35.7484 11.376C37.0284 11.376 38.095 11.8027 38.9484 12.656C39.8124 13.5093 40.2444 14.5547 40.2444 15.792C40.2444 17.008 39.8124 18.048 38.9484 18.912C38.0844 19.7653 37.007 20.192 35.7164 20.192ZM35.7484 18.512C36.5164 18.512 37.135 18.2507 37.6044 17.728C38.0737 17.2053 38.3084 16.56 38.3084 15.792C38.3084 15.0347 38.063 14.3947 37.5724 13.872C37.0817 13.3387 36.463 13.072 35.7164 13.072C34.959 13.072 34.3457 13.3333 33.8764 13.856C33.407 14.3787 33.1724 15.024 33.1724 15.792C33.1724 16.5387 33.4177 17.1787 33.9084 17.712C34.399 18.2453 35.0124 18.512 35.7484 18.512ZM42.216 20V11.552H48.2V13.216L44.152 13.216V20H42.216ZM49.7316 20V11.552H51.6196V17.216C53.3903 14.6987 54.7236 12.8107 55.6196 11.552H57.4436V20H55.5716V14.368L51.5556 20H49.7316ZM63.7763 20.192C62.5283 20.192 61.4883 19.7707 60.6562 18.928C59.8243 18.0747 59.4083 17.04 59.4083 15.824V15.792C59.4083 14.576 59.8243 13.536 60.6562 12.672C61.4989 11.808 62.5443 11.376 63.7923 11.376C65.1576 11.376 66.2829 11.8613 67.1683 12.832L65.9683 14.128C65.2963 13.424 64.5656 13.072 63.7763 13.072C63.0829 13.072 62.5016 13.3333 62.0323 13.856C61.5736 14.3787 61.3443 15.0133 61.3443 15.76V15.792C61.3443 16.56 61.5789 17.2053 62.0483 17.728C62.5283 18.2507 63.1363 18.512 63.8723 18.512C64.6509 18.512 65.3816 18.16 66.0643 17.456L67.2323 18.608C66.7736 19.12 66.2723 19.5147 65.7283 19.792C65.1949 20.0587 64.5443 20.192 63.7763 20.192ZM70.7428 20V13.216H68.0228V11.552L75.4148 11.552V13.216H72.6948V20H70.7428ZM76.9504 20V11.552H78.8384V17.216C80.609 14.6987 81.9424 12.8107 82.8384 11.552H84.6624V20H82.7904V14.368L78.7744 20L76.9504 20ZM87.091 20V11.552H89.011V15.6L92.691 11.552H94.963L91.683 15.104L95.235 20H92.947L90.387 16.512L89.011 17.968V20H87.091ZM103.663 20H101.743V18.96C101.061 19.7707 100.149 20.176 99.0074 20.176C98.1647 20.176 97.45 19.9467 96.8634 19.488C96.2874 19.0187 95.9994 18.368 95.9994 17.536C95.9994 16.6293 96.314 15.9413 96.9434 15.472C97.5727 15.0027 98.3994 14.768 99.4234 14.768C100.245 14.768 101.023 14.8853 101.759 15.12V14.96C101.759 14.3733 101.578 13.9253 101.215 13.616C100.863 13.3067 100.351 13.152 99.6794 13.152C98.9114 13.152 98.106 13.328 97.2634 13.68L96.7354 12.128C97.7807 11.6587 98.8527 11.424 99.9514 11.424C101.178 11.424 102.101 11.7333 102.719 12.352C103.349 12.9707 103.663 13.8507 103.663 14.992V20ZM101.791 16.944V16.464C101.215 16.24 100.57 16.128 99.8554 16.128C99.2474 16.128 98.7727 16.2453 98.4314 16.48C98.09 16.7147 97.9194 17.0453 97.9194 17.472C97.9194 17.856 98.074 18.16 98.3834 18.384C98.6927 18.608 99.082 18.72 99.5514 18.72C100.202 18.72 100.735 18.5547 101.151 18.224C101.578 17.8933 101.791 17.4667 101.791 16.944Z" fill="#93939B"/>
</svg>
