<svg width="243" height="146" viewBox="0 0 243 146" fill="none" xmlns="http://www.w3.org/2000/svg">
<g clip-path="url(#clip0_1_6811)">
<path d="M0 10C0 4.47715 4.47715 0 10 0H233C238.523 0 243 4.47715 243 10V136C243 141.523 238.523 146 233 146H9.99999C4.47715 146 0 141.523 0 136V10Z" fill="#0E0E10"/>
<path d="M108.96 99.192C107.339 99.192 105.984 98.6373 104.896 97.528C103.808 96.408 103.264 95.032 103.264 93.4C103.264 91.7787 103.808 90.408 104.896 89.288C105.984 88.168 107.366 87.608 109.04 87.608C110.011 87.608 110.832 87.7573 111.504 88.056C112.187 88.3547 112.827 88.7867 113.424 89.352L112.16 90.808C111.158 89.88 110.112 89.416 109.024 89.416C107.958 89.416 107.072 89.8 106.368 90.568C105.675 91.336 105.328 92.28 105.328 93.4C105.328 94.5093 105.68 95.4533 106.384 96.232C107.088 97 107.968 97.384 109.024 97.384C109.664 97.384 110.23 97.2667 110.72 97.032C111.211 96.7867 111.718 96.4187 112.24 95.928L113.504 97.208C112.875 97.8693 112.208 98.3653 111.504 98.696C110.8 99.0267 109.952 99.192 108.96 99.192ZM122.437 99H120.517V97.96C119.834 98.7707 118.922 99.176 117.781 99.176C116.938 99.176 116.223 98.9467 115.637 98.488C115.061 98.0187 114.773 97.368 114.773 96.536C114.773 95.6293 115.087 94.9413 115.717 94.472C116.346 94.0027 117.173 93.768 118.197 93.768C119.018 93.768 119.797 93.8853 120.533 94.12V93.96C120.533 93.3733 120.351 92.9253 119.989 92.616C119.637 92.3067 119.125 92.152 118.453 92.152C117.685 92.152 116.879 92.328 116.037 92.68L115.509 91.128C116.554 90.6587 117.626 90.424 118.725 90.424C119.951 90.424 120.874 90.7333 121.493 91.352C122.122 91.9707 122.437 92.8507 122.437 93.992V99ZM120.565 95.944V95.464C119.989 95.24 119.343 95.128 118.629 95.128C118.021 95.128 117.546 95.2453 117.205 95.48C116.863 95.7147 116.693 96.0453 116.693 96.472C116.693 96.856 116.847 97.16 117.157 97.384C117.466 97.608 117.855 97.72 118.325 97.72C118.975 97.72 119.509 97.5547 119.925 97.224C120.351 96.8933 120.565 96.4667 120.565 95.944ZM130.275 88.984C129.838 89.3787 129.283 89.576 128.611 89.576C127.939 89.576 127.379 89.3787 126.931 88.984C126.483 88.5787 126.206 88.0347 126.099 87.352L127.283 87.128C127.507 87.8533 127.95 88.216 128.611 88.216C129.273 88.216 129.715 87.8533 129.939 87.128L131.107 87.352C131.001 88.0347 130.723 88.5787 130.275 88.984ZM124.739 99V90.552H126.627V96.216C128.398 93.6987 129.731 91.8107 130.627 90.552H132.451V99H130.579V93.368L126.563 99H124.739ZM136.688 99V92.216H133.968V90.552H141.36V92.216H138.64V99H136.688Z" fill="#F7F8FC"/>
<path d="M140.196 72H130.393C130.121 71.7397 129.968 71.5929 129.696 71.3327V52.6673C129.968 52.4071 130.121 52.2603 130.393 52H142C142.271 52.2603 142.424 52.4071 142.696 52.6673V59.3273M131.696 55H140.696M136.07 69V70.2681" stroke="#F7F8FC" stroke-width="1.5" stroke-miterlimit="10"/>
<path d="M145.696 69V70.27M148.896 72H142.496C142.184 71.7319 142.008 71.5806 141.696 71.3125V61.6875C142.008 61.4194 142.184 61.2681 142.496 61H148.896C149.208 61.2681 149.384 61.4194 149.696 61.6875V71.3125C149.384 71.5806 149.208 71.7319 148.896 72Z" stroke="#F7F8FC" stroke-width="1.5" stroke-miterlimit="10"/>
<path d="M114.656 61.4667H96.6068M98.696 64.5H100.059M101.443 64.5H102.826M104.211 64.5H105.595M106.979 64.5H108.362M109.746 64.5H111.13M100.059 65.9217H101.464M102.827 65.9217H104.231M105.594 65.9217H106.978M108.362 65.9217H109.725M111.13 65.9217H112.493M115.046 72H96.3456L95.696 71.3336L96.7357 62V52.6664L97.3852 52H114.007C114.26 52.2599 114.403 52.4065 114.656 52.6664V62L115.696 71.3336C115.443 71.5935 115.3 71.7401 115.046 72ZM102.848 68.7653H108.383V71.6086H102.848V68.7653Z" stroke="#F7F8FC" stroke-width="1.5" stroke-miterlimit="10"/>
</g>
<defs>
<clipPath >
<path d="M0 10C0 4.47715 4.47715 0 10 0L233 0C238.523 0 243 4.47715 243 10L243 136C243 141.523 238.523 146 233 146L9.99999 146C4.47715 146 0 141.523 0 136L0 10Z" fill="white"/>
</clipPath>
</defs>
</svg>
