<svg width="123" height="31" viewBox="0 0 123 31" fill="none" xmlns="http://www.w3.org/2000/svg">
<path d="M0 10C0 4.47715 4.47715 0 10 0L113 0C118.523 0 123 4.47715 123 10V21C123 26.5228 118.523 31 113 31L10 31C4.47715 31 0 26.5228 0 21L0 10Z" fill="#F7F8FC" fill-opacity="0.05"/>
<path d="M11.4166 20L11.4166 8.8L20.5526 8.8V20H18.5846V10.576L13.3846 10.576L13.3846 20H11.4166ZM27.2242 20.192C25.9442 20.192 24.8775 19.7653 24.0242 18.912C23.1709 18.0587 22.7442 17.0187 22.7442 15.792C22.7442 14.5653 23.1762 13.5253 24.0402 12.672C24.9042 11.808 25.9762 11.376 27.2562 11.376C28.5362 11.376 29.6029 11.8027 30.4562 12.656C31.3202 13.5093 31.7522 14.5547 31.7522 15.792C31.7522 17.008 31.3202 18.048 30.4562 18.912C29.5922 19.7653 28.5149 20.192 27.2242 20.192ZM27.2562 18.512C28.0242 18.512 28.6429 18.2507 29.1122 17.728C29.5815 17.2053 29.8162 16.56 29.8162 15.792C29.8162 15.0347 29.5709 14.3947 29.0802 13.872C28.5895 13.3387 27.9709 13.072 27.2242 13.072C26.4669 13.072 25.8535 13.3333 25.3842 13.856C24.9149 14.3787 24.6802 15.024 24.6802 15.792C24.6802 16.5387 24.9255 17.1787 25.4162 17.712C25.9069 18.2453 26.5202 18.512 27.2562 18.512ZM37.6278 20.192C36.3798 20.192 35.3398 19.7707 34.5078 18.928C33.6758 18.0747 33.2598 17.04 33.2598 15.824V15.792C33.2598 14.576 33.6758 13.536 34.5078 12.672C35.3505 11.808 36.3958 11.376 37.6438 11.376C39.0091 11.376 40.1345 11.8613 41.0198 12.832L39.8198 14.128C39.1478 13.424 38.4171 13.072 37.6278 13.072C36.9345 13.072 36.3531 13.3333 35.8838 13.856C35.4251 14.3787 35.1958 15.0133 35.1958 15.76V15.792C35.1958 16.56 35.4305 17.2053 35.8998 17.728C36.3798 18.2507 36.9878 18.512 37.7238 18.512C38.5025 18.512 39.2331 18.16 39.9158 17.456L41.0838 18.608C40.6251 19.12 40.1238 19.5147 39.5798 19.792C39.0465 20.0587 38.3958 20.192 37.6278 20.192ZM44.5943 20V13.216H41.8743V11.552L49.2663 11.552V13.216L46.5463 13.216V20H44.5943ZM57.8899 20H55.9699V18.96C55.2873 19.7707 54.3753 20.176 53.2339 20.176C52.3913 20.176 51.6766 19.9467 51.0899 19.488C50.5139 19.0187 50.2259 18.368 50.2259 17.536C50.2259 16.6293 50.5406 15.9413 51.1699 15.472C51.7993 15.0027 52.6259 14.768 53.6499 14.768C54.4713 14.768 55.2499 14.8853 55.9859 15.12V14.96C55.9859 14.3733 55.8046 13.9253 55.4419 13.616C55.0899 13.3067 54.5779 13.152 53.9059 13.152C53.1379 13.152 52.3326 13.328 51.4899 13.68L50.9619 12.128C52.0073 11.6587 53.0793 11.424 54.1779 11.424C55.4046 11.424 56.3273 11.7333 56.9459 12.352C57.5753 12.9707 57.8899 13.8507 57.8899 14.992V20ZM56.0179 16.944V16.464C55.4419 16.24 54.7966 16.128 54.0819 16.128C53.4739 16.128 52.9993 16.2453 52.6579 16.48C52.3166 16.7147 52.1459 17.0453 52.1459 17.472C52.1459 17.856 52.3006 18.16 52.6099 18.384C52.9193 18.608 53.3086 18.72 53.7779 18.72C54.4286 18.72 54.9619 18.5547 55.3779 18.224C55.8046 17.8933 56.0179 17.4667 56.0179 16.944ZM60.1926 20V11.552L64.5286 11.552C65.3712 11.552 66.0432 11.744 66.5446 12.128C67.0566 12.5013 67.3126 13.0133 67.3126 13.664C67.3126 14.5493 66.8592 15.1947 65.9526 15.6C67.1152 15.9307 67.6966 16.6347 67.6966 17.712C67.6966 18.4267 67.4139 18.9867 66.8486 19.392C66.2939 19.7973 65.5366 20 64.5766 20H60.1926ZM62.0966 18.464H64.2886C64.7472 18.464 65.0992 18.368 65.3446 18.176C65.6006 17.9733 65.7286 17.7067 65.7286 17.376C65.7286 17.056 65.5952 16.8053 65.3286 16.624C65.0726 16.4427 64.6939 16.352 64.1926 16.352H62.0966V18.464ZM62.0966 15.04H64.0806C64.4752 15.04 64.7846 14.944 65.0086 14.752C65.2326 14.56 65.3446 14.3093 65.3446 14C65.3446 13.712 65.2432 13.4827 65.0406 13.312C64.8379 13.1307 64.5286 13.04 64.1126 13.04H62.0966V15.04ZM81.0061 22.032V20L69.6301 20V11.552H71.5661V18.336H74.6861V11.552H76.6061V18.336H79.7261V11.552H81.6621V18.336H82.8621L82.6221 22.032H81.0061ZM84.4738 20V11.552H86.3618V17.216C88.1325 14.6987 89.4658 12.8107 90.3618 11.552H92.1858V20H90.3138V14.368L86.2978 20H84.4738ZM94.6144 20V11.552H96.5344V15.6L100.214 11.552H102.486L99.2064 15.104L102.758 20H100.47L97.9104 16.512L96.5344 17.968V20H94.6144ZM104.099 20V11.552H105.987V17.216C107.757 14.6987 109.091 12.8107 109.987 11.552L111.811 11.552V20H109.939V14.368L105.923 20H104.099Z" fill="#93939B"/>
</svg>
