<svg width="849" height="660" viewBox="0 0 849 660" fill="none" xmlns="http://www.w3.org/2000/svg">
<g filter="url(#filter0_d_150_2382)">
<path d="M515 233C515 227.477 519.477 223 525 223H675C680.523 223 685 227.477 685 233V429C685 434.523 680.523 439 675 439H525C519.477 439 515 434.523 515 429V233Z" stroke="#0E0E10" stroke-width="2"/>
<path d="M335 233C335 227.477 339.477 223 345 223H495C500.523 223 505 227.477 505 233V429C505 434.523 500.523 439 495 439H345C339.477 439 335 434.523 335 429V233Z" stroke="#0E0E10" stroke-width="2"/>
<path d="M367 68C367 62.4772 371.477 58 377 58H640C645.523 58 650 62.4772 650 68V102C650 107.523 645.523 112 640 112H377C371.477 112 367 107.523 367 102V68Z" stroke="#F7F8FC" stroke-opacity="0.05" stroke-width="2"/>
<path d="M500 374C500 379.523 495.523 384 490 384L350 384C344.477 384 340 379.523 340 374L340 346C340 340.477 344.477 336 350 336L490 336C495.523 336 500 340.477 500 346L500 374Z" fill="#0E0E10"/>
<path d="M364 369C359.029 369 355 364.971 355 360V360C355 355.029 359.029 351 364 351L476 351C480.971 351 485 355.029 485 360V360C485 364.971 480.971 369 476 369L364 369Z" fill="#1B1B1F"/>
<path d="M473 365L473 355" stroke="#0E0E10" stroke-width="2"/>
<path d="M413 365L413 355" stroke="#0E0E10" stroke-width="2"/>
<path d="M458 365L458 355" stroke="#0E0E10" stroke-width="2"/>
<path d="M398 365L398 355" stroke="#0E0E10" stroke-width="2"/>
<path d="M443 365L443 355" stroke="#0E0E10" stroke-width="2"/>
<path d="M383 365L383 355" stroke="#0E0E10" stroke-width="2"/>
<path d="M428 365L428 355" stroke="#0E0E10" stroke-width="2"/>
<path d="M368 365L368 355" stroke="#0E0E10" stroke-width="2"/>
<path d="M500 424C500 429.523 495.523 434 490 434L350 434C344.477 434 340 429.523 340 424L340 396C340 390.477 344.477 386 350 386L490 386C495.523 386 500 390.477 500 396L500 424Z" fill="#0E0E10"/>
<path d="M364 419C359.029 419 355 414.971 355 410V410C355 405.029 359.029 401 364 401L476 401C480.971 401 485 405.029 485 410V410C485 414.971 480.971 419 476 419L364 419Z" fill="#1B1B1F"/>
<path d="M473 415L473 405" stroke="#0E0E10" stroke-width="2"/>
<path d="M413 415L413 405" stroke="#0E0E10" stroke-width="2"/>
<path d="M458 415L458 405" stroke="#0E0E10" stroke-width="2"/>
<path d="M398 415L398 405" stroke="#0E0E10" stroke-width="2"/>
<path d="M443 415L443 405" stroke="#0E0E10" stroke-width="2"/>
<path d="M383 415L383 405" stroke="#0E0E10" stroke-width="2"/>
<path d="M428 415L428 405" stroke="#0E0E10" stroke-width="2"/>
<path d="M368 415L368 405" stroke="#0E0E10" stroke-width="2"/>
<path d="M340 238C340 232.477 344.477 228 350 228L490 228C495.523 228 500 232.477 500 238V249C500 254.523 495.523 259 490 259H350C344.477 259 340 254.523 340 249V238Z" fill="#F7F8FC" fill-opacity="0.05"/>
<path d="M399.674 248V236.8H401.498L407.498 244.544V236.8H409.434V248H407.786L401.61 240.032V248H399.674ZM416.107 248.192C414.827 248.192 413.76 247.765 412.907 246.912C412.054 246.059 411.627 245.019 411.627 243.792C411.627 242.565 412.059 241.525 412.923 240.672C413.787 239.808 414.859 239.376 416.139 239.376C417.419 239.376 418.486 239.803 419.339 240.656C420.203 241.509 420.635 242.555 420.635 243.792C420.635 245.008 420.203 246.048 419.339 246.912C418.475 247.765 417.398 248.192 416.107 248.192ZM416.139 246.512C416.907 246.512 417.526 246.251 417.995 245.728C418.464 245.205 418.699 244.56 418.699 243.792C418.699 243.035 418.454 242.395 417.963 241.872C417.472 241.339 416.854 241.072 416.107 241.072C415.35 241.072 414.736 241.333 414.267 241.856C413.798 242.379 413.563 243.024 413.563 243.792C413.563 244.539 413.808 245.179 414.299 245.712C414.79 246.245 415.403 246.512 416.139 246.512ZM426.095 248.176C425.039 248.176 424.121 247.781 423.343 246.992C422.564 246.192 422.175 245.115 422.175 243.76C422.175 242.416 422.559 241.349 423.327 240.56C424.105 239.771 425.028 239.376 426.095 239.376C427.247 239.376 428.207 239.872 428.975 240.864V236.32H430.911V248H428.975V246.592C428.228 247.648 427.268 248.176 426.095 248.176ZM424.831 245.744C425.311 246.245 425.887 246.496 426.559 246.496C427.231 246.496 427.807 246.24 428.287 245.728C428.767 245.216 429.007 244.56 429.007 243.76C429.007 242.971 428.767 242.325 428.287 241.824C427.807 241.312 427.231 241.056 426.559 241.056C425.876 241.056 425.3 241.307 424.831 241.808C424.361 242.299 424.127 242.96 424.127 243.792C424.127 244.592 424.361 245.243 424.831 245.744ZM437.197 248.192C435.96 248.192 434.925 247.781 434.093 246.96C433.272 246.139 432.861 245.077 432.861 243.776C432.861 242.549 433.251 241.509 434.029 240.656C434.808 239.803 435.795 239.376 436.989 239.376C438.269 239.376 439.261 239.813 439.965 240.688C440.68 241.552 441.037 242.629 441.037 243.92C441.037 244.155 441.027 244.336 441.005 244.464H434.797C434.904 245.136 435.176 245.664 435.613 246.048C436.051 246.421 436.589 246.608 437.229 246.608C438.061 246.608 438.824 246.272 439.517 245.6L440.653 246.608C439.779 247.664 438.627 248.192 437.197 248.192ZM434.781 243.184H439.117C439.053 242.533 438.835 242 438.461 241.584C438.088 241.168 437.592 240.96 436.973 240.96C436.387 240.96 435.896 241.168 435.501 241.584C435.107 241.989 434.867 242.523 434.781 243.184Z" fill="#93939B"/>
<path d="M340 271C340 265.477 344.477 261 350 261H490C495.523 261 500 265.477 500 271V282C500 287.523 495.523 292 490 292H350C344.477 292 340 287.523 340 282V271Z" fill="#F7F8FC" fill-opacity="0.05"/>
<path d="M402.237 281V269.8H404.061L410.061 277.544V269.8H411.997V281H410.349L404.173 273.032V281H402.237ZM417.566 281.176C416.627 281.176 415.891 280.883 415.358 280.296C414.824 279.709 414.558 278.92 414.558 277.928V272.552H416.494V277.352C416.494 278.013 416.648 278.525 416.958 278.888C417.278 279.24 417.726 279.416 418.302 279.416C418.867 279.416 419.326 279.229 419.678 278.856C420.03 278.483 420.206 277.971 420.206 277.32V272.552H422.142V281H420.206V279.688C419.534 280.68 418.654 281.176 417.566 281.176ZM423.839 281L426.943 276.712L423.951 272.552H426.063L428.015 275.336L429.967 272.552H432.031L429.039 276.664L432.159 281H430.047L427.967 278.04L425.903 281H423.839ZM436.689 281.144C435.067 281.144 434.257 280.317 434.257 278.664V274.216H433.185V272.552H434.257V270.232H436.193V272.552H438.465V274.216H436.193V278.36C436.193 279.064 436.539 279.416 437.233 279.416C437.649 279.416 438.049 279.32 438.433 279.128V280.712C437.921 281 437.339 281.144 436.689 281.144Z" fill="#93939B"/>
<path d="M460 494C460 488.477 464.477 484 470 484H551C556.523 484 561 488.477 561 494V538C561 543.523 556.523 548 551 548H470C464.477 548 460 543.523 460 538V494Z" fill="#F7F8FC" fill-opacity="0.05"/>
<path d="M496.777 520.5L501.705 509.22H503.529L508.457 520.5H506.377L505.241 517.796H499.945L498.793 520.5H496.777ZM500.665 516.052H504.521L502.585 511.572L500.665 516.052ZM510.378 520.5V509.3H514.794C516.095 509.3 517.13 509.641 517.898 510.324C518.666 511.007 519.05 511.924 519.05 513.076C519.05 514.281 518.623 515.22 517.77 515.892C516.927 516.564 515.86 516.9 514.57 516.9H512.346V520.5H510.378ZM512.346 515.124H514.634C515.37 515.124 515.956 514.937 516.394 514.564C516.831 514.191 517.05 513.7 517.05 513.092C517.05 512.452 516.831 511.961 516.394 511.62C515.967 511.268 515.38 511.092 514.634 511.092H512.346V515.124ZM521.177 520.5V509.3H523.145V520.5H521.177Z" fill="#93939B"/>
<path d="M151 454V585H511V563.5" stroke="#29292F" stroke-width="2" stroke-linejoin="round" stroke-dasharray="5 5"/>
<path d="M187 454V474H428V470.718" stroke="#29292F" stroke-width="2" stroke-linejoin="round" stroke-dasharray="5 5"/>
<path d="M704 494C704 488.477 708.477 484 714 484H795C800.523 484 805 488.477 805 494V538C805 543.523 800.523 548 795 548H714C708.477 548 704 543.523 704 538V494Z" fill="#F7F8FC" fill-opacity="0.05"/>
<path d="M727.362 520.5V509.3H729.458L732.866 514.596L736.274 509.3H738.37V520.5H736.402V512.468L732.866 517.748H732.802L729.298 512.5V520.5H727.362ZM742.757 523.108C742.053 523.108 741.386 522.937 740.757 522.596L741.413 521.156C741.807 521.369 742.186 521.476 742.549 521.476C742.826 521.476 743.055 521.401 743.237 521.252C743.418 521.113 743.589 520.863 743.749 520.5L740.229 512.052H742.293L744.693 518.324L746.885 512.052H748.901L745.541 520.74C745.199 521.604 744.821 522.212 744.405 522.564C743.989 522.927 743.439 523.108 742.757 523.108ZM754.704 520.66C752.922 520.66 751.365 520.063 750.032 518.868L751.216 517.46C752.336 518.431 753.514 518.916 754.752 518.916C755.36 518.916 755.84 518.788 756.192 518.532C756.554 518.265 756.736 517.913 756.736 517.476C756.736 517.06 756.565 516.729 756.224 516.484C755.882 516.228 755.21 515.983 754.208 515.748C752.906 515.439 751.957 515.049 751.36 514.58C750.773 514.1 750.48 513.369 750.48 512.388C750.48 511.428 750.837 510.649 751.552 510.052C752.266 509.444 753.184 509.14 754.304 509.14C755.84 509.14 757.194 509.609 758.368 510.548L757.312 512.036C756.277 511.268 755.264 510.884 754.272 510.884C753.706 510.884 753.258 511.012 752.928 511.268C752.608 511.524 752.448 511.849 752.448 512.244C752.448 512.681 752.624 513.023 752.976 513.268C753.338 513.503 754.048 513.748 755.104 514.004C756.341 514.303 757.248 514.703 757.824 515.204C758.41 515.705 758.704 516.409 758.704 517.316C758.704 518.351 758.336 519.167 757.6 519.764C756.864 520.361 755.898 520.66 754.704 520.66ZM771.114 520.836L769.77 519.636C768.778 520.34 767.642 520.692 766.362 520.692C764.666 520.692 763.269 520.132 762.17 519.012C761.071 517.892 760.522 516.521 760.522 514.9C760.522 513.3 761.077 511.935 762.186 510.804C763.295 509.673 764.698 509.108 766.394 509.108C768.09 509.108 769.487 509.668 770.586 510.788C771.685 511.908 772.234 513.279 772.234 514.9C772.234 516.191 771.855 517.337 771.098 518.34L772.378 519.428L771.114 520.836ZM766.394 518.884C767.109 518.884 767.749 518.703 768.314 518.34L766.394 516.708L767.658 515.268L769.594 517.028C769.978 516.441 770.17 515.732 770.17 514.9C770.17 513.791 769.807 512.852 769.082 512.084C768.367 511.305 767.461 510.916 766.362 510.916C765.263 510.916 764.357 511.3 763.642 512.068C762.938 512.836 762.586 513.78 762.586 514.9C762.586 516.009 762.943 516.953 763.658 517.732C764.383 518.5 765.295 518.884 766.394 518.884ZM774.612 520.5V509.3H776.58V518.708H782.468V520.5H774.612Z" fill="#93939B"/>
<path d="M520 238C520 232.477 524.477 228 530 228L670 228C675.523 228 680 232.477 680 238V249C680 254.523 675.523 259 670 259H530C524.477 259 520 254.523 520 249V238Z" fill="#F7F8FC" fill-opacity="0.05"/>
<path d="M579.26 248V236.8H584.252C585.554 236.8 586.572 237.125 587.308 237.776C588.044 238.416 588.412 239.28 588.412 240.368C588.412 241.253 588.172 241.984 587.692 242.56C587.212 243.125 586.562 243.525 585.74 243.76L588.764 248H586.444L583.66 244.096H581.228V248H579.26ZM581.228 242.352H584.108C584.812 242.352 585.372 242.181 585.788 241.84C586.204 241.499 586.412 241.035 586.412 240.448C586.412 239.851 586.21 239.392 585.804 239.072C585.399 238.752 584.828 238.592 584.092 238.592H581.228V242.352ZM594.315 248.192C593.077 248.192 592.043 247.781 591.211 246.96C590.389 246.139 589.979 245.077 589.979 243.776C589.979 242.549 590.368 241.509 591.147 240.656C591.925 239.803 592.912 239.376 594.107 239.376C595.387 239.376 596.379 239.813 597.083 240.688C597.797 241.552 598.155 242.629 598.155 243.92C598.155 244.155 598.144 244.336 598.123 244.464H591.915C592.021 245.136 592.293 245.664 592.731 246.048C593.168 246.421 593.707 246.608 594.347 246.608C595.179 246.608 595.941 246.272 596.635 245.6L597.771 246.608C596.896 247.664 595.744 248.192 594.315 248.192ZM591.899 243.184H596.235C596.171 242.533 595.952 242 595.579 241.584C595.205 241.168 594.709 240.96 594.091 240.96C593.504 240.96 593.013 241.168 592.619 241.584C592.224 241.989 591.984 242.523 591.899 243.184ZM603.587 248.176C602.531 248.176 601.613 247.781 600.835 246.992C600.056 246.192 599.667 245.115 599.667 243.76C599.667 242.416 600.051 241.349 600.819 240.56C601.597 239.771 602.52 239.376 603.587 239.376C604.739 239.376 605.699 239.872 606.467 240.864V236.32H608.403V248H606.467V246.592C605.72 247.648 604.76 248.176 603.587 248.176ZM602.323 245.744C602.803 246.245 603.379 246.496 604.051 246.496C604.723 246.496 605.299 246.24 605.779 245.728C606.259 245.216 606.499 244.56 606.499 243.76C606.499 242.971 606.259 242.325 605.779 241.824C605.299 241.312 604.723 241.056 604.051 241.056C603.368 241.056 602.792 241.307 602.323 241.808C601.853 242.299 601.619 242.96 601.619 243.792C601.619 244.592 601.853 245.243 602.323 245.744ZM610.85 238.256V236.416H612.93V238.256H610.85ZM610.93 248V239.552H612.866V248H610.93ZM618.292 248.16C616.969 248.16 615.774 247.739 614.708 246.896L615.572 245.584C616.489 246.277 617.412 246.624 618.34 246.624C618.756 246.624 619.076 246.544 619.3 246.384C619.534 246.213 619.652 245.979 619.652 245.68C619.652 245.531 619.609 245.403 619.524 245.296C619.449 245.179 619.31 245.072 619.108 244.976C618.905 244.88 618.734 244.811 618.596 244.768C618.457 244.725 618.228 244.656 617.908 244.56L617.764 244.512C617.465 244.427 617.209 244.347 616.996 244.272C616.793 244.187 616.564 244.075 616.308 243.936C616.052 243.797 615.844 243.648 615.684 243.488C615.524 243.317 615.39 243.104 615.284 242.848C615.177 242.592 615.124 242.304 615.124 241.984C615.124 241.205 615.406 240.581 615.972 240.112C616.548 239.643 617.268 239.408 618.132 239.408C619.23 239.408 620.265 239.728 621.236 240.368L620.468 241.744C619.593 241.211 618.798 240.944 618.084 240.944C617.71 240.944 617.417 241.024 617.204 241.184C617.001 241.344 616.9 241.557 616.9 241.824C616.9 242.005 616.99 242.171 617.172 242.32C617.364 242.469 617.55 242.581 617.732 242.656C617.924 242.72 618.228 242.821 618.644 242.96C618.665 242.971 618.692 242.981 618.724 242.992C618.756 243.003 618.782 243.008 618.804 243.008C619.177 243.125 619.492 243.243 619.748 243.36C620.004 243.467 620.27 243.616 620.548 243.808C620.836 244 621.054 244.24 621.204 244.528C621.353 244.805 621.428 245.131 621.428 245.504C621.428 246.357 621.134 247.013 620.548 247.472C619.961 247.931 619.209 248.16 618.292 248.16Z" fill="#93939B"/>
<path d="M520 271C520 265.477 524.477 261 530 261H670C675.523 261 680 265.477 680 271V282C680 287.523 675.523 292 670 292H530C524.477 292 520 287.523 520 282V271Z" fill="#F7F8FC" fill-opacity="0.05"/>
<path d="M572.518 281V269.8H574.486V279.208H580.374V281H572.518ZM589.288 281H587.368V279.96C586.686 280.771 585.774 281.176 584.632 281.176C583.79 281.176 583.075 280.947 582.488 280.488C581.912 280.019 581.624 279.368 581.624 278.536C581.624 277.629 581.939 276.941 582.568 276.472C583.198 276.003 584.024 275.768 585.048 275.768C585.87 275.768 586.648 275.885 587.384 276.12V275.96C587.384 275.373 587.203 274.925 586.84 274.616C586.488 274.307 585.976 274.152 585.304 274.152C584.536 274.152 583.731 274.328 582.888 274.68L582.36 273.128C583.406 272.659 584.478 272.424 585.576 272.424C586.803 272.424 587.726 272.733 588.344 273.352C588.974 273.971 589.288 274.851 589.288 275.992V281ZM587.416 277.944V277.464C586.84 277.24 586.195 277.128 585.48 277.128C584.872 277.128 584.398 277.245 584.056 277.48C583.715 277.715 583.544 278.045 583.544 278.472C583.544 278.856 583.699 279.16 584.008 279.384C584.318 279.608 584.707 279.72 585.176 279.72C585.827 279.72 586.36 279.555 586.776 279.224C587.203 278.893 587.416 278.467 587.416 277.944ZM591.591 281V272.552H593.527V274.456C594.124 273.016 595.122 272.328 596.519 272.392V274.44H596.407C595.532 274.44 594.834 274.728 594.311 275.304C593.788 275.869 593.527 276.696 593.527 277.784V281H591.591ZM604.882 281H602.962V279.96C602.279 280.771 601.367 281.176 600.226 281.176C599.383 281.176 598.669 280.947 598.082 280.488C597.506 280.019 597.218 279.368 597.218 278.536C597.218 277.629 597.533 276.941 598.162 276.472C598.791 276.003 599.618 275.768 600.642 275.768C601.463 275.768 602.242 275.885 602.978 276.12V275.96C602.978 275.373 602.797 274.925 602.434 274.616C602.082 274.307 601.57 274.152 600.898 274.152C600.13 274.152 599.325 274.328 598.482 274.68L597.954 273.128C598.999 272.659 600.071 272.424 601.17 272.424C602.397 272.424 603.319 272.733 603.938 273.352C604.567 273.971 604.882 274.851 604.882 275.992V281ZM603.01 277.944V277.464C602.434 277.24 601.789 277.128 601.074 277.128C600.466 277.128 599.991 277.245 599.65 277.48C599.309 277.715 599.138 278.045 599.138 278.472C599.138 278.856 599.293 279.16 599.602 279.384C599.911 279.608 600.301 279.72 600.77 279.72C601.421 279.72 601.954 279.555 602.37 279.224C602.797 278.893 603.01 278.467 603.01 277.944ZM609.544 281.064L606.072 272.552H608.152L610.424 278.76L612.712 272.552H614.744L611.288 281.064H609.544ZM619.776 281.192C618.538 281.192 617.504 280.781 616.672 279.96C615.85 279.139 615.44 278.077 615.44 276.776C615.44 275.549 615.829 274.509 616.608 273.656C617.386 272.803 618.373 272.376 619.568 272.376C620.848 272.376 621.84 272.813 622.544 273.688C623.258 274.552 623.616 275.629 623.616 276.92C623.616 277.155 623.605 277.336 623.584 277.464H617.376C617.482 278.136 617.754 278.664 618.192 279.048C618.629 279.421 619.168 279.608 619.808 279.608C620.64 279.608 621.402 279.272 622.096 278.6L623.232 279.608C622.357 280.664 621.205 281.192 619.776 281.192ZM617.36 276.184H621.696C621.632 275.533 621.413 275 621.04 274.584C620.666 274.168 620.17 273.96 619.552 273.96C618.965 273.96 618.474 274.168 618.08 274.584C617.685 274.989 617.445 275.523 617.36 276.184ZM625.672 281V269.32H627.608V281H625.672Z" fill="#93939B"/>
<path d="M680 374C680 379.523 675.523 384 670 384L530 384C524.477 384 520 379.523 520 374L520 346C520 340.477 524.477 336 530 336L670 336C675.523 336 680 340.477 680 346L680 374Z" fill="#0E0E10"/>
<path d="M544 369C539.029 369 535 364.971 535 360V360C535 355.029 539.029 351 544 351L656 351C660.971 351 665 355.029 665 360V360C665 364.971 660.971 369 656 369L544 369Z" fill="#1B1B1F"/>
<path d="M653 365L653 355" stroke="#0E0E10" stroke-width="2"/>
<path d="M593 365L593 355" stroke="#0E0E10" stroke-width="2"/>
<path d="M638 365L638 355" stroke="#0E0E10" stroke-width="2"/>
<path d="M578 365L578 355" stroke="#0E0E10" stroke-width="2"/>
<path d="M623 365L623 355" stroke="#0E0E10" stroke-width="2"/>
<path d="M563 365L563 355" stroke="#0E0E10" stroke-width="2"/>
<path d="M608 365L608 355" stroke="#0E0E10" stroke-width="2"/>
<path d="M548 365L548 355" stroke="#0E0E10" stroke-width="2"/>
<path d="M680 424C680 429.523 675.523 434 670 434L530 434C524.477 434 520 429.523 520 424L520 396C520 390.477 524.477 386 530 386L670 386C675.523 386 680 390.477 680 396L680 424Z" fill="#0E0E10"/>
<path d="M544 419C539.029 419 535 414.971 535 410V410C535 405.029 539.029 401 544 401L656 401C660.971 401 665 405.029 665 410V410C665 414.971 660.971 419 656 419L544 419Z" fill="#1B1B1F"/>
<path d="M653 415L653 405" stroke="#0E0E10" stroke-width="2"/>
<path d="M593 415L593 405" stroke="#0E0E10" stroke-width="2"/>
<path d="M638 415L638 405" stroke="#0E0E10" stroke-width="2"/>
<path d="M578 415L578 405" stroke="#0E0E10" stroke-width="2"/>
<path d="M623 415L623 405" stroke="#0E0E10" stroke-width="2"/>
<path d="M563 415L563 405" stroke="#0E0E10" stroke-width="2"/>
<path d="M608 415L608 405" stroke="#0E0E10" stroke-width="2"/>
<path d="M548 415L548 405" stroke="#0E0E10" stroke-width="2"/>
<path d="M20 232C20 226.477 24.4772 222 30 222H315C320.523 222 325 226.477 325 232V428C325 433.523 320.523 438 315 438H30C24.4772 438 20 433.523 20 428V232Z" fill="#0E0E10"/>
<path d="M39 233C40.1046 233 41 232.105 41 231C41 229.895 40.1046 229 39 229C37.8954 229 37 229.895 37 231C37 232.105 37.8954 233 39 233Z" fill="#F7F8FC" fill-opacity="0.15"/>
<path d="M46 233C47.1046 233 48 232.105 48 231C48 229.895 47.1046 229 46 229C44.8954 229 44 229.895 44 231C44 232.105 44.8954 233 46 233Z" fill="#F7F8FC" fill-opacity="0.15"/>
<path d="M32 233C33.1046 233 34 232.105 34 231C34 229.895 33.1046 229 32 229C30.8954 229 30 229.895 30 231C30 232.105 30.8954 233 32 233Z" fill="#F7F8FC" fill-opacity="0.15"/>
<path d="M84.7989 414.843H55V423.029H84.7989V414.843Z" fill="#0E0E10"/>
<path d="M56 254H34C31.7909 254 30 255.791 30 258C30 260.209 31.7909 262 34 262H56C58.2091 262 60 260.209 60 258C60 255.791 58.2091 254 56 254Z" fill="#1B1B1F"/>
<path d="M311 254H289C286.791 254 285 255.791 285 258C285 260.209 286.791 262 289 262H311C313.209 262 315 260.209 315 258C315 255.791 313.209 254 311 254Z" fill="#1B1B1F"/>
<path d="M276 254H265C262.791 254 261 255.791 261 258C261 260.209 262.791 262 265 262H276C278.209 262 280 260.209 280 258C280 255.791 278.209 254 276 254Z" fill="#1B1B1F"/>
<path d="M274 227H99C96.7909 227 95 228.791 95 231C95 233.209 96.7909 235 99 235H274C276.209 235 278 233.209 278 231C278 228.791 276.209 227 274 227Z" fill="#1B1B1F"/>
<path d="M67 228H61C59.3431 228 58 229.343 58 231C58 232.657 59.3431 234 61 234H67C68.6569 234 70 232.657 70 231C70 229.343 68.6569 228 67 228Z" fill="#1B1B1F"/>
<path d="M297 228H291C289.343 228 288 229.343 288 231C288 232.657 289.343 234 291 234H297C298.657 234 300 232.657 300 231C300 229.343 298.657 228 297 228Z" fill="#1B1B1F"/>
<path d="M82 228H76C74.3431 228 73 229.343 73 231C73 232.657 74.3431 234 76 234H82C83.6569 234 85 232.657 85 231C85 229.343 83.6569 228 82 228Z" fill="#1B1B1F"/>
<path d="M312 228H306C304.343 228 303 229.343 303 231C303 232.657 304.343 234 306 234H312C313.657 234 315 232.657 315 231C315 229.343 313.657 228 312 228Z" fill="#1B1B1F"/>
<path d="M81 240L81 247L82 247L82 240L81 240Z" fill="#1B1B1F"/>
<path d="M92 256H77C75.8954 256 75 256.895 75 258C75 259.105 75.8954 260 77 260H92C93.1046 260 94 259.105 94 258C94 256.895 93.1046 256 92 256Z" fill="#1B1B1F"/>
<path d="M86 410H64C61.7909 410 60 411.791 60 414C60 416.209 61.7909 418 64 418H86C88.2091 418 90 416.209 90 414C90 411.791 88.2091 410 86 410Z" fill="#1B1B1F"/>
<path d="M82 378H62C60.8954 378 60 378.895 60 380C60 381.105 60.8954 382 62 382H82C83.1046 382 84 381.105 84 380C84 378.895 83.1046 378 82 378Z" fill="#1B1B1F"/>
<path d="M105 378H91C89.8954 378 89 378.895 89 380C89 381.105 89.8954 382 91 382H105C106.105 382 107 381.105 107 380C107 378.895 106.105 378 105 378Z" fill="#1B1B1F"/>
<path d="M77 387H62C60.8954 387 60 387.895 60 389C60 390.105 60.8954 391 62 391H77C78.1046 391 79 390.105 79 389C79 387.895 78.1046 387 77 387Z" fill="#1B1B1F"/>
<path d="M95 387H86C84.8954 387 84 387.895 84 389C84 390.105 84.8954 391 86 391H95C96.1046 391 97 390.105 97 389C97 387.895 96.1046 387 95 387Z" fill="#1B1B1F"/>
<path d="M111 387H104C102.895 387 102 387.895 102 389C102 390.105 102.895 391 104 391H111C112.105 391 113 390.105 113 389C113 387.895 112.105 387 111 387Z" fill="#1B1B1F"/>
<path d="M73 396H62C60.8954 396 60 396.895 60 398C60 399.105 60.8954 400 62 400H73C74.1046 400 75 399.105 75 398C75 396.895 74.1046 396 73 396Z" fill="#1B1B1F"/>
<path d="M101 396H82C80.8954 396 80 396.895 80 398C80 399.105 80.8954 400 82 400H101C102.105 400 103 399.105 103 398C103 396.895 102.105 396 101 396Z" fill="#1B1B1F"/>
<path d="M118 396H110C108.895 396 108 396.895 108 398C108 399.105 108.895 400 110 400H118C119.105 400 120 399.105 120 398C120 396.895 119.105 396 118 396Z" fill="#1B1B1F"/>
<path d="M173 410H151C148.791 410 147 411.791 147 414C147 416.209 148.791 418 151 418H173C175.209 418 177 416.209 177 414C177 411.791 175.209 410 173 410Z" fill="#1B1B1F"/>
<path d="M158 378H149C147.895 378 147 378.895 147 380C147 381.105 147.895 382 149 382H158C159.105 382 160 381.105 160 380C160 378.895 159.105 378 158 378Z" fill="#1B1B1F"/>
<path d="M190 378H167C165.895 378 165 378.895 165 380C165 381.105 165.895 382 167 382H190C191.105 382 192 381.105 192 380C192 378.895 191.105 378 190 378Z" fill="#1B1B1F"/>
<path d="M207 378H199C197.895 378 197 378.895 197 380C197 381.105 197.895 382 199 382H207C208.105 382 209 381.105 209 380C209 378.895 208.105 378 207 378Z" fill="#1B1B1F"/>
<path d="M153 387H149C147.895 387 147 387.895 147 389C147 390.105 147.895 391 149 391H153C154.105 391 155 390.105 155 389C155 387.895 154.105 387 153 387Z" fill="#1B1B1F"/>
<path d="M171 387H162C160.895 387 160 387.895 160 389C160 390.105 160.895 391 162 391H171C172.105 391 173 390.105 173 389C173 387.895 172.105 387 171 387Z" fill="#1B1B1F"/>
<path d="M174 396H149C147.895 396 147 396.895 147 398C147 399.105 147.895 400 149 400H174C175.105 400 176 399.105 176 398C176 396.895 175.105 396 174 396Z" fill="#1B1B1F"/>
<path d="M192 396H183C181.895 396 181 396.895 181 398C181 399.105 181.895 400 183 400H192C193.105 400 194 399.105 194 398C194 396.895 193.105 396 192 396Z" fill="#1B1B1F"/>
<path d="M204 396H201C199.895 396 199 396.895 199 398C199 399.105 199.895 400 201 400H204C205.105 400 206 399.105 206 398C206 396.895 205.105 396 204 396Z" fill="#1B1B1F"/>
<path d="M260 410H238C235.791 410 234 411.791 234 414C234 416.209 235.791 418 238 418H260C262.209 418 264 416.209 264 414C264 411.791 262.209 410 260 410Z" fill="#1B1B1F"/>
<path d="M277 378H236C234.895 378 234 378.895 234 380C234 381.105 234.895 382 236 382H277C278.105 382 279 381.105 279 380C279 378.895 278.105 378 277 378Z" fill="#1B1B1F"/>
<path d="M271 387H236C234.895 387 234 387.895 234 389C234 390.105 234.895 391 236 391H271C272.105 391 273 390.105 273 389C273 387.895 272.105 387 271 387Z" fill="#1B1B1F"/>
<path d="M289 387H280C278.895 387 278 387.895 278 389C278 390.105 278.895 391 280 391H289C290.105 391 291 390.105 291 389C291 387.895 290.105 387 289 387Z" fill="#1B1B1F"/>
<path d="M249 396H236C234.895 396 234 396.895 234 398C234 399.105 234.895 400 236 400H249C250.105 400 251 399.105 251 398C251 396.895 250.105 396 249 396Z" fill="#1B1B1F"/>
<path d="M273 396H258C256.895 396 256 396.895 256 398C256 399.105 256.895 400 258 400H273C274.105 400 275 399.105 275 398C275 396.895 274.105 396 273 396Z" fill="#1B1B1F"/>
<path d="M294 396H282C280.895 396 280 396.895 280 398C280 399.105 280.895 400 282 400H294C295.105 400 296 399.105 296 398C296 396.895 295.105 396 294 396Z" fill="#1B1B1F"/>
<path d="M131 256H106C104.895 256 104 256.895 104 258C104 259.105 104.895 260 106 260H131C132.105 260 133 259.105 133 258C133 256.895 132.105 256 131 256Z" fill="#1B1B1F"/>
<path d="M158 256H145C143.895 256 143 256.895 143 258C143 259.105 143.895 260 145 260H158C159.105 260 160 259.105 160 258C160 256.895 159.105 256 158 256Z" fill="#1B1B1F"/>
<path d="M185 256H172C170.895 256 170 256.895 170 258C170 259.105 170.895 260 172 260H185C186.105 260 187 259.105 187 258C187 256.895 186.105 256 185 256Z" fill="#1B1B1F"/>
<path d="M220 256H199C197.895 256 197 256.895 197 258C197 259.105 197.895 260 199 260H220C221.105 260 222 259.105 222 258C222 256.895 221.105 256 220 256Z" fill="#1B1B1F"/>
<path d="M142 240L142 247L143 247L143 240L142 240Z" fill="#1B1B1F"/>
<path d="M202 240L202 247L203 247L203 240L202 240Z" fill="#1B1B1F"/>
<path d="M263 240L263 247L264 247L264 240L263 240Z" fill="#1B1B1F"/>
<path d="M325 240H20V241H325V240Z" fill="#1B1B1F"/>
<path d="M325 246H20V247H325V246Z" fill="#1B1B1F"/>
<path d="M305 272H40C34.4772 272 30 276.477 30 282V358C30 363.523 34.4771 368 40 368H305C310.523 368 315 363.523 315 358V282C315 276.477 310.523 272 305 272Z" fill="#1B1B1F"/>
<path d="M172 202V85H352" stroke="#29292F" stroke-width="2" stroke-linejoin="round" stroke-dasharray="5 5"/>
<path d="M754 469V260H704" stroke="#29292F" stroke-width="2" stroke-linejoin="round" stroke-dasharray="5 5"/>
<rect x="532" y="449" width="6" height="6" fill="#29292F"/>
<rect x="482" y="449" width="6" height="6" fill="#29292F"/>
<rect x="425" y="449" width="6" height="6" fill="#29292F"/>
<rect x="695" y="257" width="6" height="6" fill="#29292F"/>
<path d="M351 91L357 84.9947L351 79" stroke="#29292F" stroke-width="2" stroke-miterlimit="10"/>
<path d="M413 207L419.005 213L425 207" stroke="#29292F" stroke-width="2" stroke-miterlimit="10"/>
<path d="M479 468L485.005 474L491 468" stroke="#29292F" stroke-width="2" stroke-miterlimit="10"/>
<path d="M529 468L535.005 474L541 468" stroke="#29292F" stroke-width="2" stroke-miterlimit="10"/>
<path d="M748 468L754.005 474L760 468" stroke="#29292F" stroke-width="2" stroke-miterlimit="10"/>
<path d="M145 454L151.005 448L157 454" stroke="#29292F" stroke-width="2" stroke-miterlimit="10"/>
<path d="M181 454L187.005 448L193 454" stroke="#29292F" stroke-width="2" stroke-miterlimit="10"/>
<path d="M505 564L511.005 558L517 564" stroke="#29292F" stroke-width="2" stroke-miterlimit="10"/>
<path d="M594 207L600.005 213L606 207" stroke="#29292F" stroke-width="2" stroke-miterlimit="10"/>
<path d="M419 207L419 122" stroke="#29292F" stroke-width="2" stroke-linejoin="round" stroke-dasharray="5 5"/>
<path d="M485 469L485 449" stroke="#29292F" stroke-width="2" stroke-linejoin="round" stroke-dasharray="5 5"/>
<path d="M535 469L535 449" stroke="#29292F" stroke-width="2" stroke-linejoin="round" stroke-dasharray="5 5"/>
<path d="M600 207L600 122" stroke="#29292F" stroke-width="2" stroke-linejoin="round" stroke-dasharray="5 5"/>
<path d="M367 158C367 152.477 371.477 148 377 148L461 148C466.523 148 471 152.477 471 158V169C471 174.523 466.523 179 461 179H377C371.477 179 367 174.523 367 169V158Z" fill="#0E0E10"/>
<path d="M383.495 168V156.8H391.831V158.592H385.463V161.648H391.111V163.44H385.463V168H383.495ZM393.771 168V159.552H395.707V161.456C396.304 160.016 397.301 159.328 398.699 159.392V161.44H398.587C397.712 161.44 397.013 161.728 396.491 162.304C395.968 162.869 395.707 163.696 395.707 164.784V168H393.771ZM404.115 168.192C402.835 168.192 401.768 167.765 400.915 166.912C400.061 166.059 399.635 165.019 399.635 163.792C399.635 162.565 400.067 161.525 400.931 160.672C401.795 159.808 402.867 159.376 404.147 159.376C405.427 159.376 406.493 159.803 407.347 160.656C408.211 161.509 408.643 162.555 408.643 163.792C408.643 165.008 408.211 166.048 407.347 166.912C406.483 167.765 405.405 168.192 404.115 168.192ZM404.147 166.512C404.915 166.512 405.533 166.251 406.003 165.728C406.472 165.205 406.707 164.56 406.707 163.792C406.707 163.035 406.461 162.395 405.971 161.872C405.48 161.339 404.861 161.072 404.115 161.072C403.357 161.072 402.744 161.333 402.275 161.856C401.805 162.379 401.571 163.024 401.571 163.792C401.571 164.539 401.816 165.179 402.307 165.712C402.797 166.245 403.411 166.512 404.147 166.512ZM410.614 168V159.552H412.55V160.864C413.222 159.872 414.102 159.376 415.19 159.376C416.129 159.376 416.865 159.669 417.398 160.256C417.932 160.843 418.198 161.632 418.198 162.624V168H416.262V163.2C416.262 162.539 416.102 162.032 415.782 161.68C415.473 161.317 415.03 161.136 414.454 161.136C413.889 161.136 413.43 161.323 413.078 161.696C412.726 162.069 412.55 162.581 412.55 163.232V168H410.614ZM423.368 168.144C421.747 168.144 420.936 167.317 420.936 165.664V161.216H419.864V159.552H420.936V157.232H422.872V159.552H425.144V161.216H422.872V165.36C422.872 166.064 423.219 166.416 423.912 166.416C424.328 166.416 424.728 166.32 425.112 166.128V167.712C424.6 168 424.019 168.144 423.368 168.144ZM430.736 168.192C429.499 168.192 428.464 167.781 427.632 166.96C426.811 166.139 426.4 165.077 426.4 163.776C426.4 162.549 426.79 161.509 427.568 160.656C428.347 159.803 429.334 159.376 430.528 159.376C431.808 159.376 432.8 159.813 433.504 160.688C434.219 161.552 434.576 162.629 434.576 163.92C434.576 164.155 434.566 164.336 434.544 164.464H428.336C428.443 165.136 428.715 165.664 429.152 166.048C429.59 166.421 430.128 166.608 430.768 166.608C431.6 166.608 432.363 166.272 433.056 165.6L434.192 166.608C433.318 167.664 432.166 168.192 430.736 168.192ZM428.32 163.184H432.656C432.592 162.533 432.374 162 432 161.584C431.627 161.168 431.131 160.96 430.512 160.96C429.926 160.96 429.435 161.168 429.04 161.584C428.646 161.989 428.406 162.523 428.32 163.184ZM436.521 168V159.552H438.457V160.864C439.129 159.872 440.009 159.376 441.097 159.376C442.035 159.376 442.771 159.669 443.305 160.256C443.838 160.843 444.105 161.632 444.105 162.624V168H442.169V163.2C442.169 162.539 442.009 162.032 441.689 161.68C441.379 161.317 440.937 161.136 440.361 161.136C439.795 161.136 439.337 161.323 438.985 161.696C438.633 162.069 438.457 162.581 438.457 163.232V168H436.521ZM449.931 168.176C448.875 168.176 447.957 167.781 447.179 166.992C446.4 166.192 446.011 165.115 446.011 163.76C446.011 162.416 446.395 161.349 447.163 160.56C447.941 159.771 448.864 159.376 449.931 159.376C451.083 159.376 452.043 159.872 452.811 160.864V156.32H454.747V168H452.811V166.592C452.064 167.648 451.104 168.176 449.931 168.176ZM448.667 165.744C449.147 166.245 449.723 166.496 450.395 166.496C451.067 166.496 451.643 166.24 452.123 165.728C452.603 165.216 452.843 164.56 452.843 163.76C452.843 162.971 452.603 162.325 452.123 161.824C451.643 161.312 451.067 161.056 450.395 161.056C449.712 161.056 449.136 161.307 448.667 161.808C448.197 162.299 447.963 162.96 447.963 163.792C447.963 164.592 448.197 165.243 448.667 165.744Z" fill="#F7F8FC"/>
<path d="M550 158C550 152.477 554.477 148 560 148L640 148C645.523 148 650 152.477 650 158V169C650 174.523 645.523 179 640 179H560C554.477 179 550 174.523 550 169V158Z" fill="#0E0E10"/>
<path d="M566.799 168V156.8H571.823C573.114 156.8 574.09 157.131 574.751 157.792C575.253 158.293 575.503 158.923 575.503 159.68C575.503 160.789 574.97 161.621 573.903 162.176C575.386 162.677 576.127 163.595 576.127 164.928C576.127 165.909 575.754 166.667 575.007 167.2C574.261 167.733 573.253 168 571.983 168H566.799ZM568.735 161.52H571.423C572.074 161.52 572.586 161.392 572.959 161.136C573.343 160.869 573.535 160.48 573.535 159.968C573.535 159.52 573.365 159.173 573.023 158.928C572.682 158.672 572.197 158.544 571.567 158.544H568.735V161.52ZM568.735 166.256H571.999C572.682 166.256 573.21 166.123 573.583 165.856C573.967 165.589 574.159 165.2 574.159 164.688C574.159 163.685 573.391 163.184 571.855 163.184H568.735V166.256ZM585.21 168H583.29V166.96C582.608 167.771 581.696 168.176 580.554 168.176C579.712 168.176 578.997 167.947 578.41 167.488C577.834 167.019 577.546 166.368 577.546 165.536C577.546 164.629 577.861 163.941 578.49 163.472C579.12 163.003 579.946 162.768 580.97 162.768C581.792 162.768 582.57 162.885 583.306 163.12V162.96C583.306 162.373 583.125 161.925 582.762 161.616C582.41 161.307 581.898 161.152 581.226 161.152C580.458 161.152 579.653 161.328 578.81 161.68L578.282 160.128C579.328 159.659 580.4 159.424 581.498 159.424C582.725 159.424 583.648 159.733 584.266 160.352C584.896 160.971 585.21 161.851 585.21 162.992V168ZM583.338 164.944V164.464C582.762 164.24 582.117 164.128 581.402 164.128C580.794 164.128 580.32 164.245 579.978 164.48C579.637 164.715 579.466 165.045 579.466 165.472C579.466 165.856 579.621 166.16 579.93 166.384C580.24 166.608 580.629 166.72 581.098 166.72C581.749 166.72 582.282 166.555 582.698 166.224C583.125 165.893 583.338 165.467 583.338 164.944ZM591.417 168.192C590.169 168.192 589.129 167.765 588.297 166.912C587.465 166.059 587.049 165.019 587.049 163.792C587.049 162.576 587.465 161.536 588.297 160.672C589.14 159.808 590.185 159.376 591.433 159.376C592.798 159.376 593.924 159.861 594.809 160.832L593.609 162.128C592.937 161.424 592.206 161.072 591.417 161.072C590.724 161.072 590.142 161.339 589.673 161.872C589.214 162.395 588.985 163.035 588.985 163.792C588.985 164.56 589.22 165.205 589.689 165.728C590.169 166.251 590.777 166.512 591.513 166.512C592.292 166.512 593.022 166.16 593.705 165.456L594.873 166.608C594.414 167.12 593.913 167.515 593.369 167.792C592.836 168.059 592.185 168.192 591.417 168.192ZM596.654 168V156.32H598.59V163.296L602.094 159.552H604.446L601.086 162.992L604.558 168H602.318L599.774 164.352L598.59 165.584V168H596.654ZM609.432 168.192C608.194 168.192 607.16 167.781 606.328 166.96C605.506 166.139 605.096 165.077 605.096 163.776C605.096 162.549 605.485 161.509 606.264 160.656C607.042 159.803 608.029 159.376 609.224 159.376C610.504 159.376 611.496 159.813 612.2 160.688C612.914 161.552 613.272 162.629 613.272 163.92C613.272 164.155 613.261 164.336 613.24 164.464H607.032C607.138 165.136 607.41 165.664 607.848 166.048C608.285 166.421 608.824 166.608 609.464 166.608C610.296 166.608 611.058 166.272 611.752 165.6L612.888 166.608C612.013 167.664 610.861 168.192 609.432 168.192ZM607.016 163.184H611.352C611.288 162.533 611.069 162 610.696 161.584C610.322 161.168 609.826 160.96 609.208 160.96C608.621 160.96 608.13 161.168 607.736 161.584C607.341 161.989 607.101 162.523 607.016 163.184ZM615.216 168V159.552H617.152V160.864C617.824 159.872 618.704 159.376 619.792 159.376C620.731 159.376 621.467 159.669 622 160.256C622.533 160.843 622.8 161.632 622.8 162.624V168H620.864V163.2C620.864 162.539 620.704 162.032 620.384 161.68C620.075 161.317 619.632 161.136 619.056 161.136C618.491 161.136 618.032 161.323 617.68 161.696C617.328 162.069 617.152 162.581 617.152 163.232V168H615.216ZM628.626 168.176C627.57 168.176 626.653 167.781 625.874 166.992C625.095 166.192 624.706 165.115 624.706 163.76C624.706 162.416 625.09 161.349 625.858 160.56C626.637 159.771 627.559 159.376 628.626 159.376C629.778 159.376 630.738 159.872 631.506 160.864V156.32H633.442V168H631.506V166.592C630.759 167.648 629.799 168.176 628.626 168.176ZM627.362 165.744C627.842 166.245 628.418 166.496 629.09 166.496C629.762 166.496 630.338 166.24 630.818 165.728C631.298 165.216 631.538 164.56 631.538 163.76C631.538 162.971 631.298 162.325 630.818 161.824C630.338 161.312 629.762 161.056 629.09 161.056C628.407 161.056 627.831 161.307 627.362 161.808C626.893 162.299 626.658 162.96 626.658 163.792C626.658 164.592 626.893 165.243 627.362 165.744Z" fill="#F7F8FC"/>
<path d="M506.519 76.6808C506.679 75.7877 507.284 75.0834 508.195 75.0135C508.502 74.9903 508.842 74.9833 509.127 75.1087C509.479 75.2633 509.748 75.4812 509.933 75.7624C510.223 76.2014 510.309 76.5716 510.334 77.1053C510.388 78.2399 510.399 79.1515 510.367 79.8402C510.332 80.5891 510.333 81.3645 510.371 82.1661C510.377 82.2996 510.361 82.4298 510.324 82.5567C510.318 82.5754 510.308 82.5921 510.293 82.605C510.279 82.6178 510.261 82.6263 510.242 82.6294C510.145 82.6444 510.051 82.6523 509.961 82.6531C508.847 82.6602 507.801 82.6611 506.822 82.6557C506.72 82.655 506.623 82.641 506.53 82.6138C506.52 82.6107 506.511 82.6056 506.503 82.5987C506.495 82.5919 506.489 82.5834 506.485 82.574C506.451 82.4965 506.433 82.4172 506.433 82.3361C506.431 80.7708 506.431 79.1773 506.435 77.5557C506.436 77.2827 506.464 76.9911 506.519 76.6808Z" fill="#0D974D"/>
<path d="M548.129 85.1237C548.125 85.1384 548.128 85.151 548.138 85.1614C549.822 86.8681 551.451 88.5127 553.026 90.0952C553.595 90.6671 554.073 91.3461 554.261 92.1155C554.335 92.415 554.352 92.7651 554.313 93.1658C554.218 94.1595 553.362 94.9295 552.403 94.9876C551.023 95.0715 550.045 94.2499 549.135 93.3277C547.728 91.9027 546.263 90.4232 544.738 88.8895C544.657 88.8077 544.549 88.7254 544.442 88.8324C542.861 90.4218 541.271 92.0269 539.67 93.6479C539.095 94.2311 538.398 94.7207 537.608 94.9203C537.051 95.0618 536.33 95.0285 535.828 94.7105C535.136 94.2711 534.791 93.6226 534.793 92.765C534.793 92.6229 534.809 92.4619 534.841 92.2818C534.945 91.6926 535.217 91.1578 535.6 90.6854C535.88 90.34 536.191 89.9946 536.534 89.6492C538.011 88.162 539.488 86.6735 540.965 85.1835C540.978 85.1701 540.986 85.1522 540.986 85.1335C540.986 85.1148 540.979 85.097 540.966 85.0839C539.481 83.5792 538.002 82.0885 536.53 80.6118C536.275 80.3564 536.034 80.1033 535.805 79.8526C535.173 79.1585 534.733 78.2336 534.797 77.2797C534.837 76.6728 535.126 76.0589 535.634 75.6962C536.064 75.3892 536.546 75.2513 537.08 75.2825C538.278 75.3524 539.124 76.0686 539.933 76.888C541.913 78.8931 543.415 80.408 544.44 81.4328C544.552 81.5447 544.725 81.4387 544.832 81.3311C546.402 79.7522 547.971 78.1687 549.538 76.5808C550.083 76.0277 550.68 75.6048 551.425 75.3869C551.905 75.247 552.425 75.2271 552.902 75.3863C553.711 75.6564 554.243 76.3537 554.317 77.2167C554.437 78.6011 553.706 79.4894 552.812 80.3885C551.261 81.9473 549.711 83.5078 548.163 85.0699C548.146 85.0875 548.135 85.1054 548.129 85.1237Z" fill="#0D974D"/>
<path d="M476.242 88.7011C476.284 88.765 476.305 88.7587 476.305 88.6823C476.303 85.0086 476.304 81.2419 476.306 77.3824C476.306 77.1962 476.333 76.9904 476.389 76.7647C476.707 75.4632 477.88 75.1372 479.057 75.3406C479.98 75.5002 480.516 76.03 480.664 76.9299C480.72 77.2678 480.732 77.6272 480.732 77.9743C480.73 82.6491 480.728 87.2683 480.729 91.8319C480.729 92.1157 480.712 92.4428 480.678 92.8133C480.635 93.2782 480.524 93.7 480.229 94.0589C479.863 94.5051 479.403 94.7666 478.848 94.8433C478.395 94.9065 477.934 94.9009 477.465 94.8267C476.473 94.6701 475.669 94.1245 475.034 93.3589C474.011 92.1254 473.08 90.9987 472.243 89.9789C469.439 86.5671 467.235 83.8638 465.628 81.8691C465.572 81.7995 465.513 81.7461 465.45 81.7088C465.434 81.6994 465.426 81.7041 465.426 81.7228C465.425 85.3219 465.425 88.9292 465.428 92.5448C465.428 93.4832 465.21 94.259 464.291 94.6669C463.889 94.8448 463.407 94.9144 462.844 94.8756C462.539 94.8545 462.266 94.7748 462.022 94.6367C461.472 94.3247 461.001 93.7657 461.001 93.0936C461 87.7692 461 82.678 461 77.8198C461 77.7115 461.005 77.6023 461.015 77.4922C461.027 77.3507 461.033 77.1925 461.06 77.0639C461.155 76.6091 461.392 76.2443 461.769 75.9695C462.501 75.4369 463.402 75.1748 464.284 75.3363C465.176 75.4998 465.872 75.9905 466.433 76.6926C467.517 78.0478 468.712 79.5224 470.018 81.1164C471.356 82.7509 472.694 84.3789 474.032 86.0002C474.637 86.7326 475.225 87.4507 475.796 88.1545C475.913 88.2981 476.118 88.5112 476.242 88.7011Z" fill="#0D974D"/>
<path d="M517.616 88.6241C517.732 88.5047 517.828 88.3653 517.937 88.2362C522.083 83.2949 525.236 79.5178 527.395 76.9051C527.989 76.1858 528.606 75.6144 529.536 75.4465C530.509 75.2711 531.387 75.4915 532.168 76.1078C532.553 76.4107 532.778 76.7609 532.86 77.2522C532.909 77.5409 532.933 77.8315 532.933 78.1238C532.936 82.8815 532.936 87.5224 532.933 92.0466C532.933 92.3716 532.91 92.7274 532.865 93.1141C532.803 93.6309 532.565 94.0321 532.15 94.3176C531.808 94.5528 531.416 94.6437 531.001 94.6916C530.622 94.7353 530.239 94.7022 529.852 94.592C529.119 94.3844 528.507 93.6822 528.508 92.8918C528.509 88.7091 528.509 85.0186 528.509 81.8201C528.509 81.7796 528.504 81.7399 528.493 81.7012C528.486 81.6757 528.471 81.6592 528.446 81.6517C528.427 81.6456 528.411 81.6504 528.398 81.6662C527.804 82.4037 527.185 83.1622 526.542 83.9416C523.047 88.1788 520.564 91.1818 519.092 92.9505C518.526 93.6306 517.834 94.2762 516.964 94.5517C516.269 94.7718 515.572 94.7562 514.826 94.5851C514.421 94.4922 514.104 94.3404 513.876 94.1299C513.512 93.7941 513.31 93.3773 513.269 92.8795C513.234 92.4404 513.258 91.9298 513.258 91.4682C513.259 86.6284 513.259 81.9247 513.256 77.3571C513.256 76.4844 513.719 75.7263 514.574 75.4949C515.669 75.199 517.126 75.4675 517.481 76.7502C517.545 76.9808 517.577 77.2306 517.577 77.4997C517.578 81.1734 517.578 84.876 517.576 88.6075C517.576 88.6121 517.578 88.6167 517.58 88.6205C517.583 88.6244 517.587 88.6274 517.591 88.6292C517.595 88.631 517.6 88.6315 517.604 88.6306C517.609 88.6297 517.613 88.6274 517.616 88.6241Z" fill="#0D974D"/>
<path d="M497.775 88.4477C497.777 88.437 497.777 88.4261 497.775 88.4156C497.772 88.4051 497.767 88.3954 497.76 88.387C497.753 88.3787 497.745 88.372 497.735 88.3674C497.725 88.3628 497.715 88.3605 497.704 88.3605C495.882 88.3612 493.986 88.3614 492.016 88.361C491.378 88.361 490.748 88.1173 490.315 87.6239C489.999 87.2624 489.857 86.8111 489.892 86.2702C489.926 85.7408 490.147 85.3064 490.556 84.9671C491.077 84.5345 491.772 84.4081 492.456 84.3882C493.155 84.3677 493.944 84.3752 494.826 84.4108C495.174 84.4251 495.531 84.4323 495.897 84.4323C498.706 84.433 501.438 84.4337 504.093 84.4344C504.145 84.4344 504.156 84.4561 504.129 84.4995C503.986 84.7244 503.848 85.029 503.748 85.2151C502.072 88.3243 500.397 91.4343 498.724 94.5452C498.632 94.7153 498.473 94.8175 498.285 94.8175C494.759 94.8171 491.23 94.8171 487.697 94.8175C487.315 94.8175 487.243 94.5953 487.087 94.3101C485.453 91.3452 483.805 88.3576 482.142 85.3475C482 85.0914 482.042 84.8525 482.179 84.5991C484.343 80.6061 485.924 77.6659 486.923 75.7785C487.119 75.4083 487.385 75.4487 487.821 75.4487C491.301 75.4479 494.781 75.4469 498.261 75.4454C498.459 75.4454 498.73 75.4696 498.845 75.6617C500.238 78.0047 501.572 80.2478 502.846 82.391C502.887 82.4598 502.921 82.5427 502.948 82.6186C502.949 82.623 502.95 82.6278 502.949 82.6324C502.949 82.6371 502.947 82.6416 502.944 82.6454C502.941 82.6493 502.938 82.6524 502.934 82.6545C502.929 82.6567 502.925 82.6578 502.92 82.6578C501.589 82.6575 500.154 82.658 498.616 82.6594C498.421 82.6594 498.36 82.5298 498.271 82.3867C497.751 81.5491 497.201 80.6466 496.621 79.6793C496.55 79.5605 496.476 79.4757 496.399 79.4248C496.294 79.3563 496.17 79.322 496.026 79.322C494.086 79.3216 492.121 79.3218 490.131 79.3225C489.88 79.3225 489.694 79.437 489.572 79.6658C488.534 81.6113 487.573 83.3892 486.689 84.9994C486.648 85.0747 486.621 85.1549 486.61 85.2399C486.608 85.2578 486.611 85.2748 486.618 85.291C486.662 85.3828 486.704 85.4671 486.746 85.5439C487.826 87.5063 488.841 89.3586 489.792 91.1007C489.887 91.2756 490.041 91.3767 490.237 91.3767C492.041 91.3731 493.917 91.3728 495.867 91.3757C495.92 91.3757 495.971 91.3568 496.011 91.3224C496.109 91.2388 496.189 91.1436 496.252 91.0367C496.74 90.216 497.236 89.3817 497.742 88.5337C497.758 88.5065 497.769 88.4778 497.775 88.4477Z" fill="#0D974D"/>
<path d="M508.528 94.9929C507.395 95.0574 506.661 94.2186 506.505 93.1307C506.45 92.7476 506.432 92.3263 506.433 91.9277C506.434 89.7985 506.433 87.4905 506.431 85.0036C506.431 84.8767 506.42 84.4925 506.599 84.4909C507.623 84.483 508.629 84.4837 509.617 84.4931C509.809 84.4948 510.017 84.5149 510.241 84.5533C510.263 84.5572 510.285 84.5682 510.301 84.5847C510.318 84.6011 510.329 84.6223 510.333 84.6453C510.362 84.8082 510.377 84.9662 510.377 85.1193C510.379 86.3391 510.4 87.4953 510.361 88.6693C510.344 89.1638 510.325 89.6351 510.324 90.1231C510.322 90.9821 510.325 91.8057 510.332 92.5937C510.336 93.0475 510.31 93.3716 510.253 93.566C510.029 94.3311 509.343 94.946 508.528 94.9929Z" fill="#0D974D"/>
<rect x="169" y="206" width="6" height="6" fill="#29292F"/>
<rect x="416" y="122" width="6" height="6" fill="#29292F"/>
<rect x="597" y="122" width="6" height="6" fill="#29292F"/>
</g>
<defs>
<filter id="filter0_d_150_2382" x="-4" y="0" width="857" height="668" filterUnits="userSpaceOnUse" color-interpolation-filters="sRGB">
<feFlood flood-opacity="0" result="BackgroundImageFix"/>
<feColorMatrix in="SourceAlpha" type="matrix" values="0 0 0 0 0 0 0 0 0 0 0 0 0 0 0 0 0 0 127 0" result="hardAlpha"/>
<feOffset dy="4"/>
<feGaussianBlur stdDeviation="2"/>
<feComposite in2="hardAlpha" operator="out"/>
<feColorMatrix type="matrix" values="0 0 0 0 0 0 0 0 0 0 0 0 0 0 0 0 0 0 0.25 0"/>
<feBlend mode="normal" in2="BackgroundImageFix" result="effect1_dropShadow_150_2382"/>
<feBlend mode="normal" in="SourceGraphic" in2="effect1_dropShadow_150_2382" result="shape"/>
</filter>
</defs>
</svg>
