<svg width="123" height="31" viewBox="0 0 123 31" fill="none" xmlns="http://www.w3.org/2000/svg">
<path d="M0 10C0 4.47715 4.47715 0 10 0L113 0C118.523 0 123 4.47715 123 10V21C123 26.5228 118.523 31 113 31L10 31C4.47715 31 0 26.5228 0 21L0 10Z" fill="#F7F8FC" fill-opacity="0.05"/>
<path d="M42.6947 20.192C41.0734 20.192 39.7187 19.6373 38.6307 18.528C37.5427 17.408 36.9987 16.032 36.9987 14.4C36.9987 12.7787 37.5427 11.408 38.6307 10.288C39.7187 9.168 41.1 8.608 42.7747 8.608C43.7454 8.608 44.5667 8.75733 45.2387 9.056C45.9214 9.35467 46.5614 9.78667 47.1587 10.352L45.8947 11.808C44.892 10.88 43.8467 10.416 42.7587 10.416C41.692 10.416 40.8067 10.8 40.1027 11.568C39.4094 12.336 39.0627 13.28 39.0627 14.4C39.0627 15.5093 39.4147 16.4533 40.1187 17.232C40.8227 18 41.7027 18.384 42.7587 18.384C43.3987 18.384 43.964 18.2667 44.4547 18.032C44.9454 17.7867 45.452 17.4187 45.9747 16.928L47.2387 18.208C46.6094 18.8693 45.9427 19.3653 45.2387 19.696C44.5347 20.0267 43.6867 20.192 42.6947 20.192ZM49.0832 20V11.552L51.0032 11.552V15.6L54.6832 11.552H56.9552L53.6752 15.104L57.2272 20H54.9392L52.3792 16.512L51.0032 17.968V20H49.0832ZM58.5036 20.096C58.1942 20.096 57.8156 20.0587 57.3676 19.984L57.5116 18.4C57.6822 18.4427 57.8689 18.464 58.0716 18.464C58.2956 18.464 58.4769 18.432 58.6156 18.368C58.7649 18.304 58.9142 18.144 59.0636 17.888C59.2236 17.6213 59.3462 17.248 59.4316 16.768C59.5169 16.288 59.5862 15.616 59.6396 14.752C59.6929 13.8773 59.7196 12.8107 59.7196 11.552H66.1036V20H64.1676V13.216L61.5276 13.216C61.5276 14.4213 61.4796 15.4453 61.3836 16.288C61.2876 17.1307 61.1596 17.7973 60.9996 18.288C60.8502 18.7787 60.6369 19.1627 60.3596 19.44C60.0929 19.7067 59.8209 19.8827 59.5436 19.968C59.2662 20.0533 58.9196 20.096 58.5036 20.096ZM75.6243 20H73.7043V18.96C73.0216 19.7707 72.1096 20.176 70.9683 20.176C70.1256 20.176 69.411 19.9467 68.8243 19.488C68.2483 19.0187 67.9603 18.368 67.9603 17.536C67.9603 16.6293 68.275 15.9413 68.9043 15.472C69.5336 15.0027 70.3603 14.768 71.3843 14.768C72.2056 14.768 72.9843 14.8853 73.7203 15.12V14.96C73.7203 14.3733 73.539 13.9253 73.1763 13.616C72.8243 13.3067 72.3123 13.152 71.6403 13.152C70.8723 13.152 70.067 13.328 69.2243 13.68L68.6963 12.128C69.7416 11.6587 70.8136 11.424 71.9123 11.424C73.139 11.424 74.0616 11.7333 74.6803 12.352C75.3096 12.9707 75.6243 13.8507 75.6243 14.992V20ZM73.7523 16.944V16.464C73.1763 16.24 72.531 16.128 71.8163 16.128C71.2083 16.128 70.7336 16.2453 70.3923 16.48C70.051 16.7147 69.8803 17.0453 69.8803 17.472C69.8803 17.856 70.035 18.16 70.3443 18.384C70.6536 18.608 71.043 18.72 71.5123 18.72C72.163 18.72 72.6963 18.5547 73.1123 18.224C73.539 17.8933 73.7523 17.4667 73.7523 16.944ZM76.9509 22.032V18.336H77.8629C78.4923 17.0773 78.8069 15.1627 78.8069 12.592V11.552H85.3509V18.336H86.5509L86.2949 22.032H84.6789V20H78.7589L78.5669 22.032H76.9509ZM79.8469 18.336H83.4149V13.216H80.6309V14.336C80.6309 15.904 80.3696 17.2373 79.8469 18.336Z" fill="#93939B"/>
</svg>
