<svg xmlns="http://www.w3.org/2000/svg" width="210.59" height="30" viewBox="0 0 210.59 30">
  <g id="text" transform="translate(-8.5 -4)">
    <path id="Path_58243" data-name="Path 58243" d="M98.237,4h10.9l-1.521,3.088H98.356L96.89,10.116h9.262L104.631,13.2H95.4l-3.665,7.568H101l-1.521,3.088H81.553L91.169,4h7.068Z" transform="translate(-51.566 0)" fill="#fff" fill-rule="evenodd"/>
    <path id="Path_58244" data-name="Path 58244" d="M18.621,23.859l5.005-10.354H20.345l-.639,1.317c-1.684,3.472-3.368,6.945-5.245,10.823L8.5,20.045,14.774,7.088H9.607L11.128,4H24.952c-1.089,2.249-2.113,4.362-3.11,6.418h3.277L28.221,4H36.89l-9.6,19.859Z" transform="translate(0 0)" fill="#fff" fill-rule="evenodd"/>
    <path id="Path_58245" data-name="Path 58245" d="M260.128,4h7.567l0,.007a3.614,3.614,0,0,1,2.385.9,2.07,2.07,0,0,1,.8,2.286c-.1.228-1.942,4.019-3.928,8.117-1.051,2.168-2.143,4.421-3.042,6.278a6.934,6.934,0,0,1-1.281,1.741,3.323,3.323,0,0,1-1.794.53h-14.3s-1.914,0-2.653-1a2.157,2.157,0,0,1-.306-2.6L250.4,6.149a6.221,6.221,0,0,1,1.358-1.756A3.969,3.969,0,0,1,253.556,4Zm-4.5,16.771L262.25,7.088h-3.617l-6.626,13.683Z" transform="translate(-165.719 0)" fill="#fff" fill-rule="evenodd"/>
    <path id="Path_58246" data-name="Path 58246" d="M648.447,23.859l8.108-16.771h-3.887L654.189,4h16.627l-1.521,3.088h-4.071l-8.108,16.771Z" transform="translate(-451.725 0)" fill="#fff" fill-rule="evenodd"/>
    <path id="Path_58247" data-name="Path 58247" d="M177.2,4H164.146L154.53,23.859h8.683l2.4-4.965h4.438l-2.4,4.964h9.121l.768-1.589c.761-1.575-.5-3.279-2.424-3.371a7.736,7.736,0,0,0,3.407-.685,5.578,5.578,0,0,0,1.929-1.983c.222-.459,1.123-2.347,2.043-4.274.959-2.009,1.938-4.061,2.189-4.581C185.471,5.756,184.119,4,182.1,4h-4.9ZM174,10.669c-.992,2.073-1.942,4.058-2.462,5.137h-4.428l4.222-8.719h4.382L174,10.664v0Z" transform="translate(-103.08 0)" fill="#fff" fill-rule="evenodd"/>
    <path id="Path_58248" data-name="Path 58248" d="M565.318,15.837c1.93-3.979,3.86-7.959,5.735-11.837h15.3c2.02,0,3.372,1.756,2.589,3.375L587.529,10.3h-7.312l1.551-3.209h-3.541l-4.683,9.687h6.176L578.2,19.863h-6.147l-1.866,3.86-4.544,9.415-6.059-5.464C561.458,23.8,563.388,19.816,565.318,15.837Z" transform="translate(-388.998 0)" fill="#fff" fill-rule="evenodd"/>
    <path id="Path_58249" data-name="Path 58249" d="M498.979,4h16.054l-9.616,19.859h-8.683l1.935-4H494.66l-1.935,4h-8.683c1.208-2.495,2.619-5.406,3.948-8.146,2.436-5.025,4.594-9.475,4.708-9.73a3.876,3.876,0,0,1,1.217-1.529A2.745,2.745,0,0,1,495.574,4h3.405Zm1.867,3.088-4.691,9.687h4.009l4.691-9.687Z" transform="translate(-335.676 0)" fill="#fff" fill-rule="evenodd"/>
    <path id="Path_58250" data-name="Path 58250" d="M399.586,23.859,409.2,4H427.3c2.02,0,3.371,1.756,2.589,3.375-.251.52-1.231,2.571-2.189,4.581-.92,1.927-1.821,3.815-2.043,4.274a5.58,5.58,0,0,1-1.929,1.983,7.736,7.736,0,0,1-3.407.685c1.928.092,3.185,1.8,2.424,3.371-.133.275-1.565,3.143-2.98,5.976v0h0c-1.381,2.765-2.745,5.5-2.869,5.752l-6.273-5.752.627-1.263h0c1.736-3.494,3.549-7.145,4.006-8.09h-4.578l-2.4,4.964Zm12.582-8.052h4.568c.519-1.079,1.468-3.061,2.459-5.132l0-.006v-.006l.009-.018c.579-1.211,1.173-2.451,1.7-3.557H416.39Z" transform="translate(-276.06 0)" fill="#fff" fill-rule="evenodd"/>
    <path id="Path_58251" data-name="Path 58251" d="M343.8,4h-7.115a2.471,2.471,0,0,0-2.389,1.7l-6.743,13.925s-.814,1.786-.183,2.967c.549,1.029,1.926,1.23,3.229,1.265l0,.007h13.551a3.323,3.323,0,0,0,1.794-.53,6.938,6.938,0,0,0,1.281-1.741l1.584-3.269h-8.683l-1.187,2.452h-3.255L342.3,7.088h3.255l-1.268,2.619h8.687c.7-1.436,1.161-2.4,1.213-2.513a2.07,2.07,0,0,0-.805-2.286A3.893,3.893,0,0,0,350.5,4H343.8Z" transform="translate(-224.911 0)" fill="#fff" fill-rule="evenodd"/>
  </g>
</svg>
