<svg id="logo-mini" xmlns="http://www.w3.org/2000/svg" width="173.586" height="30" viewBox="0 0 173.586 30">
  <path id="Path_57735" data-name="Path 57735" d="M15.311,30A15.332,15.332,0,0,1,0,14.942C0,8.865,4.178,3.377,8.311,0A25.389,25.389,0,0,1,12.1,3.279a25.41,25.41,0,0,1,3.409,3.63s-4.837,4.179-5.184,7.249a4.781,4.781,0,0,0,.168,2.115,4.894,4.894,0,0,0,1.07,1.851,5.1,5.1,0,0,0,1.775,1.245,5.246,5.246,0,0,0,2.151.409h.03a5.242,5.242,0,0,0,2.152-.407,5.09,5.09,0,0,0,1.776-1.245,4.885,4.885,0,0,0,1.07-1.852,4.775,4.775,0,0,0,.166-2.116c-.342-3.07-5.184-7.249-5.184-7.249a26.129,26.129,0,0,1,3.414-3.63A24.838,24.838,0,0,1,22.707,0c4.128,3.377,8.311,8.865,8.311,14.942C31.019,23.047,23.753,30,15.311,30Z" transform="translate(0 0)" fill="#f7f8fc"/>
  <path id="Path_57736" data-name="Path 57736" d="M63.139,4.847a6.552,6.552,0,0,0-2.011-.287,8.3,8.3,0,0,0-2.182.268V24.674a12.983,12.983,0,0,0,5.2,0V14.393l8.407,10.271a7.31,7.31,0,0,0,2.122.272,7.545,7.545,0,0,0,2.107-.248V4.813a10.181,10.181,0,0,0-2.514-.253,10.581,10.581,0,0,0-2.685.268V15.157Z" transform="translate(3.444 0.266)" fill="#f7f8fc"/>
  <path id="Path_57737" data-name="Path 57737" d="M83.045,24.941a11.055,11.055,0,0,0,2.735-.272V4.828c-.1-.029-.231-.058-.412-.092a13.022,13.022,0,0,0-2.323-.175,11.028,11.028,0,0,0-2.74.268V24.669A11.422,11.422,0,0,0,83.045,24.941Z" transform="translate(4.692 0.266)" fill="#f7f8fc"/>
  <path id="Path_57738" data-name="Path 57738" d="M97.631,13.092H95.539V9.531h2.092a1.893,1.893,0,0,1,.7.136,1.846,1.846,0,0,1,.6.386,1.78,1.78,0,0,1,.4.578,1.727,1.727,0,0,1,0,1.363,1.779,1.779,0,0,1-.4.578,1.845,1.845,0,0,1-.6.386A1.892,1.892,0,0,1,97.631,13.092Zm4.962-6.734c-1.75-1.489-3.937-1.683-6.033-1.683H90.119v20a2.941,2.941,0,0,1,.352.078,13.594,13.594,0,0,0,2.474.18,9.925,9.925,0,0,0,2.65-.243v-6.6s.3,0,.624.029,4.173.311,6.582-2.014a6.7,6.7,0,0,0,2.051-4.792,6.022,6.022,0,0,0-.541-2.727A6.218,6.218,0,0,0,102.594,6.358Z" transform="translate(5.265 0.273)" fill="#f7f8fc"/>
  <path id="Path_57739" data-name="Path 57739" d="M157.594,13.092H155.5V9.531h2.091a1.872,1.872,0,0,1,1.3.522,1.741,1.741,0,0,1,0,2.518A1.872,1.872,0,0,1,157.594,13.092Zm4.958-6.734c-1.75-1.489-3.931-1.683-6.033-1.683h-6.436v20a2.958,2.958,0,0,1,.352.078,13.584,13.584,0,0,0,2.474.18,9.922,9.922,0,0,0,2.649-.243v-6.6s.3,0,.623.029,4.179.311,6.582-2.014a6.7,6.7,0,0,0,2.051-4.792,6.013,6.013,0,0,0-.543-2.728A6.218,6.218,0,0,0,162.551,6.358Z" transform="translate(8.768 0.273)" fill="#f7f8fc"/>
  <path id="Path_57740" data-name="Path 57740" d="M136.449,19.974l-4.4-6.13v10.85c-.075,0-.171.044-.312.068a13.709,13.709,0,0,1-2.543.18,9.871,9.871,0,0,1-2.615-.224V4.809a2.575,2.575,0,0,1,.287-.073,10.482,10.482,0,0,1,2.117-.175,8.111,8.111,0,0,1,2.464.248l5.43,7.575,5.436-7.58a8.085,8.085,0,0,1,2.464-.248,10.38,10.38,0,0,1,2.112.175,2.427,2.427,0,0,1,.291.073V24.718a9.86,9.86,0,0,1-2.614.224,13.681,13.681,0,0,1-2.544-.18,1.009,1.009,0,0,1-.311-.068V13.844l-4.405,6.13Z" transform="translate(7.395 0.265)" fill="#f7f8fc"/>
  <path id="Path_57741" data-name="Path 57741" d="M115.159,25.16c4.088,0,8.679-2.258,8.679-8.7V4.833a14.725,14.725,0,0,0-5.084-.1c-.171.034-.292.063-.393.092v10.7c0,.355,0,1.323-.046,1.635a3.008,3.008,0,0,1-.924,2.161,3.234,3.234,0,0,1-4.467,0A3.008,3.008,0,0,1,112,17.166c-.031-.316-.046-1.28-.046-1.635V4.828c-.1-.029-.221-.058-.393-.092A12.348,12.348,0,0,0,109.3,4.56a12.521,12.521,0,0,0-2.822.272V16.456C106.48,22.9,111.077,25.16,115.159,25.16Z" transform="translate(6.221 0.266)" fill="#f7f8fc"/>
  <path id="Path_57742" data-name="Path 57742" d="M47.343,25.16c4.088,0,8.679-2.258,8.679-8.7V4.833a14.692,14.692,0,0,0-5.078-.1c-.171.034-.292.063-.392.092v10.7c0,.355,0,1.323-.045,1.635a3.017,3.017,0,0,1-.969,2.085,3.24,3.24,0,0,1-4.383,0,3.017,3.017,0,0,1-.969-2.085c-.025-.316-.045-1.28-.045-1.635V4.828c-.1-.029-.216-.058-.387-.092a14.724,14.724,0,0,0-5.083.1V16.456C38.67,22.9,43.261,25.16,47.343,25.16Z" transform="translate(2.259 0.266)" fill="#f7f8fc"/>
</svg>
