<svg xmlns="http://www.w3.org/2000/svg" width="22.916" height="22.916" viewBox="0 0 22.916 22.916">
  <path d="M18.047,2.225l0,0c-.006-.014-.012-.027-.018-.04h0A.382.382,0,0,0,18,2.141l0-.006a.246.246,0,0,0-.022-.029L17.97,2.1c-.01-.011-.019-.022-.03-.033s-.022-.021-.034-.03l-.006,0A.313.313,0,0,0,17.867,2l0,0a.477.477,0,0,0-.443-.044L2.681,7.886a1.282,1.282,0,0,0-.051,2.357l4.906,2.225,2.225,4.906a1.264,1.264,0,0,0,1.166.752h.03a1.262,1.262,0,0,0,1.161-.8l5.93-14.74a.365.365,0,0,0,.014-.042v0a.426.426,0,0,0,.01-.043h0A.478.478,0,0,0,18.047,2.225ZM3.027,9.366A.318.318,0,0,1,3.04,8.78L15.6,3.73l-7.8,7.8Zm8.2,7.6a.308.308,0,0,1-.289.2.317.317,0,0,1-.3-.187L8.474,12.21l7.8-7.8Z" transform="translate(11.49 -2.687) rotate(45)" fill="#fff"/>
</svg>
