<svg xmlns="http://www.w3.org/2000/svg" width="20.225" height="11.406" viewBox="0 0 20.225 11.406">
  <path d="M11.507,15.42a.677.677,0,0,1,0-.957l5.305-5.3a.677.677,0,0,1,.957.957l-5.3,5.3a.677.677,0,0,1-.958,0ZM22.455,9.4a.677.677,0,0,0-.957,0l-9.05,9.349L8.334,14.623a.677.677,0,1,0-.958.957l1.5,1.515L7.223,18.747,3.588,15.239a.679.679,0,0,0-.961.961l4.114,3.988a.677.677,0,0,0,.958,0l2.13-2.131,2.13,2.131a.677.677,0,0,0,.958,0l9.537-9.832a.677.677,0,0,0,0-.957Z" transform="translate(-2.428 -8.981)" fill="#319adc"/>
</svg>
