<svg xmlns="http://www.w3.org/2000/svg" width="39" height="35" viewBox="0 0 39 35">
  <g  fill="none" stroke="#9b9fa3" stroke-width="1" stroke-dasharray="2">
    <rect width="39" height="35" rx="2" stroke="none"/>
    <rect x="0.5" y="0.5" width="38" height="34" rx="1.5" fill="none"/>
  </g>
  <g  transform="translate(11 9)">
    <g>
      <path  d="M5.719,7.007,3.735,8.99A4.338,4.338,0,1,0,9.87,15.126l2.643-2.645a4.338,4.338,0,0,0-1.2-6.981l-.847.847a1.447,1.447,0,0,0-.223.288,2.892,2.892,0,0,1,1.245,4.825L8.849,14.1a2.893,2.893,0,0,1-4.092-4.092L5.9,8.866a5.81,5.81,0,0,1-.185-1.861Z" transform="translate(-2.464 -0.389)" fill="#9b9fa3"/>
      <path  d="M6.978,5.879a4.338,4.338,0,0,0,1.2,6.981L9.3,11.738A2.892,2.892,0,0,1,8,6.9l2.642-2.643a2.893,2.893,0,1,1,4.092,4.092L13.587,9.494a5.817,5.817,0,0,1,.185,1.861l1.984-1.984A4.338,4.338,0,1,0,9.621,3.236Z" transform="translate(-1.018 -1.965)" fill="#9b9fa3"/>
    </g>
  </g>
</svg>
