<svg  xmlns="http://www.w3.org/2000/svg" width="24" height="24" viewBox="0 0 24 24">
  <path  d="M0,0H24V19l-5,5H0Z" fill="#fff"/>
  <path  d="M7.15,18.505a1,1,0,0,1-1.365.362.985.985,0,0,1-.365-1.353l.715-1.224a1.725,1.725,0,0,1,1.98.565ZM14.1,15.834H5a.991.991,0,1,1,0-1.983H7.55l3.27-5.611L9.8,6.486a.988.988,0,0,1,.365-1.353,1.007,1.007,0,0,1,1.365.362l.445.763.445-.763a1,1,0,0,1,1.365-.362.985.985,0,0,1,.365,1.353l-4.29,7.365H12.96A1.359,1.359,0,0,1,14.1,15.834Zm4.9,0H17.55l.98,1.68a.988.988,0,0,1-.365,1.353,1.007,1.007,0,0,1-1.365-.362q-2.467-4.23-3.7-6.349a2.724,2.724,0,0,1,.355-3.36q.982,1.688,2.945,5.055H19a.991.991,0,1,1,0,1.983Z" fill="#151914"/>
</svg>
