<svg  xmlns="http://www.w3.org/2000/svg" width="24" height="24" viewBox="0 0 24 24">
  <path  d="M0,0H24V19l-5,5H0Z" fill="#fff"/>
  <path d="M6.734,18.021a8,8,0,0,0,10.533,0c1.25-1.274-2.877-5.8-5.268-7.609C9.612,12.215,5.482,16.747,6.734,18.021Zm7.44-9.6c1.667,1.974,4.99,6.874,4.052,8.606a8,8,0,0,0-.607-10.713.179.179,0,0,0-.054-.029.528.528,0,0,0-.188-.029c-.392,0-1.323.289-3.2,2.164ZM6.434,6.284a.331.331,0,0,0-.057.029,8,8,0,0,0-.6,10.711c-.932-1.734,2.385-6.633,4.055-8.6C7.947,6.541,7.015,6.255,6.622,6.255a.451.451,0,0,0-.188.031ZM12,6.367a9.4,9.4,0,0,0-3.5-1.2,1.829,1.829,0,0,0-1.014.227A7.933,7.933,0,0,1,11.988,4H12A7.971,7.971,0,0,1,16.51,5.391,1.809,1.809,0,0,0,15.5,5.164a9.4,9.4,0,0,0-3.5,1.2Z" fill="#151914" stroke="rgba(0,0,0,0)" stroke-miterlimit="10" stroke-width="1"/>
</svg>
