<svg  xmlns="http://www.w3.org/2000/svg" width="24" height="24" viewBox="0 0 24 24">
  <path  d="M0,0H24V19l-5,5H0Z" fill="#fff"/>
  <path  d="M9.612,4.5V18.494l3.1,1.006V7.762c0-.552.242-.919.631-.792.5.147.6.651.6,1.2v4.685c1.933.95,3.454,0,3.454-2.514,0-2.582-.891-3.729-3.513-4.648A36.154,36.154,0,0,0,9.616,4.5ZM13.3,17.454l4.985-1.817c.565-.205.653-.5.195-.651a3.343,3.343,0,0,0-1.868.1l-3.327,1.2v-1.9l.188-.065a11.693,11.693,0,0,1,2.307-.492,9.856,9.856,0,0,1,4.305.526c1.463.48,1.617,1.175,1.246,1.655a3.6,3.6,0,0,1-1.283.825L13.283,19.3V17.469Zm-9.367-.19c-1.506-.436-1.753-1.33-1.071-1.854a7.98,7.98,0,0,1,1.707-.837l4.447-1.6v1.844L5.83,15.987c-.56.215-.653.5-.188.657a3.194,3.194,0,0,0,1.852-.093l1.534-.564V17.64c-.093.022-.2.034-.309.059a9.81,9.81,0,0,1-4.778-.383Z" fill="#151914" stroke="rgba(0,0,0,0)" stroke-miterlimit="10" stroke-width="1"/>
</svg>
