<svg xmlns="http://www.w3.org/2000/svg" xmlns:xlink="http://www.w3.org/1999/xlink" width="23.223" height="16" viewBox="0 0 23.223 16">
  <defs>
    <clipPath id="clip-path">
      <rect id="Прямоугольник_10741" data-name="Прямоугольник 10741" width="16" height="23.223" fill="none" stroke="#f7f8fc" stroke-width="1.5"/>
    </clipPath>
  </defs>
  <g id="Сгруппировать_59423" data-name="Сгруппировать 59423" transform="translate(23.223) rotate(90)" clip-path="url(#clip-path)">
    <path id="Контур_63574" data-name="Контур 63574" d="M6.815,2.534A1.507,1.507,0,0,0,5.441,1a1.452,1.452,0,0,0-1.531,1.45V14.063L3.9,12.612A3.317,3.317,0,0,0,1.639,9.466.485.485,0,0,0,1,9.926v4.557a5.319,5.319,0,0,0,.742,2.709l1.906,3.222a1.593,1.593,0,0,1,.224.814v1.544h9.7V20.984a.985.985,0,0,1,.073-.372l1.4-3.446a6.783,6.783,0,0,0,.5-2.554v-4.8a1.508,1.508,0,0,0-1.374-1.532,1.452,1.452,0,0,0-1.53,1.45l-.007.974V8.846a1.508,1.508,0,0,0-1.374-1.532,1.452,1.452,0,0,0-1.531,1.45l-.007,1.944V7.876A1.507,1.507,0,0,0,8.352,6.344a1.451,1.451,0,0,0-1.53,1.45l-.007,2.9V2.534Z" transform="translate(-0.274 -0.274)" fill="none" stroke="#f7f8fc" stroke-miterlimit="10" stroke-width="1.5"/>
  </g>
</svg>
