<svg width="80" height="80" viewBox="0 0 80 80" fill="none" xmlns="http://www.w3.org/2000/svg">
<g clip-path="url(#clip0_1_2982)">
<path d="M30.5398 41.6509V53.7144H32.9842V49.8096C32.9842 49.1112 33.143 48.5715 33.4287 48.2223C33.7144 47.8731 34.1271 47.6826 34.6033 47.6826C35.4604 47.6826 35.9049 48.2858 35.9049 49.4604V53.6827H38.3493V49.016C38.3493 47.9366 38.0636 47.0795 37.5239 46.4128C36.9842 45.7461 36.1906 45.4287 35.2382 45.4287C34.2223 45.4287 33.4604 45.7779 32.9842 46.4128V41.5557H30.5398V41.6509Z" fill="#1A1A1A"/>
<path d="M44.0001 53.9049C45.1747 53.9049 46.1588 53.4922 46.9842 52.6985C47.8096 51.9049 48.2223 50.889 48.2223 49.7144C48.2223 48.5398 47.8096 47.5239 46.9842 46.7303C46.1588 45.9366 45.1429 45.5239 44.0001 45.5239C42.8255 45.5239 41.8413 45.9366 41.0159 46.7303C40.1905 47.5239 39.7778 48.5398 39.7778 49.7144C39.7778 50.889 40.1905 51.9049 41.0159 52.6985C41.8096 53.4922 42.8255 53.9049 44.0001 53.9049ZM42.6985 48.2858C43.0477 47.9366 43.4604 47.7461 43.9683 47.7461C44.4762 47.7461 44.9207 47.9366 45.2381 48.2858C45.5874 48.635 45.7461 49.1112 45.7461 49.6827C45.7461 50.2541 45.5874 50.7303 45.2381 51.0795C44.8889 51.4287 44.4762 51.6192 43.9683 51.6192C43.4604 51.6192 43.0159 51.4287 42.6985 51.0795C42.3493 50.7303 42.1905 50.2541 42.1905 49.6827C42.1905 49.1112 42.381 48.635 42.6985 48.2858Z" fill="#1A1A1A"/>
<path d="M57.2064 53.7144V49.7144C57.2382 48.3811 57.7461 47.7144 58.6667 47.7144C59.4286 47.7144 59.8413 48.3176 59.8413 49.5557V53.7144H62.2858V49.1112C62.2858 47.9684 62.0318 47.0795 61.4921 46.4446C60.9524 45.8097 60.2223 45.4922 59.2382 45.4922C58.762 45.4922 58.2858 45.6192 57.8096 45.8414C57.3334 46.0954 56.9842 46.4446 56.7302 46.889C56.1905 45.9366 55.3651 45.4604 54.254 45.4604C53.3969 45.4604 52.6985 45.8097 52.1905 46.4446V45.6192H49.7461V53.6827H52.1905V49.7779C52.1905 49.0795 52.3175 48.5398 52.5715 48.1906C52.8255 47.8414 53.1747 47.6827 53.6509 47.6827C54.4128 47.6827 54.8255 48.2858 54.8255 49.5239V53.6827L57.2064 53.7144Z" fill="#1A1A1A"/>
<path d="M71.9048 48.1906C71.6826 47.5874 71.3652 47.0795 70.9525 46.6985C70.5398 46.3176 70.0953 46.0001 69.5556 45.8096C69.0477 45.6192 68.4763 45.4922 67.9048 45.4922C66.6667 45.4922 65.6509 45.8731 64.8572 46.6985C64.0636 47.4922 63.6509 48.4763 63.6509 49.6827C63.6509 50.889 64.0636 51.9049 64.8572 52.6985C65.6509 53.4922 66.6668 53.9049 67.9366 53.9049C68.9525 53.9049 69.8414 53.6509 70.6033 53.1112C71.3652 52.5716 71.9048 51.9049 72.1588 51.0477H69.6191C69.5239 51.27 69.3334 51.4287 69.0477 51.5874C68.762 51.7462 68.4445 51.8096 68.0953 51.8096C67.4604 51.8096 66.9842 51.6509 66.635 51.3652C66.2858 51.0795 66.0953 50.6985 66.0636 50.2541H72.2541C72.2541 49.4922 72.1271 48.7938 71.9048 48.1906ZM66.0953 48.6985C66.1906 48.3176 66.4128 48.0001 66.7302 47.7779C67.0477 47.5557 67.4287 47.4287 67.8731 47.4287C68.2541 47.4287 68.5715 47.5239 68.889 47.7462C69.2064 47.9684 69.4287 48.2858 69.5556 48.7303H66.0953V48.6985Z" fill="#1A1A1A"/>
<path d="M79.6826 49.4604H75.9048V79.6827H79.6826V49.4604Z" fill="#1A1A1A"/>
<path d="M4.09516 49.4604H0.317383V79.6827H17.111V76.0001H4.09516V49.4604Z" fill="#1A1A1A"/>
<path d="M27.4922 62.1587C22.3493 62.1587 18.635 65.9365 18.635 71.1428C18.635 76.3492 22.381 80.0634 27.5556 80.0634C31.4922 80.0634 34.5715 77.9365 35.8096 74.4127L35.9049 74.1587H31.9366L31.8731 74.2539C31.1429 75.7777 29.5556 76.6349 27.5556 76.6349C24.762 76.6349 22.8572 74.9523 22.508 72.2222H36.1271V72.0317C36.3175 69.1111 35.4604 66.5079 33.7461 64.6984C32.1906 63.0476 30.0318 62.1587 27.4922 62.1587ZM22.762 69.0476C23.4287 66.8571 25.2064 65.5238 27.4922 65.5238C29.7779 65.5238 31.4604 66.8571 32.0318 69.0476H22.762Z" fill="#1A1A1A"/>
<path d="M45.7778 75.3332L40.8889 62.5078H36.8254L43.5556 79.6824H48L54.7619 62.5078H50.6985L45.7778 75.3332Z" fill="#1A1A1A"/>
<path d="M64.1587 62.1587C59.0158 62.1587 55.3015 65.9365 55.3015 71.1428C55.3015 76.3492 59.0475 80.0634 64.2222 80.0634C68.1587 80.0634 71.238 77.9365 72.4761 74.4127L72.5714 74.1587H68.6031L68.5396 74.2539C67.8094 75.7777 66.2222 76.6349 64.2222 76.6349C61.4285 76.6349 59.5237 74.9523 59.1745 72.2222H72.7936V72.0317C72.9841 69.1111 72.1269 66.5079 70.4126 64.6984C68.8571 63.0476 66.6666 62.1587 64.1587 62.1587ZM59.4285 69.0476C60.0952 66.8571 61.8729 65.5238 64.1587 65.5238C66.4444 65.5238 68.1269 66.8571 68.6983 69.0476H59.4285Z" fill="#1A1A1A"/>
<path d="M79.6825 0.317383H0.317383V45.6825H4.09516V4.09516H75.9047V45.6825H79.6825V0.317383Z" fill="#1A1A1A"/>
</g>
<defs>
<clipPath id="clip0_1_2982">
<rect width="80" height="80" fill="white"/>
</clipPath>
</defs>
</svg>
