<svg xmlns="http://www.w3.org/2000/svg" width="929" height="347" viewBox="0 0 929 347">
  <g  data-name="Group 53868" transform="translate(-86.338 -7853.367)">
    <text  transform="translate(769.338 8122.367)" fill="#0e0e10" font-size="340" font-family="Helvetica-Bold, Helvetica" font-weight="700"><tspan x="0" y="0">R</tspan></text>
    <path  data-name="Path 39344" d="M478.72-31.62q-36.04,35.7-90.44,35.7t-90.27-35.7Q262.14-67.32,262.14-119q0-51.34,36.21-87.21t90.61-35.87q54.4,0,90.27,35.7T515.1-119Q515.1-67.66,478.72-31.62ZM337.28-65.96q20.4,21.76,51.68,21.76T440.3-65.79Q460.36-87.38,460.36-119q0-31.28-20.4-53.04T388.28-193.8q-31.28,0-51.34,21.59T316.88-119Q316.88-87.72,337.28-65.96Z" transform="translate(299.199 8116.447)" fill="#0e0e10"/>
    <path  data-name="Path 39345" d="M478.72-31.62q-36.04,35.7-90.44,35.7t-90.27-35.7Q262.14-67.32,262.14-119q0-51.34,36.21-87.21t90.61-35.87q54.4,0,90.27,35.7T515.1-119Q515.1-67.66,478.72-31.62ZM337.28-65.96q20.4,21.76,51.68,21.76T440.3-65.79Q460.36-87.38,460.36-119q0-31.28-20.4-53.04T388.28-193.8q-31.28,0-51.34,21.59T316.88-119Q316.88-87.72,337.28-65.96Z" transform="translate(312.199 8116.447)" fill="#33d35e" stroke="#2bfd2f" stroke-width="1"/>
    <text  transform="translate(456.338 8122.367)" fill="#0e0e10" font-size="340" font-family="Helvetica-Bold, Helvetica" font-weight="700"><tspan x="0" y="0">L</tspan></text>
    <path  data-name="Path 39342" d="M478.72-31.62q-36.04,35.7-90.44,35.7t-90.27-35.7Q262.14-67.32,262.14-119q0-51.34,36.21-87.21t90.61-35.87q54.4,0,90.27,35.7T515.1-119Q515.1-67.66,478.72-31.62ZM337.28-65.96q20.4,21.76,51.68,21.76T440.3-65.79Q460.36-87.38,460.36-119q0-31.28-20.4-53.04T388.28-193.8q-31.28,0-51.34,21.59T316.88-119Q316.88-87.72,337.28-65.96Z" transform="translate(-21.762 8116.447)" fill="#0e0e10"/>
    <path  data-name="Path 39343" d="M478.72-31.62q-36.04,35.7-90.44,35.7t-90.27-35.7Q262.14-67.32,262.14-119q0-51.34,36.21-87.21t90.61-35.87q54.4,0,90.27,35.7T515.1-119Q515.1-67.66,478.72-31.62ZM337.28-65.96q20.4,21.76,51.68,21.76T440.3-65.79Q460.36-87.38,460.36-119q0-31.28-20.4-53.04T388.28-193.8q-31.28,0-51.34,21.59T316.88-119Q316.88-87.72,337.28-65.96Z" transform="translate(-8.762 8116.447)" fill="#33d35e" stroke="#2bfd2f" stroke-width="1"/>
    <text  transform="translate(86.338 8115.367)" fill="#0e0e10" font-size="340" font-family="Helvetica-Bold, Helvetica" font-weight="700"><tspan x="0" y="0">C</tspan></text>
  </g>
</svg>
