<svg xmlns="http://www.w3.org/2000/svg" width="96" height="33.504" viewBox="0 0 96 33.504">
  <g transform="translate(-867.499 -1481)">
    <path d="M-8745.5-23025.4h-96v-3.582h1v2.582h94v-2.582h1Z" transform="translate(9709 24539.902)" fill="#29292f"/>
    <g  transform="translate(462.699 1259)">
      <g  transform="translate(440.72 222)">
        <rect width="2.733" height="13.65" transform="translate(5.471 5.46)" fill="#f7f8fc"/>
        <rect width="2.733" height="13.65" transform="translate(10.93 5.46)" fill="#f7f8fc"/>
        <rect width="2.733" height="13.65" transform="translate(16.389 5.46)" fill="#f7f8fc"/>
        <path d="M153.03,0H131.17V24.569h24.593V0Zm0,21.839H133.9V2.73H153.03Z" transform="translate(-131.17)" fill="#f7f8fc"/>
      </g>
      <path d="M324.967,23.078V20.349H314.378v2.729h.007l-.006,8.192h0V34h0v.014h10.586l-.005-2.732-7.857-.009V28.537h5.426V25.809H317.1V23.078Z" transform="translate(175.535 207.109)" fill="#f7f8fc"/>
      <path d="M57.359,34h3.477l-5.67-7.571,5.486-6.079-3.678,0-4.541,5v-5H49.7V34h2.733V29.458l.861-.954Z" transform="translate(369.145 207.109)" fill="#f7f8fc"/>
      <path d="M106.1,23.008v-2.73h-5.465v2.73H102V31.2h-1.36v2.73H106.1V31.2h-1.373v-8.19Z" transform="translate(331.884 207.162)" fill="#f7f8fc"/>
      <path d="M238.4,23.008v-2.73h-5.465v2.73h1.36V31.2h-1.36v2.73H238.4V31.2h-1.373v-8.19Z" transform="translate(235.107 207.162)" fill="#f7f8fc"/>
      <path d="M271.666,20.336V29.1L266.2,20.347v-.012h-.008l0-.006v.006h-2.721v13.65H266.2V25.4l5.465,8.576v.013H274.4V20.336Z" transform="translate(212.776 207.124)" fill="#f7f8fc"/>
      <path d="M7.837,23.707h2.769A3.755,3.755,0,0,0,7.951,19.6a8.283,8.283,0,0,0-2.616-.4,10.152,10.152,0,0,0-2.56.308A4.038,4.038,0,0,0,.051,24.077c.177,1.568,1.072,3.107,5.429,3.7,1.98.185,2.321,1.009,2.346,1.246.136.885-.263,1.91-2.541,1.913C3.668,30.865,2.85,30.168,2.777,29c-1.634,0-2.21-.018-2.757-.02.048.111-.788,4.411,5.265,4.516,5.713.131,5.29-4.038,5.346-4.473a3.688,3.688,0,0,0-1.112-2.741C8.856,25.755,8.072,25.318,5.5,25c-.877-.143-2.572-.25-2.728-1.448-.041-.435-.061-1.779,2.56-1.779C6.738,21.774,7.9,22.535,7.837,23.707Z" transform="translate(405.498 207.95)" fill="#f7f8fc"/>
    </g>
  </g>
</svg>
