<svg xmlns="http://www.w3.org/2000/svg" width="312.215" height="104.63" viewBox="0 0 312.215 104.63">
  <g id="Group_53792" data-name="Group 53792" transform="translate(-147.797 -1821.986)">
    <rect id="Rectangle_6203" data-name="Rectangle 6203" width="312.215" height="104.629" transform="translate(147.797 1821.986)" fill="#efeff2"/>
    <path id="Path_37484" data-name="Path 37484" d="M0,0H17.718" transform="translate(442.281 1854.501)" fill="none" stroke="#33d35e" stroke-width="0.5"/>
    <path id="Path_37486" data-name="Path 37486" d="M0-.119h17.72" transform="translate(442.281 1862.102)" fill="none" stroke="#33d35e" stroke-width="0.5"/>
    <path id="Path_37484-2" data-name="Path 37484" d="M0,0H30.238" transform="translate(147.797 1853.502)" fill="none" stroke="#33d35e" stroke-linejoin="round" stroke-width="0.5"/>
    <path id="Path_37486-2" data-name="Path 37486" d="M0-.119h17.73" transform="translate(147.801 1860.821)" fill="none" stroke="#33d35e" stroke-width="0.5"/>
    <text id="_2х" data-name="2х" transform="translate(447.641 1860.102)" fill="#0e0e10" font-size="6" font-family="Helvetica"><tspan x="0" y="0">2х</tspan></text>
    <text id="_2х-2" data-name="2х" transform="translate(152.379 1858.941)" fill="#0e0e10" font-size="6" font-family="Helvetica"><tspan x="0" y="0">2х</tspan></text>
    <g id="Logo_SL_bez_fona_i_slogana" transform="translate(163.908 1838.093)">
      <g id="Сгруппировать_53591" data-name="Сгруппировать 53591" transform="translate(103.801)">
        <rect id="Прямоугольник_6332" data-name="Прямоугольник 6332" width="8.054" height="40.23" transform="translate(16.126 16.092)" fill="#0e0e10"/>
        <rect id="Прямоугольник_6333" data-name="Прямоугольник 6333" width="8.054" height="40.23" transform="translate(32.215 16.092)" fill="#0e0e10"/>
        <rect id="Прямоугольник_6334" data-name="Прямоугольник 6334" width="8.054" height="40.23" transform="translate(48.304 16.092)" fill="#0e0e10"/>
        <path id="Контур_38602" data-name="Контур 38602" d="M195.6,0H131.17V72.414h72.484V0Zm0,64.368H139.224V8.046H195.6Z" transform="translate(-131.17)" fill="#0e0e10"/>
      </g>
      <path id="Контур_38603" data-name="Контур 38603" d="M345.586,28.391V20.349H314.379v8.042h.022l-.017,24.145h-.006v8.047h.009v.041h31.2l-.016-8.051-23.158-.028V44.482h15.992V36.441h-15.99v-8.05Z" transform="translate(-65.59 -4.261)" fill="#0e0e10"/>
      <path id="Контур_38604" data-name="Контур 38604" d="M72.273,60.583H82.522L65.812,38.268,81.982,20.35l-10.841.006L57.757,35.1V20.352H49.7v40.23h8.054V47.194l2.538-2.812Z" transform="translate(-10.373 -4.261)" fill="#0e0e10"/>
      <path id="Контур_38605" data-name="Контур 38605" d="M116.747,28.324V20.278H100.639v8.046h4.008V52.462h-4.008v8.046h16.108V52.462H112.7V28.324Z" transform="translate(-20.999 -4.246)" fill="#0e0e10"/>
      <path id="Контур_38606" data-name="Контур 38606" d="M249.046,28.324V20.278H232.938v8.046h4.008V52.462h-4.008v8.046h16.108V52.462H245V28.324Z" transform="translate(-48.6 -4.246)" fill="#0e0e10"/>
      <path id="Контур_38607" data-name="Контур 38607" d="M287.631,20.349V46.183l-16.108-25.8v-.035H271.5l-.012-.019v.019h-8.021v40.23h8.054V35.266l16.108,25.276v.037h8.054V20.349Z" transform="translate(-54.969 -4.257)" fill="#0e0e10"/>
      <path id="Контур_37289" data-name="Контур 37289" d="M23.089,32.483h8.16s1.532-8.766-7.823-12.107a24.414,24.414,0,0,0-7.71-1.174,29.921,29.921,0,0,0-7.544.908C-.5,22.8-.142,31.331.142,33.573c.521,4.621,3.161,9.156,16,10.91,5.836.544,6.84,2.975,6.913,3.672.4,2.609-.776,5.628-7.489,5.638-4.763-.213-7.174-2.268-7.39-5.707-4.816,0-6.514-.054-8.127-.059.141.328-2.323,13,15.517,13.309,16.839.385,15.591-11.9,15.756-13.183-.093-1.161-.116-5.56-3.276-8.078-1.954-1.556-4.262-2.846-11.831-3.779-2.584-.421-7.582-.736-8.04-4.269-.122-1.282-.179-5.243,7.544-5.243C19.851,26.784,23.277,29.027,23.089,32.483Z" transform="translate(-0.004 -4.02)" fill="#0e0e10"/>
    </g>
    <path id="Path_37482" data-name="Path 37482" d="M0,0H32.2" transform="translate(307.802 1821.986) rotate(90)" fill="none" stroke="#33d35e" stroke-width="0.5"/>
    <path id="Path_41875" data-name="Path 41875" d="M0,0H32.207" transform="translate(307.755 1894.408) rotate(90)" fill="none" stroke="#33d35e" stroke-width="0.5"/>
    <path id="Path_37481" data-name="Path 37481" d="M0,.045S24.121,0,32.2,0" transform="translate(300.147 1821.986) rotate(90)" fill="none" stroke="#33d35e" stroke-width="0.5"/>
    <path id="Path_41874" data-name="Path 41874" d="M0,.045S24.126,0,32.207,0" transform="translate(300.195 1894.408) rotate(90)" fill="none" stroke="#33d35e" stroke-width="0.5"/>
    <text id="_2х-3" data-name="2х" transform="translate(300.406 1920.805)" fill="#0e0e10" font-size="6" font-family="Helvetica"><tspan x="0" y="0">2х</tspan></text>
    <text id="_2х-4" data-name="2х" transform="translate(300.553 1831.805)" fill="#0e0e10" font-size="6" font-family="Helvetica"><tspan x="0" y="0">2х</tspan></text>
  </g>
</svg>
