<svg xmlns="http://www.w3.org/2000/svg" xmlns:xlink="http://www.w3.org/1999/xlink" width="24" height="24" viewBox="0 0 24 24">
  <defs>
    <clipPath id="clip-path">
      <rect id="Rectangle_6966" data-name="Rectangle 6966" width="24" height="24" transform="translate(47 141)" fill="none" stroke="#707070" stroke-width="1"/>
    </clipPath>
  </defs>
  <g  transform="translate(-47 -141)" clip-path="url(#clip-path)">
    <g  transform="translate(-135 -186)">
      <path  d="M4.179-3.812H2.564v1.158H1.3V-3.812H.273V-4.83H1.3v-.536H.273V-6.384H1.3V-9.953H4.093a2.834,2.834,0,0,1,1.93.629,2.108,2.108,0,0,1,.722,1.672,2.1,2.1,0,0,1-.687,1.667,2.851,2.851,0,0,1-1.91.619H2.564v.536H4.179ZM2.564-6.384H4.073A1.537,1.537,0,0,0,5.116-6.7a1.186,1.186,0,0,0,.361-.942,1.246,1.246,0,0,0-.353-.917,1.362,1.362,0,0,0-.975-.371H2.564Z" transform="translate(190.491 345.304)" fill="#55555c"/>
      <g  transform="translate(183 328)">
        <circle  cx="8.067" cy="8.067" r="8.067" transform="translate(2.934 2.933)" fill="none" stroke="#55555c" stroke-miterlimit="10" stroke-width="1.5"/>
        <path  d="M621,557.184a11,11,0,0,1-11-11,11.659,11.659,0,0,1,3.222-8.067H610.73" transform="translate(-609.996 -535.184)" fill="none" stroke="#55555c" stroke-miterlimit="10" stroke-width="1.5"/>
        <path  d="M625,534.118a11,11,0,0,1,11,11,11.659,11.659,0,0,1-3.221,8.067h2.487" transform="translate(-613.996 -534.118)" fill="none" stroke="#55555c" stroke-miterlimit="10" stroke-width="1.5"/>
      </g>
    </g>
  </g>
</svg>
