<svg xmlns="http://www.w3.org/2000/svg" xmlns:xlink="http://www.w3.org/1999/xlink" width="23.909" height="24" viewBox="0 0 23.909 24">
  <defs>
    <clipPath id="clip-path">
      <rect  width="23.909" height="24" fill="none" stroke="#55555c" stroke-width="1.5"/>
    </clipPath>
  </defs>
  <g  clip-path="url(#clip-path)">
    <g  transform="translate(0.602 0.801)">
      <line  y2="3.345" transform="translate(11.289 0.418)" fill="none" stroke="#55555c" stroke-miterlimit="10" stroke-width="1.5"/>
      <line  x1="3.345" transform="translate(0.418 11.289)" fill="none" stroke="#55555c" stroke-miterlimit="10" stroke-width="1.5"/>
      <line  x1="1.448" y2="0.836" transform="translate(19.255 5.854)" fill="none" stroke="#55555c" stroke-miterlimit="10" stroke-width="1.5"/>
      <line  x1="1.448" y2="0.836" transform="translate(1.875 15.888)" fill="none" stroke="#55555c" stroke-miterlimit="10" stroke-width="1.5"/>
      <line  x1="0.836" y2="1.448" transform="translate(15.888 1.875)" fill="none" stroke="#55555c" stroke-miterlimit="10" stroke-width="1.5"/>
      <line  x1="0.836" y2="1.448" transform="translate(5.854 19.255)" fill="none" stroke="#55555c" stroke-miterlimit="10" stroke-width="1.5"/>
      <line  x2="0.836" y2="1.448" transform="translate(5.854 1.875)" fill="none" stroke="#55555c" stroke-miterlimit="10" stroke-width="1.5"/>
      <line  x2="1.448" y2="0.836" transform="translate(1.875 5.854)" fill="none" stroke="#55555c" stroke-miterlimit="10" stroke-width="1.5"/>
      <path  d="M553.464,297.783l5.268-5.268V288" transform="translate(-547.443 -281.226)" fill="none" stroke="#55555c" stroke-miterlimit="10" stroke-width="1.5"/>
      <path  d="M568.041,290.288h0A11.288,11.288,0,0,0,556.753,279h0a11.289,11.289,0,0,0-11.289,11.289h0a11.288,11.288,0,0,0,11.289,11.289h0" transform="translate(-545.464 -278.999)" fill="none" stroke="#55555c" stroke-miterlimit="10" stroke-width="1.5"/>
    </g>
    <path  d="M.294-.19v-.7l1.342-1.1a3.574,3.574,0,0,0,.547-.527.715.715,0,0,0,.15-.441.5.5,0,0,0-.15-.386.555.555,0,0,0-.392-.138.7.7,0,0,0-.406.124,2.113,2.113,0,0,0-.418.418l-.622-.5A2.318,2.318,0,0,1,1-4.079a1.633,1.633,0,0,1,.85-.2,1.449,1.449,0,0,1,1.008.343,1.169,1.169,0,0,1,.38.913,1.339,1.339,0,0,1-.127.591,1.65,1.65,0,0,1-.328.461,6.965,6.965,0,0,1-.6.51l-.657.507H3.279V-.19Zm5.514,0v-.87H3.837l-.144-.628L5.906-4.252h.749V-1.78H7.2v.72H6.655v.87ZM4.736-1.78H5.808V-3.036ZM7.208.547,9.76-4.788H10.5L7.951.547ZM10.849-.19l1.8-3.267h-1.9v-.766h2.9v.668L11.852-.19Z" transform="translate(10.248 20.158)" fill="#55555c"/>
  </g>
</svg>
