<svg xmlns="http://www.w3.org/2000/svg" xmlns:xlink="http://www.w3.org/1999/xlink" width="23.909" height="24" viewBox="0 0 23.909 24">
  <defs>
    <clipPath id="clip-path">
      <rect  width="23.909" height="24" fill="none" stroke="#55555c" stroke-width="1.5"/>
    </clipPath>
  </defs>
  <g  clip-path="url(#clip-path)">
    <g  transform="translate(0.654 0.705)">
      <path  d="M297.051,746.485h-3.615l-4.218,4.018H289V730.418a2.31,2.31,0,0,1,2.2-2.409h11.72a2.31,2.31,0,0,1,2.195,2.409h0" transform="translate(-288.997 -728.009)" fill="rgba(0,0,0,0)" stroke="#55555c" stroke-width="1.5"/>
      <path  d="M306.208,734.013h6.4a3.2,3.2,0,0,1,3.2,3.2l0,10.394v4h-.242l-4.609-4h-4.746a3.2,3.2,0,0,1-3.2-3.2v-7.2A3.2,3.2,0,0,1,306.208,734.013Z" transform="translate(-293.292 -729.115)" fill="rgba(0,0,0,0)" stroke="#55555c" stroke-width="1.5"/>
    </g>
  </g>
</svg>
