<svg xmlns="http://www.w3.org/2000/svg" xmlns:xlink="http://www.w3.org/1999/xlink" width="23.909" height="24" viewBox="0 0 23.909 24">
  <defs>
    <clipPath id="clip-path">
      <rect  width="23.909" height="24" fill="none" stroke="#55555c" stroke-width="1.5"/>
    </clipPath>
  </defs>
  <g  clip-path="url(#clip-path)">
    <g  transform="translate(-0.198)" fill="rgba(0,0,0,0)" stroke-miterlimit="10">
      <path d="M 12.00000095367432 23.25 C 8.995011329650879 23.25 6.169890880584717 22.07980155944824 4.045051097869873 19.9549503326416 C 1.920200943946838 17.83011054992676 0.7500009536743164 15.00499057769775 0.7500009536743164 12.00000095367432 C 0.7500009536743164 8.995011329650879 1.920200943946838 6.169890880584717 4.045051097869873 4.045051097869873 C 6.169890880584717 1.920200943946838 8.995011329650879 0.7500009536743164 12.00000095367432 0.7500009536743164 C 15.00499057769775 0.7500009536743164 17.83011054992676 1.920200943946838 19.9549503326416 4.045051097869873 C 22.07980155944824 6.169890880584717 23.25 8.995011329650879 23.25 12.00000095367432 C 23.25 15.00499057769775 22.07980155944824 17.83011054992676 19.9549503326416 19.9549503326416 C 17.83011054992676 22.07980155944824 15.00499057769775 23.25 12.00000095367432 23.25 Z" stroke="none"/>
      <path d="M 12.00000095367432 1.500001907348633 C 6.210281372070312 1.500001907348633 1.500001907348633 6.210281372070312 1.500001907348633 12.00000095367432 C 1.500001907348633 17.78972053527832 6.210281372070312 22.5 12.00000095367432 22.5 C 17.78972053527832 22.5 22.5 17.78972053527832 22.5 12.00000095367432 C 22.5 6.210281372070312 17.78972053527832 1.500001907348633 12.00000095367432 1.500001907348633 M 12.00000095367432 1.9073486328125e-06 C 18.62742042541504 1.9073486328125e-06 24 5.372581481933594 24 12.00000095367432 C 24 18.62742042541504 18.62742042541504 24 12.00000095367432 24 C 5.372581481933594 24 1.9073486328125e-06 18.62742042541504 1.9073486328125e-06 12.00000095367432 C 1.9073486328125e-06 5.372581481933594 5.372581481933594 1.9073486328125e-06 12.00000095367432 1.9073486328125e-06 Z" stroke="none" fill="#55555c"/>
    </g>
    <path  d="M5.125-4.243H2.9v1.826H1.632V-4.243H.257V-5.293H1.632V-6.2H.257V-7.245H1.632v-4.841H5.2a3.628,3.628,0,0,1,2.464.79,2.687,2.687,0,0,1,.91,2.138A2.749,2.749,0,0,1,7.7-6.976a3.664,3.664,0,0,1-2.48.774H2.9v.91H5.125Zm-2.225-3H5.2A2.267,2.267,0,0,0,6.765-7.73,1.806,1.806,0,0,0,7.3-9.144a1.781,1.781,0,0,0-.558-1.365,2.143,2.143,0,0,0-1.507-.528H2.9Z" transform="translate(7.54 19.252)" fill="#55555c"/>
  </g>
</svg>
