<svg xmlns="http://www.w3.org/2000/svg" xmlns:xlink="http://www.w3.org/1999/xlink" width="24" height="24" viewBox="0 0 24 24">
  <defs>
    <clipPath id="clip-path">
      <rect width="24" height="24" transform="translate(47 141)" fill="none" stroke="#707070" stroke-width="1"/>
    </clipPath>
  </defs>
  <g  transform="translate(-47 -141)" clip-path="url(#clip-path)">
    <g  transform="translate(-626.03 -265.038)">
      <g  transform="translate(-0.792 -0.792)" fill="rgba(0,0,0,0)">
        <path d="M 697.072021484375 427.6666870117188 L 677.7803955078125 427.6665954589844 L 677.7803955078125 415.3055419921875 L 689.6876220703125 415.3056030273438 L 689.998291015625 415.3056030273438 L 690.2179565429688 415.0859375 L 692.7704467773438 412.5333862304688 L 697.072021484375 412.5333862304688 L 697.072021484375 427.6666870117188 Z" stroke="none"/>
        <path d="M 696.322021484375 426.9166870117188 L 696.322021484375 413.2833862304688 L 693.0811157226562 413.2833862304688 L 690.3089599609375 416.0556030273438 L 678.5303955078125 416.0555419921875 L 678.5303955078125 426.9165954589844 L 696.322021484375 426.9166870117188 M 697.822021484375 428.4166870117188 L 677.0303955078125 428.4165954589844 L 677.0303955078125 414.5555419921875 L 689.6876220703125 414.5556030273438 L 692.4597778320312 411.7833862304688 L 697.822021484375 411.7833862304688 L 697.822021484375 428.4166870117188 Z" stroke="none" fill="#55555c"/>
      </g>
      <path  d="M676.22,423.749H673.03v-13.3h12.149l2.661-2.661h5.147v2.877" transform="translate(0.835 0.668)" fill="rgba(0,0,0,0)" stroke="#55555c" stroke-width="1.5"/>
    </g>
  </g>
</svg>
