<svg xmlns="http://www.w3.org/2000/svg" width="24" height="24" viewBox="0 0 24 24">
  <g  transform="translate(-681 -12014.997)">
    <g  transform="translate(681 12014.997)">
      <g  transform="translate(-498.967 -546.007)" fill="none">
        <path d="M507.7,555.007h-7.941l-.794-1.5v-6c.31-.586.484-.915.794-1.5H507.7l.794,1.5v6C508.186,554.092,508.012,554.421,507.7,555.007Z" stroke="none"/>
        <path d="M 506.7988586425781 553.5069580078125 C 506.8624877929688 553.3867797851562 506.9268188476562 553.265380859375 506.9967041015625 553.1336059570312 L 506.9967041015625 547.8795166015625 L 506.7994384765625 547.5069580078125 L 500.6636352539062 547.5069580078125 C 500.600341796875 547.6265869140625 500.5364379882812 547.7474365234375 500.4669799804688 547.8787841796875 L 500.4669799804688 553.1343994140625 L 500.6642150878906 553.5069580078125 L 506.7988586425781 553.5069580078125 M 507.7025756835938 555.0069580078125 L 499.7611083984375 555.0069580078125 C 499.4506225585938 554.4205322265625 499.2766723632812 554.0919189453125 498.9669799804688 553.5069580078125 L 498.9669799804688 547.5069580078125 C 499.2766723632812 546.9205322265625 499.4506225585938 546.5919189453125 499.7611083984375 546.0069580078125 L 507.7025756835938 546.0069580078125 C 508.0122680664062 546.5919189453125 508.1861572265625 546.9205322265625 508.4967041015625 547.5069580078125 L 508.4967041015625 553.5069580078125 C 508.1861572265625 554.0919189453125 508.0122680664062 554.4205322265625 507.7025756835938 555.0069580078125 Z" stroke="none" fill="#55555c"/>
      </g>
      <g  transform="translate(-498.967 -543.007)" fill="none">
        <path d="M507.7,567.007h-7.941l-.794-1.5v-6c.31-.586.484-.915.794-1.5H507.7l.794,1.5v6C508.186,566.092,508.012,566.421,507.7,567.007Z" stroke="none"/>
        <path d="M 506.7988586425781 565.5069580078125 C 506.8624877929688 565.3867797851562 506.9268188476562 565.265380859375 506.9967041015625 565.1336059570312 L 506.9967041015625 559.8795166015625 L 506.7994384765625 559.5069580078125 L 500.6636352539062 559.5069580078125 C 500.600341796875 559.6265869140625 500.5364379882812 559.7474365234375 500.4669799804688 559.8787841796875 L 500.4669799804688 565.1343994140625 L 500.6642150878906 565.5069580078125 L 506.7988586425781 565.5069580078125 M 507.7025756835938 567.0069580078125 L 499.7611083984375 567.0069580078125 C 499.4506225585938 566.4205322265625 499.2766723632812 566.0919189453125 498.9669799804688 565.5069580078125 L 498.9669799804688 559.5069580078125 C 499.2766723632812 558.9205322265625 499.4506225585938 558.5919189453125 499.7611083984375 558.0069580078125 L 507.7025756835938 558.0069580078125 C 508.0122680664062 558.5919189453125 508.1861572265625 558.9205322265625 508.4967041015625 559.5069580078125 L 508.4967041015625 565.5069580078125 C 508.1861572265625 566.0919189453125 508.0122680664062 566.4205322265625 507.7025756835938 567.0069580078125 Z" stroke="none" fill="#55555c"/>
      </g>
    </g>
    <g  transform="translate(695.479 12014.997)">
      <g  transform="translate(-498.967 -546.007)" fill="none">
        <path d="M507.7,555.007H499.76l-.793-1.5v-6c.309-.586.483-.915.793-1.5H507.7l.793,1.5v6C508.178,554.092,508,554.421,507.7,555.007Z" stroke="none"/>
        <path d="M 506.7909851074219 553.5069580078125 C 506.8545227050781 553.3869018554688 506.9187316894531 553.2655639648438 506.988525390625 553.1339111328125 L 506.988525390625 547.8792724609375 L 506.7915649414062 547.5069580078125 L 500.663330078125 547.5069580078125 C 500.6001586914062 547.6264038085938 500.5363464355469 547.7471923828125 500.467041015625 547.87841796875 L 500.467041015625 553.1347045898438 L 500.6639404296875 553.5069580078125 L 506.7909851074219 553.5069580078125 M 507.695068359375 555.0069580078125 L 499.7604370117188 555.0069580078125 C 499.4502563476562 554.4205322265625 499.2763671875 554.0919189453125 498.967041015625 553.5069580078125 L 498.967041015625 547.5069580078125 C 499.2763671875 546.9205322265625 499.4502563476562 546.5919189453125 499.7604370117188 546.0069580078125 L 507.695068359375 546.0069580078125 C 508.0045166015625 546.5919189453125 508.17822265625 546.9205322265625 508.488525390625 547.5069580078125 L 508.488525390625 553.5069580078125 C 508.17822265625 554.0919189453125 508.0045166015625 554.4205322265625 507.695068359375 555.0069580078125 Z" stroke="none" fill="#55555c"/>
      </g>
      <g  transform="translate(-498.967 -543.007)" fill="none">
        <path d="M507.7,567.007H499.76l-.793-1.5v-6c.309-.586.483-.915.793-1.5H507.7l.793,1.5v6C508.178,566.092,508,566.421,507.7,567.007Z" stroke="none"/>
        <path d="M 506.7909851074219 565.5069580078125 C 506.8545227050781 565.3869018554688 506.9187316894531 565.2655639648438 506.988525390625 565.1339111328125 L 506.988525390625 559.8792724609375 L 506.7915649414062 559.5069580078125 L 500.663330078125 559.5069580078125 C 500.6001586914062 559.6264038085938 500.5363464355469 559.7471923828125 500.467041015625 559.87841796875 L 500.467041015625 565.1347045898438 L 500.6639404296875 565.5069580078125 L 506.7909851074219 565.5069580078125 M 507.695068359375 567.0069580078125 L 499.7604370117188 567.0069580078125 C 499.4502563476562 566.4205322265625 499.2763671875 566.0919189453125 498.967041015625 565.5069580078125 L 498.967041015625 559.5069580078125 C 499.2763671875 558.9205322265625 499.4502563476562 558.5919189453125 499.7604370117188 558.0069580078125 L 507.695068359375 558.0069580078125 C 508.0045166015625 558.5919189453125 508.17822265625 558.9205322265625 508.488525390625 559.5069580078125 L 508.488525390625 565.5069580078125 C 508.17822265625 566.0919189453125 508.0045166015625 566.4205322265625 507.695068359375 567.0069580078125 Z" stroke="none" fill="#55555c"/>
      </g>
    </g>
  </g>
</svg>
