<svg xmlns="http://www.w3.org/2000/svg" width="23.901" height="25.5" viewBox="0 0 23.901 25.5">
  <g  transform="translate(-524.346 -12014.25)">
    <path  d="M181.2,363.133v3.2H162v-24h12.8l6.4,6.4v3.2" transform="translate(363.098 11672.667)" fill="none" stroke="#55555c" stroke-miterlimit="10" stroke-width="1.5"/>
    <path  d="M178,342.333v6.4h6.4" transform="translate(359.897 11672.667)" fill="none" stroke="#55555c" stroke-miterlimit="10" stroke-width="1.5"/>
    <path  d="M189.2,358.934v-1.6h-1.6a1.6,1.6,0,0,0-1.6,1.6v3.2a1.6,1.6,0,0,0,1.6,1.6h1.6v-1.6" transform="translate(358.299 11669.668)" fill="none" stroke="#55555c" stroke-miterlimit="10" stroke-width="1.5"/>
    <path  d="M170,357.334v6.4h1.6a1.6,1.6,0,0,0,1.6-1.6v-3.2a1.6,1.6,0,0,0-1.6-1.6Z" transform="translate(361.499 11669.668)" fill="none" stroke="#55555c" stroke-miterlimit="10" stroke-width="1.5"/>
    <rect  width="4.8" height="6.4" rx="2.4" transform="translate(537.097 12027.002)" fill="none" stroke="#55555c" stroke-miterlimit="10" stroke-width="1.5"/>
  </g>
</svg>
