<svg xmlns="http://www.w3.org/2000/svg" xmlns:xlink="http://www.w3.org/1999/xlink" width="24" height="24" viewBox="0 0 24 24">
  <defs>
    <clipPath id="clip-path">
      <rect  width="24" height="24" fill="none" stroke="#55555c" stroke-width="1.5"/>
    </clipPath>
  </defs>
  <g  clip-path="url(#clip-path)">
    <g transform="translate(1.11 1.5)">
      <path  d="M18.525,8.178a.725.725,0,0,0-.227,0,3.095,3.095,0,1,1,.227,0Z" transform="translate(-0.432 -2)" fill="none" stroke="#55555c" stroke-linejoin="round" stroke-width="1.5" opacity="0.999"/>
      <path  d="M16.967,15.414a4.751,4.751,0,0,0,3.885-.862,2.531,2.531,0,0,0,0-4.094,4.776,4.776,0,0,0-3.915-.85" transform="translate(-0.115 -0.521)" fill="none" stroke="#55555c" stroke-linejoin="round" stroke-width="1.5" opacity="0.999"/>
      <path  d="M6.458,8.178a.725.725,0,0,1,.227,0,3.095,3.095,0,1,0-.227,0Z" transform="translate(-2.77 -2)" fill="none" stroke="#55555c" stroke-linejoin="round" stroke-width="1.5" opacity="0.999"/>
      <path  d="M6.928,15.414a4.751,4.751,0,0,1-3.886-.862,2.531,2.531,0,0,1,0-4.094,4.776,4.776,0,0,1,3.915-.85" transform="translate(-2 -0.521)" fill="none" stroke="#55555c" stroke-linejoin="round" stroke-width="1.5" opacity="0.999"/>
      <path  d="M12.527,15.648a.725.725,0,0,0-.227,0,3.095,3.095,0,1,1,.227,0Z" transform="translate(-1.615 -3.52)" fill="none" stroke="#55555c" stroke-linejoin="round" stroke-width="1.5"/>
      <path  d="M9.3,17.937a2.288,2.288,0,0,0,0,4.094,6.8,6.8,0,0,0,6.968,0,2.288,2.288,0,0,0,0-4.094A6.852,6.852,0,0,0,9.3,17.937Z" transform="translate(-1.871 -2.038)" fill="none" stroke="#55555c" stroke-linejoin="round" stroke-width="1.5"/>
    </g>
  </g>
</svg>
