<svg xmlns="http://www.w3.org/2000/svg" width="25.499" height="25.06" viewBox="0 0 25.499 25.06">
  <g  transform="translate(-433.25 -11701.47)">
    <g transform="translate(434 11702)">
      <path d="M3,3,27,27" transform="translate(-3 -3)" fill="none" stroke="#55555c" stroke-linejoin="round" stroke-width="1.5"/>
      <path  d="M10.667,10.677a2.667,2.667,0,0,0,3.764,3.764" transform="translate(-0.667 -0.441)" fill="none" stroke="#55555c" stroke-linejoin="round" stroke-width="1.5"/>
      <path  d="M8.816,7.561A30.363,30.363,0,0,0,3,13.479c2.518,3.988,7.042,8,12,8a11.285,11.285,0,0,0,5.86-1.8" transform="translate(-3 -1.48)" fill="none" stroke="#55555c" stroke-linejoin="round" stroke-width="1.5"/>
      <path  d="M12,6c5.344,0,8.935,4.211,12,8a20.878,20.878,0,0,1-1.437,2" transform="translate(0 -2)" fill="none" stroke="#55555c" stroke-linejoin="round" stroke-width="1.5"/>
    </g>
    <g  transform="translate(434 11706)" opacity="0">
      <path  d="M12.667,15.333A2.667,2.667,0,1,0,10,12.667,2.667,2.667,0,0,0,12.667,15.333Z" transform="translate(-0.667 -4.667)" fill="none" stroke="#55555c" stroke-linejoin="round" stroke-width="1.5"/>
      <path  d="M27,14c-2.518,3.988-7.042,8-12,8S5.518,17.988,3,14c3.065-3.789,6.655-8,12-8S23.935,10.211,27,14Z" transform="translate(-3 -6)" fill="none" stroke="#55555c" stroke-linejoin="round" stroke-width="1.5"/>
    </g>
  </g>
</svg>
