<svg xmlns="http://www.w3.org/2000/svg" xmlns:xlink="http://www.w3.org/1999/xlink" width="24" height="34.835" viewBox="0 0 24 34.835">
  <defs>
    <clipPath id="clip-path">
      <rect id="Rectangle_6130" data-name="Rectangle 6130" width="24" height="34.835" fill="none" stroke="#55555c" stroke-width="1.5"/>
    </clipPath>
  </defs>
  <g id="Group_51595" data-name="Group 51595" transform="translate(24 34.835) rotate(180)">
    <g id="Group_51594" data-name="Group 51594" clip-path="url(#clip-path)">
      <path id="Path_37410" data-name="Path 37410" d="M9.723,3.3A2.261,2.261,0,0,0,7.662,1a2.178,2.178,0,0,0-2.3,2.175V20.594l-.01-2.177a4.975,4.975,0,0,0-3.4-4.719.728.728,0,0,0-.958.69v6.835a7.979,7.979,0,0,0,1.113,4.064l2.859,4.833a2.389,2.389,0,0,1,.335,1.221v2.315H19.862V30.975a1.478,1.478,0,0,1,.109-.557l2.1-5.169a10.174,10.174,0,0,0,.749-3.831V14.224a2.261,2.261,0,0,0-2.061-2.3A2.178,2.178,0,0,0,18.467,14.1l-.011,1.461V12.769a2.261,2.261,0,0,0-2.061-2.3,2.178,2.178,0,0,0-2.3,2.175l-.011,2.916V11.313a2.26,2.26,0,0,0-2.061-2.3A2.177,2.177,0,0,0,9.734,11.19l-.011,4.357V3.3Z" transform="translate(0.089 0.089)" fill="none" stroke="#55555c" stroke-miterlimit="10" stroke-width="1.5"/>
    </g>
  </g>
</svg>
