<svg xmlns="http://www.w3.org/2000/svg" width="18.432" height="21.201" viewBox="0 0 18.432 21.201">
  <path  d="M11.4,12.567V18.6a.6.6,0,1,0,1.2,0V12.567a5.6,5.6,0,1,0-1.2,0ZM12,2.6A4.4,4.4,0,1,1,7.6,7,4.4,4.4,0,0,1,12,2.6Zm8.911,19.335a1.607,1.607,0,0,1-1.3.665H4.388a1.607,1.607,0,0,1-1.3-.665,1.586,1.586,0,0,1-.22-1.441l1.334-4A1.6,1.6,0,0,1,5.721,15.4H8a.6.6,0,1,1,0,1.2H5.721a.4.4,0,0,0-.379.273l-1.334,4a.4.4,0,0,0,.38.526H19.612a.4.4,0,0,0,.38-.527l-1.334-4a.4.4,0,0,0-.379-.273H16a.6.6,0,1,1,0-1.2h2.279a1.6,1.6,0,0,1,1.521,1.1l1.334,4a1.587,1.587,0,0,1-.223,1.442Z" transform="translate(-2.784 -1.399)" fill="#acacac"/>
</svg>
